<?xml version="1.0" standalone="no"?>
<!DOCTYPE svg PUBLIC "-//W3C//DTD SVG 1.1//EN" "http://www.w3.org/Graphics/SVG/1.1/DTD/svg11.dtd" >
<svg>
<metadata>
Created by FontForge 20090914 at Fri Feb 24 10:39:15 2012
 By root
Generated in 2009 by FontLab Studio. Copyright info pending.
</metadata>
<defs>
<font id="MarkusInk" horiz-adv-x="348" >
  <font-face 
    font-family="Markus Ink"
    font-weight="400"
    font-stretch="normal"
    units-per-em="1000"
    panose-1="0 0 0 0 0 0 0 0 0 0"
    ascent="750"
    descent="-250"
    x-height="726"
    cap-height="731"
    bbox="-66 -113.171 492 878.043"
    underline-thickness="50"
    underline-position="-50"
    unicode-range="U+0020-U+2212"
  />
<missing-glyph horiz-adv-x="249" 
 />
    <glyph glyph-name=".notdef" horiz-adv-x="249" 
 />
    <glyph glyph-name="c" unicode="c" horiz-adv-x="313" 
d="M157 675c-17 -3 -31 -11 -34 -31c-1 -9 4 -17 3 -28c0 -48 -17 -103 -6 -154c-10 -40 -1 -77 -2 -116c0 -20 -6 -40 -8 -60c-3 -45 10 -92 8 -135c-1 -31 0 -72 18 -101c8 -5 23 -19 41 -6c11 8 22 35 26 50c5 23 0 41 24 46c19 3 51 -1 67 -8c-1 -21 2 -17 -4 -51
c-12 -16 -23 -44 -45 -52c-5 -2 -15 -1 -23 -3c-17 -5 -30 -19 -50 -21c-11 -1 -22 -1 -33 -2c-23 -2 -50 -1 -68 5c-38 13 -59 29 -65 80c-1 9 -5 21 -5 27c0 18 6 36 7 54c2 30 2 60 1 89c0 58 7 116 7 176c0 44 -3 104 -3 150c-1 34 5 72 16 94c5 10 15 15 16 26
c23 19 74 27 116 24c22 -1 61 1 73 -8c11 -8 21 -36 19 -50c-1 -12 -12 -15 -19 -23c-8 -9 -17 -25 -39 -21s-24 33 -38 49z" />
    <glyph glyph-name="D" unicode="D" horiz-adv-x="316" 
d="M16 687c6 32 49 24 72 34c47 -7 84 -4 125 -22c21 -15 35 -36 55 -52c5 -12 5 -29 13 -39c4 -51 7 -112 9 -169c1 -79 10 -150 -3 -229c-2 -7 3 -8 3 -13c-14 -23 -2 -53 -15 -85c-10 -25 -34 -39 -60 -48c-4 -1 -4 -6 -8 -7c-37 -14 -74 -42 -111 -45c-4 0 -3 -6 -7 -6
c-15 3 -30 -5 -47 0c-18 6 -22 25 -34 38c6 107 2 208 8 331c4 60 10 119 12 176c2 42 -2 84 -1 123c-1 7 -9 6 -11 13zM171 103c37 102 29 211 28 317c-2 77 8 170 -29 244c-20 7 -40 9 -68 5c-5 -25 4 -50 6 -73c3 -23 -3 -45 5 -65c-7 -61 1 -127 -3 -195
c0 -8 -4 -14 -5 -21c-1 -17 3 -35 3 -48c0 -5 1 -12 0 -17c-1 -24 0 -45 -2 -65c0 -7 -3 -13 -3 -20c-1 -16 5 -31 5 -47c0 -19 -6 -36 -1 -52c28 -1 45 23 64 37z" />
    <glyph glyph-name="d" unicode="d" horiz-adv-x="293" 
d="M14 692c12 8 21 18 32 26c25 2 60 13 91 8c11 -1 25 -3 31 -11c5 0 5 5 12 3c18 -10 36 -9 48 -23c24 -24 23 -67 35 -96c-7 -32 13 -78 3 -113c11 -116 1 -221 -8 -334c-2 -23 1 -53 -8 -68c-3 -4 -11 -8 -17 -13c-24 -22 -64 -45 -104 -45c-24 -13 -57 -21 -83 -17
c-16 -8 -43 -4 -47 13c-1 6 3 11 4 20c0 7 -4 14 -4 21c0 18 5 38 4 55c-1 5 1 12 1 18c1 18 4 34 5 54c1 14 -3 28 -2 40c2 17 9 49 4 67c5 40 9 78 11 117c5 85 8 177 -8 278zM157 109c5 33 10 64 13 99c10 125 25 265 3 388c-5 30 -14 57 -26 81c-16 9 -40 9 -49 -6
c5 -38 1 -72 5 -102c-11 -9 -4 -21 -3 -31c2 -37 -10 -80 -8 -117c0 -6 4 -12 5 -18c4 -51 -4 -102 1 -150c2 -7 -6 -5 -4 -13c7 -22 -2 -46 -2 -70c0 -19 6 -39 5 -58c-1 -18 -6 -37 5 -52c22 12 45 24 55 49z" />
    <glyph glyph-name="exclam" unicode="!" horiz-adv-x="138" 
d="M55 4c22 11 52 -6 76 -11c2 -24 -18 -30 -11 -55c-5 -2 -7 -5 -10 -14c-4 -11 -13 -7 -24 -9c-5 -1 -9 4 -13 5c-13 2 -31 -6 -41 2c-18 13 4 54 -5 76c8 -1 14 9 28 6zM115 719c0 -5 4 -10 5 -15c3 -19 -1 -52 -2 -80c-1 -31 -7 -54 -9 -79c-1 -12 0 -24 0 -36
c-3 -36 -3 -68 -5 -109c-1 -18 -7 -36 -8 -55c-1 -10 2 -21 1 -31c-1 -14 -6 -28 -6 -42c-1 -20 3 -41 1 -60c-1 -18 -8 -36 -8 -52c0 -9 5 -18 5 -26c0 -28 1 -51 15 -74c-4 -9 -18 -6 -29 -9c-15 -4 -40 -20 -56 -5c-1 123 0 249 3 374c3 75 -10 128 -4 204v39
c0 24 0 52 11 65c28 2 61 2 86 -9z" />
    <glyph glyph-name="E" unicode="E" horiz-adv-x="276" 
d="M263 713c-5 -11 -16 -17 -16 -34c-11 -13 -21 1 -39 4c-32 4 -69 -1 -86 -17c11 -79 5 -166 8 -256c29 -11 103 3 132 -15c-17 -10 -19 -37 -39 -39c-6 -1 -11 3 -17 5c-28 6 -57 -2 -81 -13c-5 -17 -2 -35 -3 -49c-1 -5 -6 -10 -7 -15c0 -2 3 -6 3 -9
c2 -31 -16 -69 -4 -95c-5 -13 -5 -30 -5 -45c-1 -11 2 -23 1 -33c0 -10 -5 -21 2 -32c46 1 91 5 122 -15c-7 -2 5 -22 -2 -19c-32 -35 -121 -3 -172 -17c-22 5 -40 13 -52 28c-9 71 -1 156 6 229c4 33 2 62 7 98c1 6 4 9 5 14c5 69 6 162 -2 238c-1 9 3 19 2 29
c-1 9 -1 22 -3 34c-3 14 -8 30 13 34c19 4 46 -2 66 -1c25 0 55 6 85 4c27 -1 57 0 76 -13z" />
    <glyph glyph-name="e" unicode="e" horiz-adv-x="265" 
d="M238 735c-6 -7 -15 -9 -23 -17c-4 -24 -4 -36 -16 -48c-46 11 -83 7 -119 -9c2 -8 -3 -16 5 -16c-8 -16 4 -33 5 -50c1 -14 -3 -28 -1 -42c3 -47 0 -98 3 -137c51 -7 105 16 159 15c-2 -9 -12 -9 -18 -13c7 -31 -20 -43 -31 -62c-30 -16 -86 -6 -112 -29
c2 -55 -1 -134 -6 -187c9 -21 -5 -50 5 -69c42 0 97 20 139 0c2 -12 13 -14 18 -22c-8 -20 -24 -8 -32 -17c-49 -3 -82 -10 -127 -21c-12 -2 -21 -4 -34 -6c-20 -4 -40 -14 -51 10c9 152 6 288 7 424c0 48 1 99 2 148c0 34 5 77 -2 104c-2 5 -7 10 -7 16c0 11 8 19 13 28
c13 1 23 5 38 3c18 -3 37 -19 55 -3c5 0 4 -5 7 -7c45 3 87 14 123 7z" />
    <glyph glyph-name="F" unicode="F" horiz-adv-x="339" 
d="M322 741c-2 -16 -12 -25 -15 -41c-50 -11 -117 7 -161 -16c-5 -58 -5 -117 -14 -166c8 -16 2 -39 -2 -56c44 -10 91 12 125 0c-4 -18 -7 -51 -34 -54c-13 -2 -25 7 -39 6c-23 -1 -44 -12 -57 -26c-4 -62 -1 -105 -9 -156c5 -20 2 -45 3 -70c5 -8 5 -20 0 -27
c-1 -7 8 -3 6 -10c-12 1 3 -12 -8 -13c3 -23 3 -40 7 -57c-5 -8 -16 -10 -26 -18c-12 -8 -18 -25 -38 -26c-22 0 -43 19 -57 34c1 40 4 77 5 121c0 2 -5 0 -5 3c0 16 7 20 0 31c-1 5 5 3 5 6c6 86 12 152 15 238c4 18 8 38 8 60c0 11 -4 23 -3 34c0 4 4 8 5 13
c0 8 -4 16 -4 24c1 14 6 26 7 38c2 37 0 76 -3 107c6 5 10 11 16 16c49 0 87 3 132 5c50 3 99 12 141 0z" />
    <glyph glyph-name="f" unicode="f" horiz-adv-x="302" 
d="M288 739c-4 -18 -13 -32 -29 -39c-56 5 -106 1 -156 -14c-14 -89 -12 -159 -10 -247c40 -9 90 17 117 -8c-2 -18 -10 -28 -20 -38c-34 0 -68 2 -94 -16c7 -88 9 -195 15 -281c0 -10 1 -21 3 -28c5 -17 18 -28 -2 -40c-3 -3 -9 -2 -14 -5c-8 -5 -15 -15 -23 -18
c-22 -10 -51 -11 -65 3c-19 20 -9 50 -5 83c-3 133 4 314 7 432c0 46 3 91 6 129c2 21 6 42 -2 60c29 35 111 27 166 32l39 5c20 -1 53 2 67 -10z" />
    <glyph glyph-name="G" unicode="G" horiz-adv-x="314" 
d="M223 631c-14 -2 -23 11 -36 16c-4 1 -10 -1 -14 1c-9 4 -19 21 -31 20c-25 -3 -26 -55 -31 -75c-2 -6 -6 -10 -7 -14c-1 -13 4 -35 3 -49c0 -29 -6 -61 -8 -93c-2 -59 9 -125 8 -187c0 -28 -6 -52 -4 -76c0 -7 4 -12 4 -18c2 -32 1 -59 15 -83s46 -4 64 -2
c31 39 9 107 17 160c-13 13 -53 16 -53 40c0 17 21 17 37 23c30 -4 74 -1 104 -16c6 -29 -5 -58 -1 -88c2 -19 8 -39 6 -57c-2 -20 -16 -43 -15 -63c-16 -15 -36 -22 -56 -31c-15 -7 -30 -16 -51 -20c-80 -12 -165 21 -172 95c-3 34 1 70 0 102c-1 34 0 83 1 122
c2 47 9 124 12 174c2 35 0 75 6 115c4 19 10 41 17 56s20 36 29 42c12 8 38 7 42 14c1 1 2 0 2 -1c19 -5 53 -1 76 -13c13 -7 29 -16 44 -25c3 -1 7 -3 8 -4c3 -4 3 -12 5 -17c3 -7 8 -8 8 -14c0 -17 -18 -25 -29 -34z" />
    <glyph glyph-name="g" unicode="g" 
d="M241 635c-16 -4 -32 -5 -45 6c-12 11 -8 30 -31 29c-31 0 -32 -44 -46 -69c-7 -79 -4 -161 -1 -246c1 -42 -5 -85 -7 -127c-1 -34 1 -74 5 -107c4 -25 10 -53 21 -75c29 -7 58 -3 75 13c13 62 20 154 20 213c-11 12 -20 4 -35 7c-27 5 -60 41 -22 50c14 4 37 4 57 2
c37 -4 60 -6 92 -23c11 -34 -2 -69 -5 -104c-2 -24 4 -47 -6 -70c5 -30 -12 -49 -10 -84c-6 -8 -12 -19 -21 -25c-10 -6 -25 -7 -39 -10c-45 -9 -72 -17 -120 -9c-36 6 -85 29 -99 55c-19 34 -23 88 -17 138c-6 113 4 210 13 330c2 16 4 31 7 49c0 4 -2 9 -2 13
c2 11 10 27 15 44s8 35 14 45c32 51 103 52 163 34c19 -17 50 -51 24 -79z" />
    <glyph glyph-name="H" unicode="H" horiz-adv-x="308" 
d="M84 739c20 -45 7 -117 1 -160c-3 -27 0 -53 -1 -77c-2 -28 -11 -52 -12 -81c44 -8 75 -2 117 0c9 20 2 40 9 62c-1 36 3 78 6 120c1 19 4 39 7 58c3 29 3 54 17 75c18 3 49 5 70 -6c7 -50 1 -94 -3 -151c-4 -51 -7 -102 -13 -153c-6 -49 -4 -99 -6 -146
c-5 -75 -10 -186 -2 -265c-26 -6 -66 -13 -91 1c-1 117 2 226 5 343c-23 20 -86 13 -114 8c6 -60 -9 -124 -2 -177c1 -6 0 -11 5 -15c1 -5 -8 -4 -3 -9c10 -58 4 -112 18 -164c-28 -7 -103 -31 -88 14c2 165 10 354 18 548c1 37 1 73 3 110c1 20 -1 47 12 65c19 3 28 8 47 0
z" />
    <glyph glyph-name="h" unicode="h" horiz-adv-x="317" 
d="M83 426c19 -11 69 -8 96 -8c10 6 6 27 6 39c3 65 10 140 13 212c1 16 1 40 8 46c10 7 38 4 46 3c3 0 37 -9 40 -13c12 -12 9 -79 7 -94c-2 -14 -6 -38 -8 -50c2 -75 -5 -163 -8 -231c-5 -101 -10 -213 5 -312c-29 -8 -55 -7 -90 -17c-10 6 -25 8 -27 20c-3 10 4 18 4 28
c1 11 -3 23 -3 35c-2 92 12 201 7 288c-22 2 -68 8 -88 -6c-10 -68 1 -133 8 -200c2 -15 0 -30 2 -44c3 -25 14 -40 21 -60c-29 -8 -67 -41 -98 -12c2 66 12 146 2 205c6 63 -4 138 -5 211c-1 70 -14 140 -19 205c-2 21 -2 36 3 54c13 7 40 13 52 0c4 -5 5 -25 8 -39
c3 -15 7 -30 8 -38c3 -27 1 -59 3 -91c2 -24 5 -46 5 -66c1 -22 -1 -47 2 -65z" />
    <glyph glyph-name="I" unicode="I" horiz-adv-x="142" 
d="M117 731c0 -16 2 -49 3 -65c3 -35 4 -74 4 -114c0 -14 6 -29 6 -44c0 -31 2 -68 -3 -99c-6 -35 -2 -83 -15 -118c3 -13 7 -30 0 -38c2 -36 -2 -72 -5 -109c-2 -39 4 -76 2 -120c-11 -7 -24 -2 -36 -5c-10 -2 -14 -11 -22 -14c-20 -8 -37 -1 -51 21c8 60 6 129 15 200
c-5 24 2 46 3 71c8 138 12 279 7 408c18 25 65 31 92 26z" />
    <glyph glyph-name="i" unicode="i" horiz-adv-x="122" 
d="M80 712c18 -39 9 -79 15 -121c1 -14 0 -27 0 -42c-1 -32 7 -64 8 -96c0 -19 -4 -38 -4 -58c0 -18 0 -36 -1 -54c-1 -8 3 -15 3 -23c0 -15 -5 -29 -6 -44c-2 -19 2 -42 0 -61c-2 -11 -8 -18 -9 -28c0 -26 7 -51 -1 -75c6 -29 11 -65 14 -89c0 -8 -42 -25 -65 -21
c-12 2 -15 13 -24 21c-1 86 -7 172 -8 265c0 32 3 65 3 99c0 106 0 214 -3 322c16 21 57 11 78 5z" />
    <glyph glyph-name="J" unicode="J" horiz-adv-x="299" 
d="M283 721c9 -28 0 -59 -2 -89c0 -7 3 -13 2 -20c-2 -20 -9 -40 -11 -61c-1 -12 0 -25 0 -36c-2 -26 -8 -52 -2 -80c-10 -56 -4 -116 -8 -174c-1 -14 -6 -28 -7 -42c-1 -47 5 -93 5 -138c-8 -16 -22 -33 -40 -44c-10 -6 -23 -6 -34 -11c-8 -4 -15 -10 -23 -13
c-57 -21 -149 -22 -161 37c-5 26 4 47 6 75c1 13 1 29 2 42c1 8 -2 17 0 23c11 27 74 19 93 0c3 -15 -7 -27 -12 -41c-3 -10 0 -22 -1 -36c-2 -26 -12 -44 8 -61c33 -5 43 13 57 29c4 103 11 222 13 349c0 40 4 99 6 135c2 41 6 70 10 116c1 16 1 37 5 43c14 28 75 10 94 -3
z" />
    <glyph glyph-name="j" unicode="j" horiz-adv-x="288" 
d="M273 704c11 -88 -15 -182 -13 -282c2 -65 -3 -125 -3 -188c0 -26 3 -58 5 -90c1 -25 3 -61 -5 -79c-4 -10 -28 -28 -39 -34c-14 -8 -29 -7 -46 -11c-26 -5 -53 -16 -77 -21c-26 6 -60 5 -80 16c-11 23 -14 51 -11 80c1 10 6 20 8 30c6 33 -2 68 10 98c19 6 75 -2 78 -21
c1 -8 -9 -12 -12 -19c-2 -7 -5 -20 -6 -30c-5 -35 -14 -83 5 -106c30 -4 45 15 64 28c11 30 7 64 8 100c1 8 5 18 5 27c6 144 -10 280 7 425c1 15 0 32 1 48c3 30 3 45 26 51c21 -2 54 -9 75 -22z" />
    <glyph glyph-name="K" unicode="K" horiz-adv-x="383" 
d="M127 449c14 6 19 22 28 34c8 11 20 20 28 33c4 6 3 14 8 21c7 9 20 20 27 31c7 10 12 22 18 32c7 11 16 20 21 29c7 10 8 25 15 31c25 21 69 -3 99 -10c-2 -23 -19 -31 -26 -50c-33 -33 -52 -80 -84 -114c11 -28 5 -73 9 -113c4 -32 9 -64 12 -93c3 -28 1 -54 5 -80
c2 -20 12 -40 16 -62c4 -23 4 -42 15 -60c12 -22 40 -43 26 -83c-10 -7 -22 -7 -35 -9c-19 -4 -49 -20 -61 5c-2 3 0 11 -2 17c-1 5 -6 9 -6 10c-1 3 2 8 1 12c0 5 -5 11 -6 16c-5 22 -5 47 -10 71c-2 11 -6 23 -8 35c-16 71 -24 164 -34 238c-15 -18 -35 -45 -54 -65
c-2 -95 -12 -208 -3 -297c-15 -3 -47 -29 -77 -29c-21 -1 -44 10 -45 32c-1 25 5 64 5 86c0 10 3 20 3 26c-2 37 1 96 2 143c0 107 -2 241 -2 355c0 31 -15 68 20 74c19 4 70 -8 79 -14c11 -7 20 -26 20 -46c0 -68 -6 -142 -4 -206z" />
    <glyph glyph-name="k" unicode="k" horiz-adv-x="361" 
d="M134 733c16 -34 -2 -81 -5 -122c-1 -14 2 -29 0 -43c-3 -28 -8 -70 -13 -102c-2 -11 -7 -19 -3 -32c57 86 102 184 151 277c7 2 8 10 15 12c24 -3 54 -3 57 -23c2 -18 -31 -63 -38 -81c-2 -7 -1 -13 -3 -18c-5 -11 -17 -21 -16 -33c-23 -35 -46 -70 -64 -110
c-2 -44 5 -83 15 -124c9 -40 27 -78 44 -112c9 -30 22 -69 37 -101c4 -6 11 -12 13 -19c2 -5 1 -10 3 -15c9 -18 32 -36 17 -55c-32 -4 -73 -20 -88 10c-17 94 -55 166 -80 252c-11 1 -13 -11 -21 -16c-16 -13 -42 -13 -50 -35c2 -57 -9 -114 -5 -175c0 -7 5 -14 5 -21
c0 -13 -7 -27 -2 -41c-24 -2 -94 -27 -101 8c-2 13 3 30 4 46c0 21 1 44 1 61c2 91 6 182 10 272c4 83 11 162 13 242c1 35 2 66 2 102c20 31 77 9 102 -4z" />
    <glyph glyph-name="L" unicode="L" horiz-adv-x="262" 
d="M108 720c3 -79 10 -166 6 -255c-4 -107 -11 -216 -16 -320c-1 -21 5 -38 -5 -59c2 -12 8 -20 7 -35c41 -12 104 16 144 -7c0 -7 -8 -9 -14 -15c-5 -4 -8 -12 -13 -14c-9 -4 -21 1 -31 1c-14 1 -34 -2 -54 -4c-20 -3 -41 -3 -57 -5c-10 -2 -18 -8 -27 -7
c-22 2 -39 19 -47 29c1 7 0 15 4 18c-5 8 -5 19 -4 30c1 45 7 104 4 146c4 11 6 24 5 36c-4 120 10 247 12 377c0 27 -1 61 5 86c27 8 56 8 81 -2z" />
    <glyph glyph-name="l" unicode="l" horiz-adv-x="324" 
d="M134 730c0 -32 -18 -59 -21 -91c-2 -18 3 -36 0 -54c-2 -8 -7 -16 -8 -24c-4 -24 0 -55 0 -85c-1 -30 -1 -63 -2 -97c-1 -61 -5 -116 2 -177c3 -35 8 -67 11 -96c2 -15 -4 -31 7 -44c33 -6 74 7 110 13c27 4 71 8 80 -30c5 -19 -30 -25 -52 -27c-17 -2 -41 1 -62 -2
c-35 -4 -84 -6 -120 -14c-31 -7 -61 -15 -78 13c6 73 1 147 1 221c0 66 5 132 5 198c1 95 4 208 26 297c18 30 77 11 101 -1z" />
    <glyph glyph-name="M" unicode="M" horiz-adv-x="403" 
d="M381 722c5 -33 7 -67 6 -104c0 -18 -6 -38 -6 -57c-1 -55 9 -111 0 -167c8 -13 0 -28 6 -44c-9 -26 -2 -69 -11 -91c4 -46 8 -113 0 -164c-3 -21 -5 -54 -5 -85c-16 3 -40 -23 -62 -26c-23 -2 -55 15 -39 36c10 85 11 165 15 249c4 79 13 149 13 232
c-11 -21 -21 -52 -31 -79c-2 -6 -1 -14 -3 -18c-13 -26 -57 -44 -83 -25c-39 29 -38 111 -68 150c3 -62 -6 -135 -10 -208c-1 -22 3 -44 0 -65c-1 -7 -7 -13 -8 -20c-2 -9 -2 -20 -4 -30c-1 -11 -6 -21 -8 -30c-1 -12 2 -25 0 -35c-1 -6 -6 -12 -8 -18c-5 -25 2 -56 -14 -70
c-19 -16 -51 0 -62 14c6 96 15 197 21 298c3 57 9 104 5 167c-3 37 -8 75 -13 112c-3 21 -6 39 -2 56c22 14 60 10 88 4c19 -23 38 -46 58 -68c20 -41 43 -84 56 -122c11 10 15 26 21 39c5 14 12 29 16 43c5 18 7 37 12 55c1 5 6 10 8 16c7 23 9 46 24 63c32 13 60 2 88 -8z
" />
    <glyph glyph-name="m" unicode="m" horiz-adv-x="407" 
d="M86 566c-1 -86 -2 -167 7 -249c-5 -19 5 -42 1 -63c5 -9 5 -19 10 -23c-5 -25 8 -62 0 -86c7 -47 5 -64 18 -109c-23 -25 -73 -62 -107 -20c1 40 1 86 1 125c0 20 -4 39 -5 59c0 9 4 19 4 28c-2 26 -5 53 -5 81c-1 9 -5 19 -5 29c-2 28 -1 58 -2 86c-1 38 -1 77 -3 122
c-1 11 -4 21 -3 29c0 4 4 5 5 9c3 35 -4 69 4 102c0 5 -3 7 -3 11c5 8 6 19 13 25c15 0 31 7 47 5c14 -3 21 -14 34 -17c0 -4 3 -4 2 -9c53 -49 74 -117 104 -187c27 29 41 94 65 138c7 12 24 44 37 47c23 5 41 -4 64 -10c15 -27 18 -59 18 -89c0 -14 3 -25 5 -38
c3 -26 -1 -58 -2 -89c0 -12 3 -25 2 -36c-2 -9 -6 -21 -7 -34c-1 -16 3 -33 2 -49s-5 -29 -5 -50c-1 -44 -9 -86 0 -133c-1 -4 -4 -5 -5 -8c2 -20 -3 -42 -5 -64c7 -1 1 -4 2 -8c3 -18 18 -53 13 -75c-42 -5 -77 -46 -101 -1c-3 76 -3 156 3 245l3 47c6 81 9 140 10 212
c-22 -42 -26 -104 -37 -147c-17 -6 -19 -40 -38 -44c-13 -2 -23 10 -35 9c-11 7 -18 17 -28 26c-23 67 -44 136 -75 201c-1 0 -1 2 -3 2z" />
    <glyph glyph-name="N" unicode="N" horiz-adv-x="335" 
d="M173 647c21 -58 38 -106 52 -173c5 88 -5 174 -14 254c24 21 62 10 94 2c8 -23 7 -45 8 -77c0 -10 2 -21 2 -31c0 -1 -3 -6 -3 -8c0 -13 5 -26 4 -39c-1 -45 3 -89 4 -136c0 -5 -2 -12 -2 -17c-2 -21 -3 -47 -5 -69c-1 -13 3 -23 3 -35c1 -13 -6 -35 -4 -55
c4 -55 -9 -100 -12 -153c-1 -28 -12 -55 -16 -79c-9 -5 -15 -1 -24 -5s-11 -13 -18 -15c-11 -2 -23 5 -33 12c3 16 -5 22 -10 30c13 22 2 44 0 62c0 6 3 12 2 16c-1 7 -6 12 -8 18c-3 11 -2 22 -3 33c-6 39 -17 77 -17 117c-8 8 -4 21 -6 37c-2 21 -10 40 -11 62
c-1 11 -7 23 -10 34c-6 23 -8 45 -13 65c-8 30 -23 61 -33 94c-3 -54 -4 -126 -9 -180c-3 -21 1 -43 0 -63c-1 -13 -6 -26 -7 -39c-4 -51 -13 -111 -11 -156c0 -27 -6 -58 -5 -85c0 -4 4 -7 5 -11c0 -5 -2 -14 -2 -20c0 -7 1 -14 -2 -21c2 -7 8 -10 7 -19
c-31 0 -49 -33 -75 -10c-9 19 3 47 -5 60c6 51 4 109 2 154c8 61 9 129 11 197c4 110 5 228 2 336c12 13 34 20 60 17c34 -4 41 -8 55 -34c13 -24 29 -53 47 -70z" />
    <glyph glyph-name="n" unicode="n" horiz-adv-x="359" 
d="M331 56c-22 -9 -56 -16 -81 -13c-11 56 -28 91 -44 144c-34 71 -58 157 -82 236c-7 26 -14 53 -29 73c-1 -59 -10 -121 -6 -175c-11 -23 -4 -44 0 -70c1 -10 -1 -20 0 -28c1 -10 8 -19 9 -29c2 -9 -1 -19 0 -28c3 -17 12 -33 15 -50c2 -11 0 -22 0 -33c1 -12 9 -24 2 -39
c6 -6 5 -21 3 -27c-29 -13 -50 -34 -91 -31c-10 25 14 83 -13 96c9 108 -28 211 -7 323c-9 83 3 227 -1 311c13 23 56 27 73 6c13 -1 23 -5 34 -8c8 -9 5 -22 8 -33c2 -7 8 -14 10 -21c4 -14 3 -30 6 -45c4 -17 14 -46 17 -67c0 -4 -2 -8 -2 -13c1 -23 21 -48 28 -71
c8 -27 11 -52 18 -82c21 -49 35 -109 58 -165c4 159 9 345 13 529c10 20 50 14 64 2c21 -30 13 -61 11 -101c-1 -30 1 -64 -3 -94c-1 -7 -6 -13 -7 -19c-5 -31 2 -67 -1 -98c-2 -15 0 -31 0 -49c0 -50 -8 -100 -7 -144c0 -9 2 -17 2 -25c-1 -9 -6 -17 -7 -26
c0 -8 5 -18 5 -27c0 -13 -3 -26 -2 -36c2 -6 7 -10 9 -16c6 -21 6 -42 -2 -57z" />
    <glyph glyph-name="Ntilde" unicode="&#xd1;" horiz-adv-x="341" 
d="M249 742c12 -7 16 -3 38 -3c7 -11 6 -28 19 -30c7 -30 7 -58 16 -84c-19 -97 17 -232 -14 -328c1 -57 -11 -105 -18 -155c5 -36 19 -74 16 -104c-21 -7 -61 -21 -83 -6c-9 46 -22 91 -32 131c-5 19 -10 37 -15 54c-9 29 -13 59 -21 88c-11 40 -26 81 -42 117
c-11 43 -25 89 -49 123c2 -24 2 -45 3 -66c1 -23 13 -41 16 -61c2 -10 -1 -21 0 -32c3 -19 9 -46 10 -73c1 -11 -3 -23 -3 -34c0 -7 3 -13 3 -20c0 -9 -4 -18 -5 -27c-1 -17 4 -34 3 -49c0 -22 -5 -43 -4 -62c1 -25 8 -61 8 -93c0 -8 -2 -23 -5 -27c-8 -11 -57 -25 -72 -18
c-17 8 -10 51 -11 78c-1 22 -7 50 -8 71c-1 11 2 21 1 31c-3 78 6 153 4 231c-2 68 -1 145 -4 213c0 15 3 31 0 46c-1 8 -6 12 -6 19c0 16 10 18 21 31c44 -3 65 -37 90 -63c24 -59 36 -119 55 -174c3 -12 15 -22 21 -33c5 -10 7 -21 11 -32c14 -34 34 -63 43 -100
c2 69 -10 138 -7 197c2 33 0 69 7 98c1 8 7 16 8 24c4 36 -9 78 -4 119c6 -2 7 2 10 3zM253 777c-4 -11 -17 -9 -27 -13c-6 -3 -11 -10 -17 -12c-10 -3 -35 -8 -48 -5c-25 5 -51 24 -80 10s-52 -35 -80 -13c1 55 84 55 173 41c24 5 58 2 79 -8z" />
    <glyph glyph-name="A" unicode="A" horiz-adv-x="325" 
d="M201 20c20 86 11 200 16 285c-16 18 -47 7 -72 3c-21 -3 -43 -1 -58 -11c9 -100 -14 -184 -3 -281c-21 -4 -59 -28 -77 -2c-5 8 -3 19 -3 32c2 86 1 171 2 248c0 19 -2 39 -2 60c1 70 9 132 13 196c1 14 4 25 5 43c4 64 13 148 75 128c11 10 26 15 45 11
c11 -2 15 -2 25 -3c32 -2 59 -26 84 -42c7 -21 22 -34 33 -51c10 -39 17 -79 19 -131c1 -33 -5 -68 -5 -103c0 -19 5 -37 3 -55c0 -5 -4 -11 -4 -16c-1 -12 2 -24 1 -36c-1 -16 -7 -33 -8 -49c0 -8 2 -16 2 -24c-1 -13 -8 -26 -8 -39c-4 -55 1 -109 0 -159
c-1 -11 -15 -10 -26 -13c-8 -3 -16 -9 -23 -10c-15 -1 -27 9 -34 19zM144 659c-10 -8 -15 -22 -25 -31c-6 -22 -7 -44 -9 -65c-3 -17 -10 -33 -13 -52c-1 -3 2 -7 1 -11c0 -6 -4 -13 -5 -20c-5 -43 -1 -86 -6 -130c44 -9 80 8 128 7c15 66 -9 148 -16 231
c-2 19 -2 49 -10 70c-14 4 -29 4 -45 1z" />
    <glyph glyph-name="B" unicode="B" horiz-adv-x="287" 
d="M240 526c-10 -26 -7 -55 -8 -80c-1 -26 -11 -52 -8 -80c13 -15 39 -37 42 -66c3 -23 -4 -52 -5 -80c0 -28 -3 -58 -6 -86c-1 -5 -4 -10 -5 -16c-6 -42 4 -85 -26 -101c-5 -3 -13 -2 -20 -5c-11 -5 -22 -15 -32 -18c-7 -2 -15 0 -23 -1c-35 -6 -72 -10 -105 3
c-14 13 -31 22 -41 37c17 206 46 407 24 590c-5 15 -14 30 -13 46c1 7 12 16 10 26c27 24 70 39 109 37c38 -1 78 -28 91 -58c5 -13 12 -46 13 -59c3 -26 -2 -61 3 -89zM115 311c-4 -9 1 -15 2 -23c1 -25 -9 -55 -12 -82c-2 -24 3 -46 -8 -64c7 -38 -13 -65 5 -101
c-1 -3 -6 -2 -5 -8c9 -14 28 -2 47 -5c27 5 30 52 34 78c3 16 3 36 5 56c8 61 19 113 8 164c-31 11 -54 -6 -76 -15zM105 672c-2 -5 4 -35 7 -47c1 -8 7 -15 8 -25c2 -10 3 -22 3 -30c5 -71 -4 -143 -5 -200c13 -1 17 2 28 6c14 50 13 112 15 174c1 48 5 100 -17 135
c-12 4 -34 0 -39 -13z" />
    <glyph glyph-name="C" unicode="C" horiz-adv-x="296" 
d="M97 418c0 -5 7 -3 6 -8c-10 -6 -3 -20 -3 -36c0 -20 -2 -47 0 -68c1 -10 5 -19 5 -28c-3 -46 2 -99 8 -148c4 -34 17 -70 41 -86c21 0 22 22 27 39c28 20 60 14 93 6c1 -12 -4 -16 -7 -39c-27 -19 -55 -37 -91 -47c-45 -12 -105 1 -133 21c-23 24 -29 80 -34 124
c-3 28 -4 58 -5 89c-2 75 -4 155 -2 223c2 40 2 74 13 106c0 33 10 70 26 96c28 43 92 69 147 63c7 -1 26 -2 32 -7c5 -3 5 -9 10 -16s11 -9 11 -14c2 -18 -22 -29 -32 -30c-10 0 -17 7 -25 8c-30 5 -51 -14 -61 -39c-5 -11 -14 -33 -15 -45c0 -5 2 -10 2 -15
c-1 -9 -7 -18 -8 -27c-7 -41 -4 -86 -5 -122z" />
    <glyph glyph-name="a" unicode="a" horiz-adv-x="328" 
d="M309 44c-30 -11 -63 -31 -94 -13c-1 44 3 83 3 133c1 15 5 31 4 43c-2 17 -2 50 -2 76c-3 5 -8 8 -2 13c-11 14 -68 20 -86 7c-12 7 -24 -6 -37 -9c-4 -19 4 -38 6 -58c2 -16 -1 -31 0 -47c1 -6 5 -11 5 -16c5 -46 -8 -95 8 -142c-8 -7 -18 -4 -29 -8
c-16 -6 -29 -25 -52 -15c-6 3 -9 11 -16 17c3 13 2 25 1 39c0 13 4 28 4 44c-3 68 -2 145 -5 225c-2 56 -1 94 -3 152c-2 39 -7 88 -9 130c-2 44 6 85 31 102c27 18 87 15 122 8c5 -1 12 -5 18 -6c14 -2 25 0 36 -2c5 -1 11 -5 18 -6c19 -6 30 -12 42 -31
c29 -47 8 -129 20 -187c-3 0 -5 -17 -5 -19c2 -28 4 -36 5 -71c0 -10 5 -22 6 -34c1 -10 -3 -20 -2 -29c1 -3 5 -7 5 -10c3 -10 3 -24 4 -34c1 -28 1 -55 0 -83c8 -22 -5 -46 6 -68c-7 -11 -1 -20 0 -31c2 -21 -13 -47 -2 -70zM183 675c-17 4 -44 -19 -67 -16
c-10 1 -12 8 -24 8c-16 -24 -10 -55 -10 -85s4 -63 1 -94c-1 -19 3 -35 4 -52c2 -33 4 -63 11 -91c37 4 82 4 122 5c-7 101 -7 201 -18 297c-11 8 -6 25 -19 28z" />
    <glyph glyph-name="b" unicode="b" horiz-adv-x="293" 
d="M227 424c16 -16 64 -27 49 -70c16 -49 -4 -99 -5 -156c0 -11 1 -23 0 -34c-1 -6 -5 -12 -6 -20c-1 -2 3 -6 3 -10c-1 -16 -3 -43 -5 -61c-3 -27 -17 -55 -39 -60c-7 -2 -17 1 -26 0c-14 -2 -28 -12 -41 -13c-15 -2 -36 2 -53 1c-16 0 -31 -5 -41 -3c-6 1 -10 7 -16 8
c-12 3 -25 -2 -34 5c-2 6 -7 8 -10 13c3 85 11 165 8 244c2 3 3 7 5 11c-1 83 12 228 15 336c0 23 7 51 3 69c-4 13 -23 18 -5 34c15 13 54 18 75 18c47 0 77 -8 112 -16c43 -29 40 -96 40 -150c1 -19 -2 -42 -6 -59c-2 -7 -7 -12 -8 -19c-2 -15 0 -33 -5 -52
c-3 -6 -9 -8 -10 -16zM107 370c-2 -53 0 -86 -2 -140c-1 -21 -6 -43 -6 -68c0 -20 4 -32 -3 -50c10 -22 -1 -44 4 -75c18 -6 38 -3 56 0c22 24 26 73 31 115c8 87 20 160 13 234c-29 16 -74 8 -93 -16zM122 692c-17 -4 -12 -22 -12 -42c0 -72 -2 -151 0 -217
c19 -3 44 6 52 22c5 9 11 39 13 55c3 22 2 48 5 73c4 38 5 75 -6 104c-20 -5 -35 9 -52 5z" />
    <glyph glyph-name="ntilde" unicode="&#xf1;" horiz-adv-x="319" 
d="M303 694c-1 -41 4 -18 -12 -77c-7 -52 -13 -102 -16 -151c-1 -10 -5 -21 -5 -31c0 -3 3 -7 3 -10c0 -17 -6 -36 -8 -55c-2 -18 0 -38 -2 -55c-1 -14 -2 -27 -3 -44c-1 -12 -8 -25 -10 -37c-2 -15 2 -31 0 -44c0 -5 -5 -8 -6 -13c-1 -2 2 -7 1 -12c0 -5 -4 -10 -4 -14
c-2 -18 -1 -39 -2 -56c-2 -25 7 -38 8 -60c-17 -2 -41 -7 -62 0c-46 144 -56 293 -94 449c-10 -32 -3 -65 -2 -99c1 -29 0 -56 -1 -85c-3 -68 -3 -131 -3 -206c0 -24 4 -49 0 -80c-14 -14 -54 -24 -72 -10c12 193 -2 381 -8 584c-1 23 -6 71 3 86c15 26 42 21 68 23
c5 -3 5 -8 7 -13c8 -2 11 0 21 0c20 -29 33 -61 46 -99c7 -21 11 -35 19 -56c16 -42 20 -100 34 -156c9 19 7 40 8 59c3 31 4 60 4 89c-1 8 3 14 3 21c-1 23 -11 44 -2 67c-13 31 1 51 -14 79c4 9 -3 15 4 24c28 7 71 -6 97 -18zM268 781c-7 -8 -17 -13 -29 -16
c-7 -10 -21 -14 -31 -22c-5 2 -7 -3 -10 0c-8 -3 -16 -10 -26 -13c-20 -6 -45 -2 -68 -4c-8 -1 -16 -6 -24 -5c-5 0 -7 3 -12 5c-31 8 -55 -7 -81 5c1 16 -2 19 10 19c43 24 99 30 158 31c11 0 23 -7 34 -7c24 1 54 25 79 7z" />
    <glyph glyph-name="O" unicode="O" 
d="M318 158c7 -16 -8 -34 0 -44c-8 -23 -16 -44 -29 -65c-11 -5 -22 -9 -36 -16c-9 -5 -14 -13 -21 -16c-65 -37 -212 -24 -231 58c-5 23 -3 60 -1 85c3 59 7 130 16 182c14 76 24 151 31 225c1 17 -1 33 2 49c4 30 15 58 21 86c11 11 17 25 31 33c20 5 36 9 56 10
c8 0 16 -5 25 -5c26 -1 49 6 76 -3c12 -5 36 -19 44 -30c8 -10 15 -36 23 -47c6 -10 2 -37 1 -52c0 -10 6 -19 5 -29c0 -5 -4 -11 -5 -16c-1 -14 5 -28 5 -43c2 -28 -6 -56 -5 -76c1 -11 7 -20 7 -31c0 -25 -3 -51 -3 -76c0 -8 4 -17 5 -25c0 -15 -5 -32 -5 -48
c0 -13 2 -26 1 -39c0 -9 -3 -19 -5 -28c-2 -15 -1 -28 -8 -39zM185 56c28 41 34 100 42 149c6 37 7 77 8 115c1 27 2 64 -1 91c-1 6 3 13 3 18l-3 164c-1 35 -3 68 -18 98c-2 0 -2 2 -5 2c-14 -12 -34 -16 -57 -21c-31 -48 -18 -116 -32 -174c6 -18 -2 -38 -4 -56
c-1 -18 -2 -34 -4 -48c-6 -43 1 -108 -10 -158c4 -54 -4 -113 13 -169c8 -9 11 -22 27 -23c10 8 28 8 41 12z" />
    <glyph glyph-name="o" unicode="o" horiz-adv-x="353" 
d="M331 676c18 -89 -3 -193 -10 -278c-2 -7 6 -3 5 -9c-11 -34 -6 -75 -8 -112c0 -9 -5 -17 -5 -25c0 -49 6 -98 13 -146c-6 -21 -6 -43 -15 -59c-5 -9 -16 -25 -24 -30c-17 -12 -37 -6 -60 -9c-7 0 -14 -6 -21 -8c-3 0 -9 2 -13 2c-28 -2 -55 -5 -83 0c-10 2 -21 2 -26 3
c-4 1 -7 7 -12 8c-3 1 -8 -1 -11 0c-5 2 -22 14 -28 18c-13 12 -24 33 -17 52c-4 7 -9 13 -12 20c4 65 10 143 10 213c0 2 -3 4 -3 6c0 19 6 39 6 60c1 15 -1 34 0 55c3 62 10 123 18 178c4 27 15 60 24 76c25 40 73 49 132 46c19 -1 39 -11 55 -12c6 0 12 3 17 2
c4 -1 10 -6 18 -8c7 -2 17 -1 22 -4c15 -7 17 -26 28 -39zM204 676c-6 0 -11 -4 -16 -3c-9 2 -16 9 -24 8c-17 -1 -22 -20 -33 -32c-1 -6 2 -8 2 -13c-10 -13 -8 -26 -10 -41c-3 -19 -10 -39 -10 -57c0 -27 -5 -47 -6 -70c-1 -6 3 -13 3 -21c0 -20 -5 -42 -3 -60
c2 -16 5 -31 -2 -44c12 -89 -8 -187 7 -279c10 -13 11 -30 26 -34c21 -8 62 7 73 16c56 47 -1 175 22 242c-5 33 3 67 7 101c12 102 24 204 5 291c-13 -8 -25 -3 -41 -4z" />
    <glyph glyph-name="P" unicode="P" horiz-adv-x="302" 
d="M94 301c-4 -53 -12 -129 -7 -190c1 -6 4 -13 5 -19c1 -7 -2 -13 -2 -18c2 -8 7 -17 7 -25c-2 -26 -48 -64 -83 -53c-9 33 -7 70 -8 105c-3 81 -4 161 -7 235c-2 5 6 0 5 4c1 25 3 62 7 91c2 6 -6 1 -5 5s6 5 6 10c1 48 6 107 5 159c0 20 2 46 0 70c-1 14 -6 22 -13 31
c7 17 10 35 28 41c8 2 19 -2 29 -2c22 1 49 9 68 0c34 -4 73 6 100 -10c6 -3 24 -20 29 -27c5 -8 5 -21 16 -25c-5 -8 3 -11 5 -18c8 -30 4 -64 8 -97c-6 -43 -7 -105 -3 -153c-9 -28 -16 -52 -38 -70c-3 -3 -9 -4 -13 -8c-9 -8 -23 -21 -40 -24c-9 -2 -19 -2 -29 -5
c-29 -8 -43 -1 -70 -7zM102 691c10 -110 5 -208 -3 -328c18 -16 60 -11 78 5c17 16 17 48 19 75c4 53 7 107 7 146c-1 39 -2 84 -22 107c-23 -2 -55 7 -79 -5z" />
    <glyph glyph-name="p" unicode="p" horiz-adv-x="290" 
d="M178 692c-21 3 -44 -1 -61 -14c-2 -14 -3 -30 -3 -39c-1 -10 4 -23 3 -35c-1 -11 -4 -23 -3 -31s-1 -8 0 -15c0 -3 3 -9 3 -13c0 -16 -10 -40 -2 -58c-13 -26 -3 -60 -8 -94c-2 -6 6 -1 5 -5c-7 -3 -5 -15 0 -19c21 8 47 13 56 32c5 15 6 42 9 68c5 59 8 120 11 178
c-8 13 -7 32 -10 45zM175 344c-24 -13 -50 -18 -71 -29c0 -41 -13 -85 -7 -129c-7 -53 -5 -115 -5 -164c-9 -5 -11 0 -23 -4c-11 -5 -16 -20 -25 -22c-20 -5 -32 8 -41 20c0 22 3 47 3 69c0 5 6 15 -2 15c11 43 6 88 9 132c1 22 4 45 6 70c11 137 19 273 14 414
c14 16 36 7 56 9c12 2 28 9 42 11c3 1 4 0 4 0c44 4 80 -5 114 -31c8 -19 22 -35 23 -59c0 -2 -3 -6 -3 -9c0 -4 3 -7 3 -11c1 -13 -3 -31 -3 -46c0 -9 2 -18 1 -24c0 -4 -4 -7 -4 -11c-2 -9 2 -19 1 -28s-5 -18 -6 -25c-2 -14 4 -29 3 -42c0 -5 -3 -10 -3 -14
c-2 -17 -3 -32 -7 -48c-13 -24 -48 -29 -79 -44z" />
    <glyph glyph-name="Q" unicode="Q" horiz-adv-x="322" 
d="M268 66c28 -29 61 -59 88 -73c14 -7 58 -27 50 -37c-3 -4 -48 -3 -61 2c-73 21 -92 38 -112 57c-17 -9 -19 -10 -41 -15c-15 -4 -37 -11 -50 -14c-67 -16 -131 25 -132 92c0 2 4 9 4 11s-5 6 -5 8c-1 5 3 11 3 17c0 12 -3 27 -3 39c1 57 11 153 6 230
c-3 57 -15 112 -13 160c-10 34 -7 59 -3 86c5 36 24 72 49 91c22 16 41 13 81 18c56 6 139 7 158 -41c4 -12 8 -31 11 -47c4 -19 5 -40 7 -62c1 -11 5 -22 6 -32c3 -28 -5 -57 -6 -85c-1 -9 3 -18 1 -26c-1 -5 -4 -11 -5 -16c-2 -20 4 -42 2 -62c-2 -17 -6 -25 -5 -45
c2 -28 -5 -53 -6 -80c-2 -21 -8 -42 -9 -62c0 -4 3 -9 2 -14c-3 -22 -1 -64 -17 -100zM183 66l-27 22c-16 15 -17 23 -24 40c-3 6 11 27 15 36c18 15 34 -4 54 -23c2 97 20 218 19 340c0 27 -6 51 -8 78c-3 39 1 121 -39 138c-33 14 -61 -13 -70 -37c3 -11 -3 -20 -5 -30
c-5 -25 3 -51 5 -79c1 -22 0 -45 0 -65c0 -31 9 -60 2 -86c16 -73 4 -150 1 -228c11 -38 -8 -98 13 -135c32 -11 50 11 64 29z" />
    <glyph glyph-name="R" unicode="R" horiz-adv-x="293" 
d="M271 340c-15 -11 -40 -12 -57 -22c12 -31 22 -47 28 -80c3 -17 4 -37 8 -54c4 -16 12 -31 15 -45c6 -38 -1 -92 11 -122c-5 -7 -21 -13 -28 -8c-18 -14 -47 -22 -69 -7c-7 17 -3 40 -5 64c-6 57 -5 121 -17 178c-4 21 -12 59 -42 41c-7 -73 -14 -169 -8 -240
c-8 -9 -19 -7 -32 -10c-18 -5 -26 -24 -52 -17c-10 3 -17 10 -25 22c15 90 14 182 16 274c3 90 -4 174 -4 267c0 5 1 10 1 16c2 38 -11 78 -1 112c41 8 87 31 136 28c12 -1 24 -8 36 -10c7 -1 13 2 19 0c21 -6 46 -26 57 -45c13 -23 16 -57 13 -88c2 -5 3 -9 5 -13
c-7 -76 10 -168 -5 -241zM94 674c11 -27 7 -51 8 -80c2 -43 8 -91 12 -132c3 -38 -2 -78 1 -118c23 -3 48 4 64 14c6 45 12 90 14 138c2 28 5 58 3 86c-1 31 2 72 -9 103c-23 16 -79 13 -93 -11z" />
    <glyph glyph-name="r" unicode="r" horiz-adv-x="263" 
d="M197 402c15 -23 13 -52 19 -84c5 -25 8 -43 10 -76c1 -21 0 -41 0 -62c0 -26 5 -48 3 -75c-1 -12 1 -25 2 -37c2 -26 2 -46 13 -67c-14 -3 -26 -4 -38 -2c-8 -11 -23 -17 -47 -14c-8 5 -13 17 -14 32c-4 52 -1 124 -7 169c2 44 -1 96 -3 147c-1 16 1 30 -8 42
c-15 -5 -48 0 -56 -18c1 2 0 -24 0 -29c2 -21 9 -48 10 -67s-8 -38 -6 -65c1 -21 10 -44 13 -60c1 -8 3 -21 3 -29c0 -3 -4 -6 -3 -9c1 -9 4 -20 5 -37c0 -15 -2 -26 3 -39c-10 -6 -18 -1 -26 -3c-10 -3 -16 -15 -25 -18c-8 -2 -14 6 -22 0c-34 16 -14 61 -17 102
c-4 76 -3 197 -3 278c0 76 10 154 10 223c0 23 -5 57 -5 81c0 22 0 29 13 39c62 25 144 12 200 -8c3 -6 8 -9 13 -13c2 -1 3 -13 6 -8c5 -34 13 -78 5 -120c-1 -6 -4 -10 -5 -15c0 -8 3 -16 2 -24c-2 -42 -17 -84 -32 -117c-6 -5 -12 -8 -13 -17zM67 685
c5 -100 -16 -187 3 -274c33 -4 61 15 71 47c14 41 18 102 18 152c0 28 -1 56 -6 78c-27 11 -65 13 -86 -3z" />
    <glyph glyph-name="S" unicode="S" horiz-adv-x="304" 
d="M267 702c10 -5 20 -7 27 -14c-6 -21 -4 -39 -13 -59c-4 -9 -19 -35 -28 -37c-17 -4 -47 28 -52 40c-2 7 0 19 0 30c-40 11 -50 -46 -47 -90c1 -18 12 -37 2 -49c4 -8 10 -21 18 -30c28 -8 52 -20 79 -28c39 -31 27 -91 20 -140c-3 -16 0 -33 -2 -47
c-5 -38 -19 -75 -14 -107c-19 -50 -9 -114 -48 -145c-26 -2 -52 -19 -79 -23c-41 -5 -77 1 -109 17c-7 12 -20 23 -21 39c-4 30 2 72 0 102c25 20 67 2 89 -11c-11 -34 -6 -84 15 -108c11 -2 14 4 26 5c36 33 38 108 45 164c3 20 8 39 10 59c2 19 -1 39 2 57c0 3 4 7 5 10
c3 37 -3 70 -4 102c-34 11 -72 20 -97 44c-10 9 -22 24 -26 40c-8 30 -5 88 0 126c6 48 41 85 88 86c13 0 25 0 39 -2c7 -1 15 -8 27 -11c22 -6 33 -11 48 -20z" />
    <glyph glyph-name="s" unicode="s" horiz-adv-x="307" 
d="M202 667c-10 12 -35 14 -44 2c-16 -21 -6 -79 0 -103c3 -13 3 -25 11 -35c31 -41 103 -38 114 -87c8 -83 11 -180 -8 -248c-8 -45 -18 -102 -41 -140c-25 -13 -59 -40 -89 -49c-41 -11 -99 -6 -117 21c-4 6 -6 18 -10 28c-7 19 -17 35 -19 59c-2 15 -3 25 3 39
c28 10 50 8 84 3c15 -33 8 -90 49 -103c27 9 27 39 37 59c1 29 11 58 15 91c2 19 0 39 2 58c3 47 6 99 1 147c-1 12 -10 46 -18 50c-36 20 -84 24 -104 67c-1 3 3 12 -6 11c1 28 -7 62 -7 96c1 33 15 62 31 83c8 10 9 10 23 13c19 1 49 5 72 3c4 0 8 -4 13 -5
c7 -1 14 2 21 0c11 -2 19 -11 31 -14c12 -4 25 0 34 -10c4 -5 3 -13 8 -16c-2 -15 -8 -28 -15 -41c-4 -7 -10 -23 -24 -24c-17 -2 -53 17 -47 45z" />
    <glyph glyph-name="T" unicode="T" horiz-adv-x="406" 
d="M397 741c-9 -27 -10 -19 -22 -26c-44 -6 -92 -1 -142 -14c4 -61 -1 -130 5 -195c-7 -83 0 -169 2 -256c0 -9 -6 -16 -7 -26c0 -2 5 -5 5 -8c1 -7 -5 -19 -5 -27c0 -22 0 -40 2 -60c0 -8 -5 -9 -7 -13c14 -38 1 -66 8 -101c-12 -4 -24 -1 -39 -4c-11 -2 -20 -12 -31 -13
c-11 0 -16 6 -26 17c14 121 7 222 10 335c3 104 -1 214 -2 338c-33 32 -86 -8 -131 13c-5 2 -13 1 -16 6c-4 6 -2 14 -2 21c0 18 47 24 68 25c23 0 45 -7 64 -7c19 1 37 6 57 8c22 2 46 2 71 4c46 1 118 -2 138 -17z" />
    <glyph glyph-name="t" unicode="t" horiz-adv-x="383" 
d="M369 743c-8 -21 -11 -37 -26 -51c-46 6 -74 6 -109 -5c-25 -24 -21 -72 -21 -113c-1 -20 5 -45 8 -64c-4 -16 -2 -33 0 -50c1 -11 6 -20 8 -31c3 -19 3 -41 5 -62c2 -26 1 -55 1 -84c0 -13 -3 -27 -3 -39c0 -4 3 -9 3 -13c-1 -30 -5 -64 4 -95c-7 -17 3 -36 -5 -55
c0 -5 6 -5 6 -10c-3 -18 -1 -22 -6 -39c-25 -17 -67 -40 -95 -26c-7 4 -6 15 -13 23c4 33 -3 64 -3 93c1 85 11 176 16 257c1 6 -1 13 -1 19c1 19 7 36 8 54c0 6 -4 14 -3 21c6 64 -6 139 -2 213c-43 -10 -118 -19 -145 14c3 9 9 15 13 22c46 19 106 8 156 13
c15 1 25 2 39 1c17 -1 32 6 49 8c34 4 75 8 116 -1z" />
    <glyph glyph-name="U" unicode="U" horiz-adv-x="369" 
d="M231 726c17 34 80 12 112 7c3 -10 2 -27 -2 -34c5 -16 1 -32 2 -50c1 -32 8 -66 8 -103c0 -24 -7 -49 -8 -73s-5 -47 -3 -71c3 -70 3 -147 -10 -217c-1 -7 -3 -12 -7 -18c1 -41 -27 -79 -38 -114c-11 -5 -17 -16 -26 -24c-31 -10 -60 -30 -96 -31c-7 -1 -16 2 -26 3
c-34 2 -80 2 -100 26c-4 2 -8 4 -12 5c-8 15 -15 33 -23 48c-5 95 11 172 22 258c-2 35 4 71 6 109c2 21 -1 42 0 66c2 43 6 89 -3 130c10 27 -14 72 10 87c27 2 53 7 77 -8c1 -7 -6 -4 -7 -7c0 -107 8 -204 -1 -321c1 -8 -1 -6 3 -11c0 -2 3 -6 3 -9c-5 -50 5 -113 2 -171
c-1 -15 -8 -32 -8 -46c-1 -19 7 -35 0 -57c12 -16 3 -35 16 -50c21 -25 70 -2 86 20c13 40 35 90 30 130c10 37 9 82 9 129c1 35 2 81 -1 121c8 51 0 136 -7 203c0 5 2 9 2 14c-1 16 -9 28 -2 40c-4 5 -3 15 -8 19z" />
    <glyph glyph-name="u" unicode="u" horiz-adv-x="355" 
d="M110 731c2 -33 -14 -62 -5 -87c-5 -24 -1 -56 -2 -84c0 -27 1 -56 8 -83c-3 -24 -4 -49 -3 -80c1 -27 -4 -59 -5 -92c0 -34 1 -69 -1 -103c-4 -46 -14 -91 -7 -126c4 -17 10 -31 23 -39c39 3 76 5 109 16c18 35 15 79 19 123c1 5 5 11 5 17c1 6 -3 14 -3 21
c-2 32 1 69 -2 101c-8 93 -13 191 -26 268c3 42 -3 89 -5 133c11 12 27 10 40 8c-3 0 6 0 11 -3c14 -4 30 -7 47 -8c3 -8 -8 -27 3 -33c-9 -10 -1 -22 0 -34c1 -4 -3 -10 -3 -15c-1 -12 2 -25 2 -35c-1 -30 -3 -59 -2 -90c1 -21 7 -43 10 -65c3 -24 -1 -50 1 -78
c1 -8 6 -16 7 -24c2 -14 -1 -28 0 -42c7 -86 9 -173 -33 -247c-11 -3 -11 -12 -17 -17c-27 -20 -81 -23 -129 -29c-12 -1 -25 -6 -37 -5c-38 3 -73 14 -95 38c-19 21 -22 48 -19 91c4 57 13 124 18 188c8 96 18 175 19 265c1 46 -3 109 -6 145c16 20 50 13 78 5z" />
    <glyph glyph-name="V" unicode="V" horiz-adv-x="342" 
d="M327 729c-1 -9 -4 -15 -8 -21c3 -17 -4 -35 -5 -52c-1 -19 -6 -38 -6 -55c0 -5 3 -10 3 -15c-1 -15 -8 -29 -10 -44c-5 -44 1 -90 -3 -135c-1 -15 -3 -27 -2 -44c1 -14 -6 -28 -8 -43c-1 -12 0 -23 -1 -35c-4 -32 -9 -85 -15 -115c-2 -8 -7 -16 -8 -24c-1 -5 3 -9 3 -13
c0 -7 -6 -14 -6 -21c-3 -22 3 -46 -5 -67c2 -9 4 -12 5 -20c-17 -12 -67 -39 -90 -11c-10 104 -40 234 -66 351c-4 16 -5 30 -9 44c-18 80 -49 170 -73 240c-2 7 -5 19 -11 33c-6 13 -13 30 -11 37c6 28 54 20 76 9c21 -37 33 -80 42 -127c10 -49 29 -100 39 -150
c4 -18 4 -33 13 -47c3 -47 23 -83 31 -120c-4 -9 0 -23 3 -29c12 152 23 315 34 474c19 27 71 20 88 0z" />
    <glyph glyph-name="v" unicode="v" 
d="M336 745c-1 -9 -8 -15 -15 -23c-6 -36 -18 -72 -18 -113c0 -44 -13 -91 -18 -142c-1 -19 1 -37 -1 -55c-1 -10 -6 -19 -8 -29c-7 -30 -5 -58 -20 -82c2 -26 -15 -44 -16 -73c-18 -37 -14 -74 -29 -109c3 -19 -8 -42 -17 -58c8 -21 -9 -36 -6 -57c-35 -2 -72 -13 -93 13
c-5 71 -27 154 -36 219c-1 8 2 17 0 25c-8 55 -22 118 -29 174c-2 12 1 25 0 37c-2 22 -9 48 -13 75c-5 35 -9 68 -11 101c-1 14 -16 59 -7 74c16 26 78 -3 95 -6c18 -22 10 -52 14 -86c3 -27 10 -54 13 -82c5 -37 2 -76 7 -112c9 -70 23 -146 22 -206c15 10 11 40 23 54
c5 17 5 40 16 52c0 16 5 40 13 53c9 62 14 138 22 215c4 50 8 107 11 157c29 23 77 -2 101 -16z" />
    <glyph glyph-name="sterling" unicode="&#xa3;" horiz-adv-x="342" 
d="M181 604c-1 4 0 9 -3 11c0 26 3 59 5 79c-11 5 -28 -3 -42 -5c-6 -2 -3 -13 -10 -14c8 -50 -7 -105 12 -140c-4 -36 -1 -74 -7 -109c1 -3 4 -3 5 -6c36 0 57 12 96 13c19 -8 12 -42 -3 -51c-32 -1 -60 -6 -85 -18c-2 -18 10 -24 11 -42c13 -11 9 -32 10 -54
c1 -16 3 -36 0 -48c-1 -5 -5 -9 -6 -13c-1 -3 0 -5 0 -8c-5 -24 -25 -46 -28 -67c-21 -13 -27 -41 -42 -60c23 -8 51 -5 75 0c25 5 51 11 74 19c12 -5 28 -2 39 -5c6 0 8 -1 8 -1c13 -3 26 -4 36 -8c-6 -10 -21 -9 -27 -18c-2 -10 -6 -17 -12 -23c-44 -2 -82 -17 -122 -23
c-14 -2 -29 1 -44 -1c-56 -10 -118 -26 -149 22c23 38 44 76 68 113c7 36 34 75 29 130c-1 19 -13 43 -16 61c-3 17 0 22 -16 26c-27 -16 -63 -13 -83 7c6 36 47 31 83 36c3 0 3 4 6 4c10 70 9 166 7 252c0 16 4 31 5 46c26 29 82 52 133 44c5 -1 10 -6 18 -8
c12 -4 22 -3 29 -10c14 -12 13 -34 26 -49c-9 -41 1 -82 -14 -120c-33 -22 -76 0 -66 38z" />
    <glyph glyph-name="W" unicode="W" horiz-adv-x="502" 
d="M492 756c-15 -28 -18 -62 -24 -98c-6 -37 -14 -77 -17 -120c-1 -7 -2 -14 -4 -21c-2 -12 -7 -32 -3 -49c-6 -9 -4 -20 -6 -32c-3 -14 -10 -26 -13 -39c-2 -5 1 -11 0 -16s-6 -9 -7 -13c-1 -7 0 -13 -2 -20c-2 -11 -8 -25 -9 -37c-1 -14 -1 -23 -2 -39
c-1 -23 -11 -45 -13 -69c-3 -42 1 -82 2 -123c-5 -8 -17 -10 -28 -15c-17 -8 -45 -21 -63 -5c-6 6 -5 13 -8 21c-10 28 -20 58 -38 80c-12 -41 -40 -74 -39 -127c-10 -23 -61 -41 -86 -19c-6 42 -18 80 -26 125c-11 61 -25 130 -34 198c-4 32 -6 62 -11 91
c-2 10 -4 19 -10 28c-10 59 -21 136 -41 197c-6 19 -30 52 -5 68c27 17 53 -10 64 -29c26 -47 39 -119 47 -176c5 -41 16 -74 13 -114c15 -28 9 -71 18 -104c3 -12 5 -21 6 -37c5 -43 22 -82 26 -120c14 14 15 35 20 53c4 20 14 40 18 60c4 29 -14 64 -22 98
c-9 41 -23 76 -21 110c42 21 60 -34 77 -60c15 -1 16 20 22 29c17 18 45 36 49 7c2 -13 7 -24 2 -33c-25 -42 -27 -118 0 -170c17 64 24 11 42 221c6 70 7 146 18 218c3 23 10 55 11 87c23 25 81 15 97 -6z" />
    <glyph glyph-name="w" unicode="w" horiz-adv-x="474" 
d="M460 721c-5 -18 -10 -41 -13 -66c-4 -23 -2 -47 -5 -71c-3 -29 -4 -57 -7 -88c-3 -23 -14 -51 -17 -84c1 -44 -5 -79 -19 -116c-29 -43 -42 -106 -59 -156c2 -13 -3 -26 -7 -41c-1 -6 -7 -12 -9 -18c-7 -22 -2 -60 -12 -65c-6 -3 -13 0 -22 -1c-19 -3 -35 -10 -52 5
c-21 45 -20 99 -40 146c-8 -23 -4 -54 -11 -84c-5 -20 -15 -48 -15 -74c-38 -6 -84 -18 -103 15c7 34 -8 70 -5 100c-32 129 -48 310 -53 453c-1 36 -3 59 -8 96c-2 15 -9 43 1 54c13 15 48 2 60 -7c28 -69 23 -178 39 -262c-2 -3 -2 -8 -3 -12c17 -65 11 -164 33 -238
c22 30 31 75 44 120c7 23 10 37 32 40c33 4 54 2 57 -32c6 -58 19 -93 10 -150c13 12 18 45 23 64c14 49 32 78 35 116c7 44 13 62 17 98c5 45 -8 91 8 140c-4 27 3 67 2 103c-1 20 -6 42 5 60c35 13 99 -20 94 -45z" />
    <glyph glyph-name="X" unicode="X" horiz-adv-x="333" 
d="M56 735c45 -60 61 -155 97 -228c11 5 8 23 17 29c-2 6 4 10 0 12c19 45 51 110 73 157c6 13 6 26 16 31c14 8 52 -1 55 -18c2 -10 -8 -19 -13 -27c-5 -12 -5 -31 -11 -42c-2 -4 -8 -7 -8 -9c-3 -8 -1 -17 -3 -29c-9 -11 -12 -24 -18 -37c-10 -22 -19 -41 -29 -67
c-11 -27 -24 -58 -33 -84c-3 -8 -6 -20 -6 -28c-1 -5 -1 -15 0 -19c2 -28 16 -64 27 -96c10 -31 21 -62 33 -90c7 -17 19 -38 26 -57c12 -32 17 -66 31 -96c3 -8 10 -14 9 -24c-22 -1 -41 -13 -74 -11c-19 5 -19 25 -26 42c-7 15 -16 29 -20 45c-1 6 0 12 -2 17
c-1 4 -6 8 -8 13c-12 29 -15 67 -29 94c-23 -8 -29 -42 -37 -65c-8 -22 -17 -59 -22 -88c-13 -20 -10 -57 -19 -75c-11 -9 -29 -3 -44 -4c-100 -14 20 243 39 305c4 14 7 32 13 49c6 16 14 34 13 49c0 13 -9 32 -15 50c-4 16 -9 34 -14 47c-14 39 -26 83 -36 129
s-34 106 -13 128c7 4 27 2 31 -3z" />
    <glyph glyph-name="x" unicode="x" horiz-adv-x="322" 
d="M299 713c-17 -90 -47 -181 -87 -259c-3 -26 -20 -46 -20 -74c0 -17 12 -43 18 -64c13 -44 29 -82 44 -127c7 -22 13 -44 19 -63c2 -5 8 -10 10 -16c5 -12 7 -31 13 -41c7 -11 8 -12 18 -31c-14 -16 -48 -20 -67 -1c-5 5 -4 14 -8 22c-3 8 -9 15 -11 20
c-11 29 -20 60 -29 89c-10 29 -20 57 -28 83c-33 -8 -32 -64 -49 -94c-8 -47 -24 -111 -34 -156c-29 -1 -67 -18 -89 3c10 39 25 76 35 114c9 31 21 70 36 107c19 47 27 85 46 142c3 9 9 17 9 24c1 17 -12 45 -21 65c-16 39 -29 66 -45 102c-22 48 -52 104 -55 160
c17 18 53 15 71 0c7 -44 17 -75 33 -111c7 -45 32 -85 47 -128c10 11 14 27 16 45c26 58 46 135 63 202c22 11 53 8 65 -13z" />
    <glyph glyph-name="Y" unicode="Y" horiz-adv-x="344" 
d="M328 719c-1 -12 -6 -20 -7 -33c-24 -32 -32 -94 -66 -122c-3 -23 -9 -33 -21 -47c4 -11 -6 -17 -9 -26c-4 -18 0 -38 -6 -57s-5 -43 -7 -70c-3 -53 1 -95 0 -139c0 -8 -4 -14 -4 -22c-2 -13 2 -28 1 -40c-1 -8 -6 -15 -6 -23c-1 -5 3 -9 3 -15s-3 -14 -3 -21
c-1 -27 3 -55 6 -83c-4 -8 -17 -7 -21 -16c-35 12 -61 -25 -83 0c-4 5 -5 21 -5 33c2 45 15 121 10 159c7 9 3 19 3 29c1 6 4 10 5 16c2 19 -1 38 0 52c2 47 13 126 10 176c-40 90 -81 169 -132 245c14 29 61 12 83 10c30 -55 69 -127 95 -182c33 41 51 127 68 179
c22 24 60 2 86 -3z" />
    <glyph glyph-name="y" unicode="y" horiz-adv-x="338" 
d="M323 725c5 -21 -2 -50 -9 -70c-1 -6 -5 -25 -9 -32c-4 -8 -15 -23 -18 -35c-2 -6 0 -12 -2 -17c-7 -26 -26 -39 -29 -69c-10 -8 -12 -24 -21 -34c-1 -15 -10 -26 -16 -39c-4 -8 -6 -18 -10 -26c-1 -3 -7 -6 -8 -10c-3 -9 0 -21 -2 -30c-1 -5 -5 -8 -6 -12
c-3 -8 -1 -18 -2 -27c-1 -12 -6 -23 -7 -33c-4 -47 -13 -93 -17 -141c-2 -20 1 -40 0 -61c-1 -7 -5 -11 -5 -17c-1 -20 13 -48 0 -70c-36 6 -69 -20 -98 5c4 46 -1 93 7 139c8 47 13 112 22 168c5 24 10 48 15 76c3 16 0 34 10 49c-17 28 -26 73 -41 106
c-22 50 -45 97 -71 147c-5 7 -13 9 -13 17c-1 26 48 14 70 24c7 -6 22 -5 32 -8c-3 -14 11 -32 11 -47c28 -40 44 -94 67 -138c32 56 50 126 73 191c19 16 54 5 77 -6z" />
    <glyph glyph-name="Z" unicode="Z" horiz-adv-x="327" 
d="M311 739c-3 -40 -22 -63 -41 -87c-13 -42 -38 -71 -55 -109c-8 -28 -28 -52 -38 -81c-9 -30 -13 -62 -26 -91c1 -24 -8 -44 -13 -66c-13 -57 -14 -115 -22 -177c-2 -9 -9 -17 -10 -26c-2 -12 6 -25 0 -37c65 -27 132 23 187 5c-2 -11 -16 -12 -25 -18
c-14 -10 -25 -26 -40 -33c-76 -6 -135 -16 -210 -17c-6 4 -13 7 -18 13c13 28 12 61 17 94c2 20 8 40 11 60c6 40 6 81 15 120c1 9 6 17 8 26c2 10 1 21 3 31c2 8 8 16 10 25c7 27 11 50 21 74c9 23 22 44 32 67c21 46 40 91 69 128c-4 10 25 36 19 44c-3 4 -29 0 -45 -1
c-53 -3 -126 -18 -126 5c-8 40 19 34 44 35c15 1 32 0 49 0c18 1 40 6 60 8c33 4 64 8 83 10c10 -6 27 4 41 -2z" />
    <glyph glyph-name="z" unicode="z" horiz-adv-x="304" 
d="M290 723c4 -19 -6 -34 -11 -51c-3 -8 -2 -17 -5 -26c-8 -21 -20 -40 -28 -61c-4 -12 -7 -23 -11 -35c-4 -10 -11 -20 -13 -30c-3 -11 -2 -20 -5 -30c-2 -5 -6 -9 -8 -14c-11 -29 -15 -59 -23 -88c-7 -25 -19 -46 -24 -70c-7 -29 -9 -59 -15 -89c-1 -6 -5 -9 -6 -15
c-4 -15 -1 -31 -4 -47c-1 -7 -5 -13 -6 -20c-5 -34 2 -60 -5 -91c24 -7 48 1 75 4c18 1 57 6 61 -15c6 -31 -35 -26 -52 -28c-5 0 -12 2 -17 2c-22 0 -43 -8 -65 -11c-9 -2 -18 1 -26 0c-32 -5 -70 -20 -105 1c6 36 25 65 31 101c6 33 13 62 23 93c15 43 27 95 41 139
c15 50 23 109 47 156c16 71 48 130 65 195c-9 -1 -26 2 -44 0c-32 -3 -72 -15 -99 -13c-11 1 -32 -4 -31 26c1 24 37 20 50 22c44 4 106 12 155 13c19 -4 43 -1 55 -18z" />
    <glyph glyph-name="Ccedilla" unicode="&#xc7;" horiz-adv-x="297" 
d="M244 714c1 -25 6 -61 -15 -76c-4 -4 -12 -13 -34 -8c-22 7 -30 23 -24 47c-23 20 -74 -9 -80 -33c-7 -26 5 -56 7 -86c0 -8 -4 -16 -2 -24c1 -7 6 -13 6 -20c2 -11 -4 -27 -3 -35c2 -18 6 -36 10 -52c8 -44 2 -115 8 -174c-7 -48 0 -112 1 -163c0 -18 6 -31 19 -42
c14 -10 25 0 35 8c6 16 13 34 15 60c1 17 -1 29 2 47c2 9 30 11 45 12c25 1 33 -1 47 -8c9 -24 6 -37 -1 -62c-15 -22 -21 -53 -41 -73c-7 -8 -20 -11 -29 -18c-13 -10 -24 -21 -43 -15c-32 -23 -2 -65 -36 -89c-22 -1 -42 -5 -55 11c2 24 6 48 7 77c-5 10 -16 5 -24 8
c-21 8 -34 28 -49 40c-9 47 -13 81 -8 125c-5 153 19 292 13 420c0 4 1 7 5 8c-8 27 -4 66 6 89c24 19 48 52 83 49c3 1 5 3 8 5c32 4 68 -2 94 -8c12 -6 22 -13 33 -20z" />
    <glyph glyph-name="ccedilla" unicode="&#xe7;" horiz-adv-x="314" 
d="M228 574c-30 2 -44 18 -56 38c7 17 -3 30 -1 42c-8 10 -39 11 -54 5c-12 -9 -29 -26 -36 -41c1 -26 -6 -59 4 -78c-7 -57 37 -119 24 -180c-1 -7 -2 -21 -2 -29c1 -20 1 -41 2 -57c3 -71 15 -147 15 -210c3 -5 3 -4 7 -8c21 1 43 -4 55 20c15 32 15 67 16 95
c24 25 72 1 94 -11c-1 -41 -11 -67 -20 -109c-21 -19 -46 -42 -81 -42c-13 -10 -13 -33 -29 -39c-3 -11 -5 -23 -13 -28c6 -26 -18 -53 -41 -55c-17 -2 -27 14 -37 26c9 31 22 58 32 88c-12 0 -13 -1 -26 1c-38 6 -59 40 -71 75c-17 166 3 323 0 471c-1 49 -5 108 19 148
c49 39 156 43 215 20c2 -5 9 -23 12 -27c-10 -40 3 -88 -28 -115z" />
    <glyph glyph-name="at" unicode="@" horiz-adv-x="305" 
d="M105 328c0 0 -10 -8 -8 -67s-14 -136 11 -149s66 6 93 21c26 64 17 117 16 182c-1 15 4 29 -4 41c3 19 4 -12 -2 30c3 14 1 49 -10 68c5 27 -6 52 -15 73c-33 18 -69 -5 -104 -14c-5 -18 4 -54 -11 -72c-42 -44 -66 32 -54 81c6 23 9 38 17 56c7 15 28 14 48 19
c19 5 40 16 64 20c18 2 38 3 55 -2c3 -1 36 -4 44 -13c12 -15 13 -36 18 -54c-1 -37 24 -102 26 -142c-7 -22 3 59 -3 31c-1 -31 4 -69 0 -113c-3 -44 5 -90 -4 -127c5 -48 -9 -77 -37 -108c-16 -10 -38 -17 -57 -31c-6 -4 -64 -10 -78 -11c-29 -5 -53 16 -69 37
c-8 70 -12 107 -10 184c1 47 4 93 30 125c54 24 121 51 129 -5c2 -11 5 -61 5 -77c1 -16 2 -32 2 -46c0 -23 -5 -64 -18 -91c-11 -14 -47 -12 -60 -3c-18 15 -9 41 -9 41c4 7 14 10 20 16c2 36 7 87 -6 109c-5 4 -12 -2 -19 -9z" />
    <glyph glyph-name="ampersand" unicode="&#x26;" 
d="M195 539c7 19 6 50 9 79c1 2 0 5 0 7c5 13 1 48 -17 52c-35 6 -42 -22 -48 -50c-2 -7 0 -14 -1 -20c-18 -60 -24 -149 -12 -216c12 -14 37 -14 54 -23c24 -12 63 1 94 3c16 1 37 12 52 5c21 -9 18 -44 15 -68c-19 -5 -38 -11 -52 -21c1 -53 -3 -207 -31 -249
c-21 -17 -43 -24 -68 -32c-7 -3 -13 -8 -20 -10c-19 -6 -42 -4 -58 -2c-24 4 -74 30 -86 52c-12 21 -10 52 -12 78c-2 42 -9 91 -9 129c-1 45 18 75 42 102c-7 46 -5 101 0 158c2 25 12 49 14 73c5 43 -4 91 28 120c10 9 21 11 33 20c41 2 76 4 107 -10c3 -2 7 -8 13 -12
c5 -3 12 -2 14 -4c10 -8 21 -32 23 -44c5 -24 1 -54 -3 -75c-2 -9 -7 -18 -8 -26c-2 -14 0 -28 -7 -34c-16 -15 -58 2 -66 18zM149 308c-14 2 -38 0 -49 -16c-12 -19 -2 -48 -3 -75c-2 -47 -1 -107 13 -132c6 -9 25 -29 33 -29c17 -1 27 19 45 18c9 21 6 44 7 66
c2 47 16 89 21 131c5 8 3 18 -3 24c-26 -8 -47 10 -64 13z" />
    <glyph glyph-name="Euro" unicode="&#x20ac;" horiz-adv-x="321" 
d="M193 682c-15 1 -26 -14 -31 -27c-10 -31 -11 -71 -16 -108c-5 -39 -1 -90 -2 -149c49 -17 122 10 171 -5c-3 -9 -14 -9 -23 -11c-14 -8 -26 -24 -45 -26c-33 -4 -70 6 -99 -7c2 -37 1 -70 3 -112c1 -36 5 -73 6 -112c1 -10 1 -20 2 -29c1 -12 2 -20 5 -33
c6 -9 16 -22 29 -23c26 -2 31 41 34 69c15 27 68 23 88 4c-11 -25 -17 -55 -31 -78c-26 -12 -55 -32 -89 -37c-52 -8 -95 13 -121 49c-9 24 -9 52 -11 79c-3 41 4 84 5 124c1 31 -2 62 2 93c-11 16 -65 -1 -69 24c-4 29 -8 40 70 33c1 59 7 115 10 175c2 54 4 91 32 120
c14 14 35 30 61 33c31 3 86 -2 78 -44c-6 -28 -59 -40 -59 -2z" />
    <glyph glyph-name="dollar" unicode="$" horiz-adv-x="262" 
d="M180 788c1 -16 3 -34 10 -47c16 -3 29 -9 42 -15c12 -25 11 -60 -11 -76c-20 -6 -36 2 -44 13c1 13 -4 17 -2 27c-9 1 -16 -2 -21 -9c-7 -28 -13 -68 -6 -98c3 -17 16 -30 14 -44c8 -10 14 -21 21 -29c17 -17 38 -28 44 -49c3 -9 -1 -17 2 -29c3 -14 10 -24 8 -49
c-1 -10 -1 -21 -2 -31c0 -7 -5 -13 -6 -21c-4 -26 5 -55 3 -88c-18 -58 19 -131 -34 -160c-15 -9 -41 -9 -57 -20c-18 -12 -13 -43 -15 -63c-19 -8 -26 -29 -57 -25c-26 13 -11 54 -16 73c-54 22 -43 73 -39 135c8 15 53 20 65 5c-22 -26 -12 -102 30 -102c16 0 21 11 30 21
c9 23 4 47 7 80c8 90 21 190 -3 269c-14 15 -29 28 -46 39c-38 39 -35 130 -24 189c6 5 8 15 11 23c9 7 20 13 26 24c-2 15 -3 38 5 54c17 11 49 10 65 3z" />
    <glyph glyph-name="exclamdown" unicode="&#xa1;" horiz-adv-x="160" 
d="M120 717c30 -51 9 -137 19 -182c-5 -43 -2 -90 -13 -138c-2 -11 -4 -23 -9 -33c7 -46 -10 -99 -15 -141c-3 -25 -7 -56 -10 -87c-2 -23 -11 -46 -9 -66c0 -13 10 -25 13 -38c3 -16 0 -32 6 -47c-10 -9 -30 -10 -45 -14c-13 -4 -30 -13 -46 -2c1 54 -3 115 0 172
c5 105 27 197 33 290c1 22 0 44 1 66c3 61 -6 135 5 212c22 4 46 19 70 8zM146 821c0 -12 6 -21 10 -33c-20 -23 -43 -19 -70 -31c-40 1 -28 44 -18 67c29 8 45 5 78 -3z" />
    <glyph glyph-name="one" unicode="1" horiz-adv-x="172" 
d="M163 725c10 -64 -2 -118 0 -192c1 -29 -2 -57 0 -86c2 -46 0 -95 -7 -140c-4 -29 1 -64 0 -97c0 -62 -15 -109 -3 -171c2 -11 7 -21 5 -26c-3 -7 -51 -21 -62 -22c-16 -3 -24 -1 -32 6c0 49 3 100 3 150c1 110 19 215 21 328c-4 36 -6 69 -2 104c-2 12 -6 26 0 37
c-20 -3 -52 -37 -79 -8c-2 9 5 16 11 25c18 25 40 62 62 89c19 22 58 30 83 3z" />
    <glyph glyph-name="two" unicode="2" horiz-adv-x="257" 
d="M100 40c22 -14 73 4 105 4c9 -1 34 -5 31 -18c-3 -15 -39 -10 -50 -20c-57 1 -112 -20 -171 -4c-8 38 10 74 15 105c8 56 -2 129 15 182c6 22 9 40 25 56c30 59 77 124 82 206c1 30 2 71 0 105c-1 12 -3 24 -11 33c-36 4 -38 -62 -90 -55c-33 4 -18 36 -1 59
c6 8 27 26 36 30c31 12 94 11 119 -10c6 -4 22 -31 26 -38c14 -37 3 -99 4 -143c0 -15 1 -30 -4 -45s-16 -31 -23 -47c-4 -11 -6 -17 -11 -27l-17 -33c-4 -10 -14 -17 -19 -26c-5 -6 -6 -15 -9 -22c-8 -14 -18 -30 -23 -47c-5 -16 0 -32 -4 -52c-1 -10 -7 -24 -10 -39
c-4 -37 -5 -73 -10 -109c-2 -16 -6 -31 -5 -45z" />
    <glyph glyph-name="three" unicode="3" horiz-adv-x="237" 
d="M165 406c4 -16 22 -17 32 -28c10 -13 12 -39 14 -57c1 -20 8 -44 11 -67c4 -41 2 -84 5 -127c-7 -26 -4 -68 -22 -87c-8 -3 -14 -9 -20 -15c-34 -1 -58 -22 -90 -25c-27 -3 -47 4 -74 10c-10 12 -16 19 -22 37c-7 20 -2 35 24 38c20 3 48 -1 54 -11c2 -5 0 -12 3 -16
c3 -5 20 -12 26 -11c9 1 21 16 24 24c11 31 8 87 5 128c-2 16 -4 26 -4 43c0 43 -1 76 -9 116c-13 16 -47 7 -66 12c-12 3 -29 18 -22 31c12 18 44 11 59 25c16 16 23 43 24 70c0 16 2 43 1 64v42c0 9 -4 17 -3 26c1 16 11 33 2 53c-23 0 -27 -22 -43 -28
c-8 -3 -27 -4 -40 2c-32 13 -10 56 12 68c15 8 47 11 77 9c15 -1 21 -6 34 -9c15 -5 32 -5 45 -15c3 -7 6 -16 12 -22c3 -53 4 -115 -8 -185c-6 -42 -13 -81 -41 -95z" />
    <glyph glyph-name="four" unicode="4" horiz-adv-x="294" 
d="M97 260c17 -6 34 0 50 2c22 64 0 133 31 189c31 6 50 -7 58 -33c4 -12 0 -24 0 -35c0 -38 6 -78 7 -105c13 -9 45 14 40 -24c-5 -9 -20 -7 -27 -14c-13 -49 -5 -104 -20 -159c14 -33 -4 -65 -16 -81c-21 -10 -53 -20 -77 -9c-10 70 10 149 5 229c-20 1 -46 -4 -72 -5
c-28 -2 -75 6 -79 31c-1 7 3 10 4 17c4 18 8 47 13 69c12 43 14 85 25 132c6 26 11 59 18 89c12 52 18 119 31 167c6 5 9 12 11 21c28 8 75 10 80 -18c3 -15 -6 -37 -8 -56c-2 -15 0 -25 -2 -38c-1 -13 -9 -26 -13 -40c-3 -17 -4 -33 -9 -47c-2 -6 -6 -11 -7 -17
c-5 -18 -3 -40 -7 -59c-2 -10 -7 -17 -8 -26c-3 -21 3 -45 -8 -60c3 -42 -18 -76 -20 -120z" />
    <glyph glyph-name="five" unicode="5" horiz-adv-x="283" 
d="M273 709c-1 -13 -12 -16 -11 -26c-34 -3 -45 -28 -83 -26c-11 5 -32 11 -44 6c-11 -26 -5 -52 0 -83c13 -12 35 -8 52 -11c8 -1 15 -5 23 -7c21 -5 39 -7 50 -29c7 -30 10 -55 10 -86c0 -27 -12 -53 -13 -78c-1 -24 -1 -43 -2 -68c0 -17 -1 -46 -1 -73c0 -14 5 -26 6 -39
c2 -13 1 -27 2 -39c3 -27 7 -54 10 -82c-4 -13 -10 -24 -17 -35c-20 -16 -50 -21 -81 -22c-47 -15 -123 -39 -159 9c-5 25 -24 87 2 100c13 7 37 2 55 -3c15 -21 8 -47 21 -70c16 -29 71 -16 81 12c2 14 -5 34 2 47c-6 47 -7 99 -8 148c0 6 1 13 1 19c2 57 -5 109 5 153
c-10 33 -2 79 -19 107c-26 -2 -43 -1 -64 -8c-4 -1 -8 -6 -13 -7c-49 -5 -40 35 -44 74c-3 32 -7 66 4 102c-2 4 -2 10 -2 16c27 12 69 11 98 18c2 1 3 -1 3 -3c34 6 70 -2 102 -7c13 -1 26 2 34 -9z" />
    <glyph glyph-name="six" unicode="6" horiz-adv-x="344" 
d="M312 623c-15 -9 -40 -7 -48 -21c-22 -6 -40 -1 -52 11c-4 27 4 59 -15 83c-19 8 -33 -5 -49 -10c-13 -58 -18 -146 -27 -208c-11 -23 -7 -60 -10 -89c18 -8 41 1 66 -2c41 -5 82 -26 113 -37c7 -14 23 -24 27 -41c5 -19 0 -44 5 -67c2 -10 9 -18 7 -34
c-2 -8 -7 -16 -9 -24c-4 -34 -2 -72 -16 -93c9 -14 -10 -34 -10 -44c-26 -20 -52 -41 -86 -53c-13 1 -18 -2 -27 -7c-17 2 -46 -2 -60 7c-38 -1 -63 23 -88 40c-8 15 -15 30 -21 46c-2 38 -8 96 -2 128c-7 39 3 86 5 127c5 125 2 236 26 348c12 20 28 36 44 53
c29 14 55 8 84 9c29 0 55 -2 72 -12c13 -7 26 -19 40 -26c16 -28 28 -55 31 -84zM104 252c-4 -9 -5 -19 -5 -29c1 -62 -10 -138 25 -174c14 -14 52 -26 73 -8c10 19 21 44 21 75c1 35 6 78 3 113c-1 12 -6 26 -9 39c-4 17 -3 34 -7 41c-10 17 -48 36 -75 31
c-9 -2 -16 -9 -26 -10c3 -23 -6 -52 0 -78z" />
    <glyph glyph-name="seven" unicode="7" horiz-adv-x="328" 
d="M310 698c12 -36 -21 -84 -31 -111c-14 -42 -29 -110 -32 -132c-2 -8 -8 -17 -10 -27c-3 -12 -9 -64 -10 -68c-3 -23 -12 -46 -13 -69c0 -3 2 -8 2 -11c-2 -12 -9 -25 -10 -37c0 -5 2 -10 2 -15c-2 -14 -9 -28 -8 -44c-6 -20 -3 -55 -5 -63c-5 -22 -15 -42 -17 -62
c-1 -24 9 -39 12 -63c-15 -9 -35 -4 -52 -9c-10 -2 -28 -10 -42 -4c-6 1 -10 9 -15 13c9 131 6 282 41 393c-2 2 -5 3 -4 8c11 37 30 99 41 154c4 19 7 36 10 52c12 22 23 46 29 74c-23 8 -53 7 -78 3c-4 -8 -3 -20 -8 -26c-30 2 -50 -31 -77 -29c-14 0 -19 14 -32 19
c9 19 0 42 5 60c2 9 10 12 11 21c34 20 83 7 125 4c10 3 24 3 36 1c26 -4 60 -8 73 -19c25 6 37 -7 57 -13z" />
    <glyph glyph-name="eight" unicode="8" horiz-adv-x="294" 
d="M238 468c12 -11 41 -7 50 -21c-2 -11 -2 -20 -1 -38c0 -20 -8 -41 -12 -65c-5 -33 -4 -69 -5 -104c0 -8 -4 -16 -4 -24c-1 -8 2 -14 1 -21c-5 -62 -24 -119 -47 -163c-13 -4 -17 -17 -24 -27c-24 -8 -46 -19 -72 -20c-40 -2 -97 7 -114 42c-8 19 -7 50 -8 72
c0 42 8 90 8 125c1 61 3 111 17 168c6 29 18 50 32 69c-17 18 -35 36 -44 62c-3 41 0 74 5 114c3 22 1 40 11 54c5 5 13 10 20 18c13 13 20 19 34 30c36 9 70 7 112 -3c24 -6 58 -10 67 -26c13 -26 2 -59 -2 -89c-3 -24 1 -50 -1 -73c-1 -6 -4 -10 -5 -15
c-2 -10 2 -19 0 -28c-4 -15 -14 -24 -18 -37zM139 429c-24 -35 -31 -88 -36 -135c6 -9 -2 -24 -2 -36c1 -14 6 -29 7 -44c2 -63 -6 -136 14 -188c22 9 26 39 30 60c13 3 6 33 18 42c-6 11 5 23 0 38c5 16 4 39 4 58c2 73 -1 129 2 200c-8 10 -23 9 -37 5zM114 653
c-6 -10 0 -26 -1 -40c-1 -18 -6 -43 -7 -59c-1 -27 19 -43 23 -62c7 -5 16 -9 26 -11c1 2 2 3 5 3c16 21 7 44 6 64c0 2 4 1 4 3c0 15 -2 32 -2 49c0 24 -6 48 -5 73c-15 -6 -40 -5 -49 -20z" />
    <glyph glyph-name="nine" unicode="9" horiz-adv-x="325" 
d="M289 28c-25 -19 -71 -12 -111 -19c-27 -4 -59 -15 -98 -10c-14 2 -33 7 -40 11s-24 26 -27 39c-5 13 -2 27 -3 40c14 29 68 17 97 6c3 -15 -2 -30 6 -48c9 -6 21 -14 35 -13c10 1 34 10 36 16c9 41 -4 138 14 178c-6 26 4 55 4 89c-30 11 -52 -2 -73 0
c-32 5 -68 29 -76 68c-5 23 -1 64 -3 92c0 9 -2 17 -2 23c1 12 8 20 9 29c1 8 -3 19 -3 26c0 42 5 120 28 145c24 28 79 41 117 42c58 1 99 -8 108 -56c7 -38 -2 -91 4 -130c7 -44 -5 -103 0 -159c4 -14 1 -31 -1 -38c-5 -19 -7 -45 -4 -60c0 -6 -6 -4 -7 -9
c2 -62 -19 -109 -6 -168c1 -5 -6 -2 -5 -8c7 -29 8 -69 1 -86zM202 699c-26 -5 -48 -20 -57 -45c1 -29 -14 -69 -20 -111c-1 -15 3 -25 5 -38c3 -18 -2 -40 -2 -59c3 -35 16 -77 38 -85c11 -5 26 4 39 5c1 3 2 6 6 8c-1 32 8 62 9 91c3 58 0 96 -2 142c-2 32 -1 76 -14 92
h-2z" />
    <glyph glyph-name="zero" unicode="0" horiz-adv-x="372" 
d="M342 602c6 -58 17 -129 2 -185c13 -37 -9 -77 -5 -100c-14 -46 -9 -84 -18 -122c-5 -27 -13 -54 -14 -82c-9 -25 -36 -87 -51 -93c-15 -15 -37 -25 -65 -23c-10 0 -23 2 -28 -3c-80 8 -127 48 -139 124c-4 27 -12 51 -16 82c0 14 -3 22 -5 38c-4 39 1 77 4 117
c1 27 2 55 4 81c2 19 6 34 9 50c5 29 -2 56 11 80c-1 42 24 85 39 124c21 13 32 36 55 46c27 -1 53 11 95 4c8 -2 23 -5 30 -7c3 -1 4 -6 8 -8c9 -6 21 -6 29 -11c39 -25 36 -70 55 -112zM201 145c20 50 24 112 32 172c7 42 15 84 15 126c0 26 -3 47 -6 67
c-3 13 -1 28 -2 42c-2 28 -8 58 -15 80c-2 7 -10 25 -16 35c-13 18 -26 3 -38 -12c-22 -59 -45 -125 -49 -195c-11 -13 -10 -34 -11 -50c-5 -36 -5 -83 -7 -117c-1 -26 12 -47 8 -71c13 -22 6 -61 21 -85c5 -36 7 -74 33 -87c15 30 32 62 35 95z" />
    <glyph glyph-name="question" unicode="?" horiz-adv-x="220" 
d="M100 -61c-2 -15 -43 -48 -74 -24c1 0 -10 14 -11 16c-3 13 4 31 2 44c11 14 29 9 48 11c21 -6 23 -31 35 -47zM93 35c-5 -6 -11 0 -18 -1c-19 -6 -33 -30 -57 -17c-26 18 -12 60 -13 90c0 7 0 6 2 16c0 52 6 94 18 133c8 26 14 42 29 62c13 17 31 29 42 47
c12 18 26 38 31 60c10 40 8 92 8 132c1 41 8 72 6 107c0 8 -2 25 -5 31c-8 20 -41 18 -57 5c-8 -17 -10 -36 -14 -54c-5 -2 -9 -4 -13 -6c-12 -5 -25 20 -32 29c-3 27 5 53 19 73c32 30 102 27 134 3c34 -44 26 -101 35 -166c2 -11 0 -47 2 -58c4 -21 3 -54 2 -78
c-1 -12 -2 -26 -4 -36c-6 -30 -19 -58 -40 -74c-17 -13 -28 -33 -38 -48c-3 -4 -9 -7 -13 -14c-1 -4 0 -8 -1 -12c-5 -14 -14 -28 -16 -43c-2 -9 0 -18 0 -26c-2 -15 -9 -29 -10 -44c-1 -17 3 -36 -5 -49c13 -17 7 -42 8 -62z" />
    <glyph glyph-name="questiondown" unicode="&#xbf;" horiz-adv-x="252" 
d="M180 672c9 -20 2 -46 3 -71c1 -19 6 -37 4 -55c-2 -10 -7 -19 -9 -28c-5 -33 1 -67 -8 -96c-13 -20 -26 -38 -44 -54c-54 -86 -38 -215 -24 -328c2 -17 0 -34 13 -50c58 -14 20 66 37 89c16 22 61 2 77 -1c5 -19 -10 -26 -15 -38c-2 -6 0 -13 -1 -19
c-4 -12 -21 -42 -30 -51c-15 -15 -42 -28 -79 -24c-62 6 -87 41 -98 107c-2 13 -3 32 -3 46c-1 42 2 96 3 146c1 52 5 86 31 123c11 16 27 29 39 41c30 36 25 81 26 138c0 44 -1 89 2 125c18 19 57 9 76 0zM185 754c6 -13 0 -19 0 -28c-5 -4 -9 -9 -15 -11
c-9 -4 -17 -7 -24 -10c-40 -21 -65 21 -51 62c29 6 68 11 90 -13z" />
    <glyph glyph-name="parenleft" unicode="(" horiz-adv-x="167" 
d="M169 763c5 -31 -18 -47 -32 -65c-12 -36 -11 -75 -13 -115c-3 -43 -7 -75 -9 -122c-2 -62 -19 -119 -24 -174c-2 -23 6 -47 8 -73c1 -12 -1 -25 0 -37c3 -20 9 -40 13 -60c8 -45 7 -90 33 -117c19 -5 48 -1 58 -18c-2 -12 -16 -12 -26 -17c-15 -7 -24 -18 -47 -16
c-6 1 -13 5 -19 7c-16 2 -29 0 -38 5c-18 9 -40 47 -47 71c-3 11 -5 24 -8 37c-3 12 -5 25 -7 38c-4 23 -9 51 -9 75c0 10 6 20 6 30c3 55 -6 112 5 155c-7 14 -1 28 0 45c1 36 -2 76 2 116c9 100 1 209 58 240c12 7 33 8 44 7c20 -2 38 -3 52 -12z" />
    <glyph glyph-name="parenright" unicode=")" horiz-adv-x="187" 
d="M48 46c30 72 35 172 34 268c-1 67 -2 142 -5 211c-2 46 -4 98 -8 147c-3 24 -9 49 -21 65c-20 -3 -56 3 -54 26c2 16 32 20 50 21c37 2 94 -2 112 -29c0 -15 14 -22 18 -35c14 -37 2 -105 0 -154c0 -26 -3 -44 2 -62c-7 -76 5 -169 5 -252c0 -67 -23 -136 -26 -195
c-16 -30 -40 -52 -70 -68c-31 3 -41 -16 -72 -21c-12 -2 -30 -2 -32 11c-2 15 20 21 29 28c15 11 23 30 38 39z" />
    <glyph glyph-name="bracketleft" unicode="[" horiz-adv-x="157" 
d="M169 744c-41 1 -53 -9 -52 -55c0 -13 3 -26 5 -39c1 -14 0 -24 2 -39c2 -21 -6 -49 -7 -68c-1 -36 4 -74 2 -111c-1 -20 -7 -40 -7 -60c1 -16 0 -24 -1 -39c-3 -34 5 -69 6 -102c1 -15 -3 -31 -4 -46c-5 -22 0 -75 1 -81c5 -25 16 -53 4 -70c2 -5 2 -7 1 -13
c21 -20 60 -9 87 -16c30 -73 -87 -45 -120 -62c-25 2 -73 14 -77 41c0 5 2 22 3 32c6 42 8 102 4 153c-1 23 3 47 2 71c-1 26 0 51 1 77c1 21 -1 43 0 65c1 12 6 24 5 35c-1 23 -4 43 -3 65c0 13 5 24 4 36c1 5 -3 9 -3 13c-1 11 3 24 3 36c0 45 -4 96 -9 148
c-2 22 -15 54 -5 71s49 18 68 12c20 -1 49 3 70 -2c24 -5 39 -27 20 -52z" />
    <glyph glyph-name="bracketright" unicode="]" horiz-adv-x="198" 
d="M177 777c7 -17 9 -39 6 -59c13 -24 1 -47 -3 -70c-1 -7 1 -14 0 -21c-3 -20 -12 -46 -13 -73c-2 -56 -5 -105 -5 -161c0 -12 2 -22 -1 -31c5 -9 1 -27 8 -36c-10 -64 10 -151 14 -217c1 -15 -5 -29 4 -41c-8 -27 8 -50 3 -72c-5 -20 -38 -40 -57 -45c-19 1 -40 4 -63 3
c-14 0 -22 -9 -38 -6c-5 1 -7 4 -14 8c-16 7 -36 9 -46 26c-16 25 17 40 41 36c5 3 6 10 11 14c9 0 6 -13 15 -13c6 3 29 2 31 15c-4 57 -6 112 -7 172c0 38 -6 76 -2 112c2 15 2 27 2 46c0 2 -3 7 -3 9c0 3 5 5 5 9c0 19 -3 39 -4 60c0 37 9 75 9 112c0 7 -4 14 -4 21
c1 17 8 38 10 59c1 11 -1 22 0 32c3 21 8 43 7 65c-17 5 -49 4 -74 13c-12 4 -28 21 -29 28c-1 13 10 10 13 19c39 7 69 0 109 -3c30 3 50 1 75 -11z" />
    <glyph glyph-name="fraction" unicode="&#x2044;" horiz-adv-x="500" 
 />
    <glyph glyph-name="slash" unicode="/" horiz-adv-x="325" 
d="M-1 12c10 30 22 71 31 101c6 21 17 43 22 63c8 29 18 69 30 103c6 18 18 36 18 56c13 16 9 40 22 54c2 30 21 56 25 89c5 6 6 17 13 22v14c9 12 10 26 14 39c9 22 21 43 30 67c1 3 -2 8 0 13c2 7 9 16 13 26c3 9 4 19 8 29c6 18 9 48 18 57c8 8 83 -4 92 -18
c6 -9 -9 -44 -14 -58c-5 -12 -10 -21 -15 -33c-4 -11 -9 -22 -16 -31c-13 -52 -26 -96 -49 -138c-10 -41 -25 -68 -31 -112c-22 -38 -31 -104 -47 -148c-11 -41 -29 -111 -44 -148c1 -19 1 -35 -6 -47c-28 -15 -53 -38 -82 -28c-12 5 -22 16 -32 28z" />
    <glyph glyph-name="backslash" unicode="\" horiz-adv-x="291" 
d="M284 28c-7 -8 -13 -16 -19 -26c-21 -11 -47 -18 -71 -5c-9 13 -19 26 -19 48c-24 56 -33 118 -57 170c-5 17 -5 23 -8 31c-20 80 -47 156 -67 234c-20 81 -33 160 -57 237c11 33 53 21 84 15c15 -14 19 -40 24 -60c8 -10 11 -26 20 -34c10 -27 9 -54 14 -82
c4 -23 15 -47 19 -73c3 -16 5 -24 9 -37c2 -7 1 -14 3 -21c2 -6 7 -12 9 -18c10 -30 20 -64 26 -94c0 -3 -1 -7 -1 -10c3 -11 13 -22 9 -34c22 -33 20 -85 44 -120c0 -10 8 -26 10 -35c1 -9 14 -59 15 -61c4 -9 13 -15 13 -25z" />
    <glyph glyph-name="numbersign" unicode="#" horiz-adv-x="452" 
d="M202 441c6 -9 18 1 30 -1c9 34 22 73 30 107c3 12 2 23 6 34c4 12 15 36 18 49c2 6 5 19 7 26c4 13 9 34 9 42c1 6 -2 11 -1 15c5 21 32 18 52 16c8 -1 16 -3 16 -16c-2 -23 11 -69 -11 -90c12 -26 -11 -46 -17 -74c-4 -20 -2 -42 -6 -57c-2 -6 -7 -10 -8 -15
c-4 -12 -3 -24 -7 -34c26 -16 70 1 99 -13c0 0 7 -5 5 -17c1 -8 -8 -16 -8 -16c-2 -16 -106 10 -113 -7c-5 -6 -4 -15 -4 -15c13 -7 56 0 73 1c19 1 40 -5 57 -5c16 -13 2 -40 -18 -42c-32 5 -64 -4 -91 5c-9 -7 -21 -6 -32 -8c-11 -32 -30 -74 -28 -109c-1 -4 -5 -7 -6 -11
c2 -25 -8 -49 -13 -73c-2 -7 0 -14 -2 -20c-1 -4 -5 -7 -7 -11c-7 -30 -2 -60 -8 -91c-8 -15 -14 -33 -39 -33c-32 -3 -70 11 -63 25c18 29 7 46 23 79c6 53 27 103 37 158c5 27 16 54 21 81c-10 8 -29 5 -37 -5c-8 -27 -11 -55 -21 -83c-15 -39 -15 -77 -30 -115
c-8 -26 -14 -71 -22 -92c-3 -13 -14 -37 -30 -41c-20 -6 -46 7 -52 19c-3 8 4 27 7 38c5 19 7 38 11 56c2 7 7 13 8 20c5 13 10 28 10 36c15 59 27 115 44 165c-1 5 -7 5 -10 9c-30 -8 -82 -15 -83 15c4 13 1 11 6 21c4 10 14 3 46 1c14 3 38 -1 56 5c1 4 3 8 3 14
c-17 5 -55 -3 -77 1c-12 3 -6 20 -7 30c-4 33 77 8 99 18c16 54 27 111 43 169c12 42 28 80 26 124c0 15 3 38 28 26c18 -7 37 -21 32 -42c0 -7 0 -12 -2 -17c12 -26 0 -57 -7 -78c5 -28 -17 -57 -16 -83c-15 -24 -14 -61 -26 -91zM187 375c9 -2 13 -4 23 -2c1 6 4 10 5 16
c-10 -4 -25 6 -28 -14z" />
    <glyph glyph-name="percent" unicode="%" horiz-adv-x="324" 
d="M278 738c11 7 23 1 36 -1c8 -19 8 -42 5 -60c-2 -13 -10 -22 -15 -33c-8 -21 -10 -40 -21 -58c-7 -13 -20 -30 -21 -46c-13 -24 -29 -54 -34 -81c-12 -16 -20 -35 -23 -60c-25 -47 -35 -121 -52 -181c-2 -6 -6 -12 -8 -18c-2 -7 -1 -16 -3 -24c-2 -7 -8 -14 -10 -21
c-7 -27 -9 -58 -29 -77c1 -15 -6 -23 -7 -37c-15 -14 -25 -33 -42 -45c-25 -2 -43 9 -55 26c35 106 73 225 117 336c2 6 8 10 10 16s1 13 3 20c6 18 16 34 23 52c15 39 29 79 48 115c26 49 55 87 69 145c3 15 1 27 9 32zM293 55l22 87c7 28 -19 58 -22 65
c-45 23 -88 4 -110 -28s-32 -80 -27 -115c4 -31 47 -48 75 -48c33 1 45 20 62 39zM224 108c-1 16 -2 32 4 47c8 0 14 0 18 -3c1 -24 2 -57 -2 -80c-18 3 -19 24 -20 36zM87 662c-9 51 46 80 89 78c13 -5 34 -15 34 -36c-1 -4 -4 -5 -7 -10c0 -26 -9 -57 -13 -84
c-11 -16 -26 -28 -44 -31c-16 -2 -45 5 -55 15c-17 15 -12 45 -4 68zM150 631c12 10 13 46 -4 52c-12 5 -28 -29 -20 -39c8 -9 13 -24 24 -13z" />
    <glyph glyph-name="ordmasculine" unicode="&#xba;" horiz-adv-x="177" 
d="M144 540c-16 -19 -55 -9 -78 -18c-23 4 -53 14 -60 39c-3 11 -2 29 -1 40c0 9 -2 23 1 31c32 92 18 82 72 101c14 5 34 3 39 3c21 0 25 -5 37 -19c4 -5 10 -8 11 -12c5 -10 4 -47 5 -61c1 -7 -4 -11 -5 -18c0 -6 1 -13 0 -18c-4 -27 -18 -48 -21 -68zM97 681
c-19 2 -20 -22 -27 -32c10 -17 2 -41 8 -67c6 -4 12 -5 21 -3c12 27 15 65 13 94c-10 0 -8 7 -15 8z" />
    <glyph glyph-name="ordfeminine" unicode="&#xaa;" horiz-adv-x="172" 
d="M98 572c-33 27 -36 -19 -47 -43c-24 -8 -38 -2 -52 13c-1 14 5 22 -1 31c3 17 6 35 9 54c8 42 -1 86 47 99c11 3 36 15 51 15c4 0 8 -3 13 -4c8 0 19 2 26 -9c3 -6 14 -49 14 -57c1 -20 -5 -37 5 -51c6 -32 -3 -59 -3 -85c-19 -4 -37 -12 -58 -6c-1 9 -5 33 -4 43z
M77 642c3 -3 12 -3 15 0c2 11 3 36 -7 42c-6 -9 -12 -28 -8 -42z" />
    <glyph glyph-name="asterisk" unicode="*" horiz-adv-x="301" 
d="M181 617l73 92c13 11 31 -6 37 -16c-29 -43 -67 -75 -91 -122c20 -12 55 4 80 -5c6 -47 -32 -38 -81 -39c19 -51 33 -47 67 -120c-16 -20 -51 -36 -69 -22c-11 25 -24 52 -35 78c-13 -36 -8 -41 -24 -80c-19 -6 -36 -1 -45 12c1 32 14 52 21 90c-29 -27 -50 -57 -75 -78
c-17 0 -35 -1 -42 9c26 47 65 81 101 117c-17 6 -42 4 -54 15c-7 40 46 18 75 21c-5 20 -58 71 -68 90s14 17 27 31c24 -17 38 -40 65 -73c-3 32 11 74 11 98c10 9 39 9 49 0c4 -19 -14 -77 -22 -98z" />
    <glyph glyph-name="underscore" unicode="_" horiz-adv-x="419" 
d="M391 73c17 2 19 -14 24 -28c-1 -10 -11 -23 -37 -32c-75 -6 -143 1 -223 -10c-49 10 -113 -16 -154 19c8 11 -9 23 0 31c7 20 23 16 45 13c63 -7 123 -2 182 -3c54 -1 110 20 163 10z" />
    <glyph glyph-name="minus" unicode="&#x2212;" horiz-adv-x="833" 
 />
    <glyph glyph-name="emdash" unicode="&#x2014;" horiz-adv-x="484" 
d="M15 261c-8 13 -36 60 19 67c135 -9 304 23 436 -11c20 -12 5 -33 -5 -41c-8 -19 -18 -20 -43 -16c-73 7 -138 0 -207 1c-62 2 -139 -11 -200 0z" />
    <glyph glyph-name="hyphen" unicode="-" horiz-adv-x="296" 
d="M293 322c-7 -10 -26 -8 -31 -21c3 -7 13 -7 15 -14c-1 -12 -9 -16 -13 -25c-31 -12 -69 1 -107 4c-43 2 -86 -7 -116 8c-12 -2 -41 1 -40 18c0 9 24 27 30 34c94 13 177 -2 262 -4z" />
    <glyph glyph-name="plus" unicode="+" horiz-adv-x="327" 
d="M202 428c0 -27 2 -58 -5 -89c43 -2 85 14 123 -8c-9 -6 -22 -9 -27 -18c4 -14 -2 -25 -9 -33c-27 -7 -58 3 -87 -6c-5 -32 -2 -60 0 -86c-38 1 -62 -43 -90 -2c5 25 5 57 8 80c-36 3 -86 -10 -115 11c3 12 7 15 3 28c26 20 79 16 112 17c0 35 2 74 4 111
c21 13 64 5 83 -5z" />
    <glyph glyph-name="Acircumflex" unicode="&#xc2;" horiz-adv-x="325" 
d="M206 748c-40 1 -51 43 -83 57c-10 -9 -21 -18 -33 -31c-8 -10 -19 -31 -29 -34c-29 -10 -35 48 -5 53c11 24 33 36 44 59c7 3 10 11 16 13c23 8 41 -9 49 -25c14 -5 25 -15 34 -26c9 2 11 -3 17 -4c8 -23 2 -46 -10 -62zM201 20c20 86 11 200 16 285c-16 18 -47 7 -72 3
c-21 -3 -43 -1 -58 -11c9 -100 -14 -184 -3 -281c-21 -4 -59 -28 -77 -2c-5 8 -3 19 -3 32c2 86 1 171 2 248c0 19 -2 39 -2 60c1 70 9 132 13 196c1 14 4 25 5 43c4 64 13 148 75 128c11 10 26 15 45 11c11 -2 15 -2 25 -3c32 -2 59 -26 84 -42c7 -21 22 -34 33 -51
c10 -39 17 -79 19 -131c1 -33 -5 -68 -5 -103c0 -19 5 -37 3 -55c0 -5 -4 -11 -4 -16c-1 -12 2 -24 1 -36c-1 -16 -7 -33 -8 -49c0 -8 2 -16 2 -24c-1 -13 -8 -26 -8 -39c-4 -55 1 -109 0 -159c-1 -11 -15 -10 -26 -13c-8 -3 -16 -9 -23 -10c-15 -1 -27 9 -34 19zM144 659
c-10 -8 -15 -22 -25 -31c-6 -22 -7 -44 -9 -65c-3 -17 -10 -33 -13 -52c-1 -3 2 -7 1 -11c0 -6 -4 -13 -5 -20c-5 -43 -1 -86 -6 -130c44 -9 80 8 128 7c15 66 -9 148 -16 231c-2 19 -2 49 -10 70c-14 4 -29 4 -45 1z" />
    <glyph glyph-name="Ecircumflex" unicode="&#xca;" horiz-adv-x="279" 
d="M206 748c-40 1 -51 43 -83 57c-10 -9 -21 -18 -33 -31c-8 -10 -19 -31 -29 -34c-29 -10 -35 48 -5 53c11 24 33 36 44 59c7 3 10 11 16 13c23 8 41 -9 49 -25c14 -5 25 -15 34 -26c9 2 11 -3 17 -4c8 -23 2 -46 -10 -62zM263 713c-5 -11 -16 -17 -16 -34
c-11 -13 -21 1 -39 4c-32 4 -69 -1 -86 -17c11 -79 5 -166 8 -256c29 -11 103 3 132 -15c-17 -10 -19 -37 -39 -39c-6 -1 -11 3 -17 5c-28 6 -57 -2 -81 -13c-5 -17 -2 -35 -3 -49c-1 -5 -6 -10 -7 -15c0 -2 3 -6 3 -9c2 -31 -16 -69 -4 -95c-5 -13 -5 -30 -5 -45
c-1 -11 2 -23 1 -33c0 -10 -5 -21 2 -32c46 1 91 5 122 -15c-7 -2 5 -22 -2 -19c-32 -35 -121 -3 -172 -17c-22 5 -40 13 -52 28c-9 71 -1 156 6 229c4 33 2 62 7 98c1 6 4 9 5 14c5 69 6 162 -2 238c-1 9 3 19 2 29c-1 9 -1 22 -3 34c-3 14 -8 30 13 34c19 4 46 -2 66 -1
c25 0 55 6 85 4c27 -1 57 0 76 -13z" />
    <glyph glyph-name="Icircumflex" unicode="&#xce;" horiz-adv-x="146" 
d="M152 748c-40 1 -51 43 -83 57c-10 -9 -21 -18 -33 -31c-8 -10 -19 -31 -29 -34c-29 -10 -35 48 -5 53c11 24 33 36 44 59c7 3 10 11 16 13c23 8 41 -9 49 -25c14 -5 25 -15 34 -26c9 2 11 -3 17 -4c8 -23 2 -46 -10 -62zM117 731c0 -16 2 -49 3 -65c3 -35 4 -74 4 -114
c0 -14 6 -29 6 -44c0 -31 2 -68 -3 -99c-6 -35 -2 -83 -15 -118c3 -13 7 -30 0 -38c2 -36 -2 -72 -5 -109c-2 -39 4 -76 2 -120c-11 -7 -24 -2 -36 -5c-10 -2 -14 -11 -22 -14c-20 -8 -37 -1 -51 21c8 60 6 129 15 200c-5 24 2 46 3 71c8 138 12 279 7 408
c18 25 65 31 92 26z" />
    <glyph glyph-name="Ocircumflex" unicode="&#xd4;" horiz-adv-x="353" 
d="M257 759c-40 1 -51 43 -83 57c-10 -9 -21 -18 -33 -31c-8 -10 -19 -31 -29 -34c-29 -10 -35 48 -5 53c11 24 33 36 44 59c7 3 10 11 16 13c23 8 41 -9 49 -25c14 -5 25 -15 34 -26c9 2 11 -3 17 -4c8 -23 2 -46 -10 -62zM318 158c7 -16 -8 -34 0 -44
c-8 -23 -16 -44 -29 -65c-11 -5 -22 -9 -36 -16c-9 -5 -14 -13 -21 -16c-65 -37 -212 -24 -231 58c-5 23 -3 60 -1 85c3 59 7 130 16 182c14 76 24 151 31 225c1 17 -1 33 2 49c4 30 15 58 21 86c11 11 17 25 31 33c20 5 36 9 56 10c8 0 16 -5 25 -5c26 -1 49 6 76 -3
c12 -5 36 -19 44 -30c8 -10 15 -36 23 -47c6 -10 2 -37 1 -52c0 -10 6 -19 5 -29c0 -5 -4 -11 -5 -16c-1 -14 5 -28 5 -43c2 -28 -6 -56 -5 -76c1 -11 7 -20 7 -31c0 -25 -3 -51 -3 -76c0 -8 4 -17 5 -25c0 -15 -5 -32 -5 -48c0 -13 2 -26 1 -39c0 -9 -3 -19 -5 -28
c-2 -15 -1 -28 -8 -39zM185 56c28 41 34 100 42 149c6 37 7 77 8 115c1 27 2 64 -1 91c-1 6 3 13 3 18l-3 164c-1 35 -3 68 -18 98c-2 0 -2 2 -5 2c-14 -12 -34 -16 -57 -21c-31 -48 -18 -116 -32 -174c6 -18 -2 -38 -4 -56c-1 -18 -2 -34 -4 -48c-6 -43 1 -108 -10 -158
c4 -54 -4 -113 13 -169c8 -9 11 -22 27 -23c10 8 28 8 41 12z" />
    <glyph glyph-name="Ucircumflex" unicode="&#xdb;" horiz-adv-x="370" 
d="M252 759c-40 1 -51 43 -83 57c-10 -9 -21 -18 -33 -31c-8 -10 -19 -31 -29 -34c-29 -10 -35 48 -5 53c11 24 33 36 44 59c7 3 10 11 16 13c23 8 41 -9 49 -25c14 -5 25 -15 34 -26c9 2 11 -3 17 -4c8 -23 2 -46 -10 -62zM231 726c17 34 80 12 112 7c3 -10 2 -27 -2 -34
c5 -16 1 -32 2 -50c1 -32 8 -66 8 -103c0 -24 -7 -49 -8 -73s-5 -47 -3 -71c3 -70 3 -147 -10 -217c-1 -7 -3 -12 -7 -18c1 -41 -27 -79 -38 -114c-11 -5 -17 -16 -26 -24c-31 -10 -60 -30 -96 -31c-7 -1 -16 2 -26 3c-34 2 -80 2 -100 26c-4 2 -8 4 -12 5
c-8 15 -15 33 -23 48c-5 95 11 172 22 258c-2 35 4 71 6 109c2 21 -1 42 0 66c2 43 6 89 -3 130c10 27 -14 72 10 87c27 2 53 7 77 -8c1 -7 -6 -4 -7 -7c0 -107 8 -204 -1 -321c1 -8 -1 -6 3 -11c0 -2 3 -6 3 -9c-5 -50 5 -113 2 -171c-1 -15 -8 -32 -8 -46
c-1 -19 7 -35 0 -57c12 -16 3 -35 16 -50c21 -25 70 -2 86 20c13 40 35 90 30 130c10 37 9 82 9 129c1 35 2 81 -1 121c8 51 0 136 -7 203c0 5 2 9 2 14c-1 16 -9 28 -2 40c-4 5 -3 15 -8 19z" />
    <glyph glyph-name="acircumflex" unicode="&#xe2;" horiz-adv-x="328" 
d="M206 748c-40 1 -51 43 -83 57c-10 -9 -21 -18 -33 -31c-8 -10 -19 -31 -29 -34c-29 -10 -35 48 -5 53c11 24 33 36 44 59c7 3 10 11 16 13c23 8 41 -9 49 -25c14 -5 25 -15 34 -26c9 2 11 -3 17 -4c8 -23 2 -46 -10 -62zM309 44c-30 -11 -63 -31 -94 -13
c-1 44 3 83 3 133c1 15 5 31 4 43c-2 17 -2 50 -2 76c-3 5 -8 8 -2 13c-11 14 -68 20 -86 7c-12 7 -24 -6 -37 -9c-4 -19 4 -38 6 -58c2 -16 -1 -31 0 -47c1 -6 5 -11 5 -16c5 -46 -8 -95 8 -142c-8 -7 -18 -4 -29 -8c-16 -6 -29 -25 -52 -15c-6 3 -9 11 -16 17
c3 13 2 25 1 39c0 13 4 28 4 44c-3 68 -2 145 -5 225c-2 56 -1 94 -3 152c-2 39 -7 88 -9 130c-2 44 6 85 31 102c27 18 87 15 122 8c5 -1 12 -5 18 -6c14 -2 25 0 36 -2c5 -1 11 -5 18 -6c19 -6 30 -12 42 -31c29 -47 8 -129 20 -187c-3 0 -5 -17 -5 -19c2 -28 4 -36 5 -71
c0 -10 5 -22 6 -34c1 -10 -3 -20 -2 -29c1 -3 5 -7 5 -10c3 -10 3 -24 4 -34c1 -28 1 -55 0 -83c8 -22 -5 -46 6 -68c-7 -11 -1 -20 0 -31c2 -21 -13 -47 -2 -70zM183 675c-17 4 -44 -19 -67 -16c-10 1 -12 8 -24 8c-16 -24 -10 -55 -10 -85s4 -63 1 -94c-1 -19 3 -35 4 -52
c2 -33 4 -63 11 -91c37 4 82 4 122 5c-7 101 -7 201 -18 297c-11 8 -6 25 -19 28z" />
    <glyph glyph-name="ecircumflex" unicode="&#xea;" horiz-adv-x="265" 
d="M206 757c-40 1 -51 43 -83 57c-10 -9 -21 -18 -33 -31c-8 -10 -19 -31 -29 -34c-29 -10 -35 48 -5 53c11 24 33 36 44 59c7 3 10 11 16 13c23 8 41 -9 49 -25c14 -5 25 -15 34 -26c9 2 11 -3 17 -4c8 -23 2 -46 -10 -62zM238 735c-6 -7 -15 -9 -23 -17
c-4 -24 -4 -36 -16 -48c-46 11 -83 7 -119 -9c2 -8 -3 -16 5 -16c-8 -16 4 -33 5 -50c1 -14 -3 -28 -1 -42c3 -47 0 -98 3 -137c51 -7 105 16 159 15c-2 -9 -12 -9 -18 -13c7 -31 -20 -43 -31 -62c-30 -16 -86 -6 -112 -29c2 -55 -1 -134 -6 -187c9 -21 -5 -50 5 -69
c42 0 97 20 139 0c2 -12 13 -14 18 -22c-8 -20 -24 -8 -32 -17c-49 -3 -82 -10 -127 -21c-12 -2 -21 -4 -34 -6c-20 -4 -40 -14 -51 10c9 152 6 288 7 424c0 48 1 99 2 148c0 34 5 77 -2 104c-2 5 -7 10 -7 16c0 11 8 19 13 28c13 1 23 5 38 3c18 -3 37 -19 55 -3
c5 0 4 -5 7 -7c45 3 87 14 123 7z" />
    <glyph glyph-name="icircumflex" unicode="&#xee;" horiz-adv-x="127" 
d="M80 712c18 -39 9 -79 15 -121c1 -14 0 -27 0 -42c-1 -32 7 -64 8 -96c0 -19 -4 -38 -4 -58c0 -18 0 -36 -1 -54c-1 -8 3 -15 3 -23c0 -15 -5 -29 -6 -44c-2 -19 2 -42 0 -61c-2 -11 -8 -18 -9 -28c0 -26 7 -51 -1 -75c6 -29 11 -65 14 -89c0 -8 -42 -25 -65 -21
c-12 2 -15 13 -24 21c-1 86 -7 172 -8 265c0 32 3 65 3 99c0 106 0 214 -3 322c16 21 57 11 78 5zM119 748c-40 1 -51 43 -83 57c-10 -9 -21 -18 -33 -31c-8 -10 -19 -31 -29 -34c-29 -10 -35 48 -5 53c11 24 33 36 44 59c7 3 10 11 16 13c23 8 41 -9 49 -25
c14 -5 25 -15 34 -26c9 2 11 -3 17 -4c8 -23 2 -46 -10 -62z" />
    <glyph glyph-name="ocircumflex" unicode="&#xf4;" horiz-adv-x="350" 
d="M257 759c-40 1 -51 43 -83 57c-10 -9 -21 -18 -33 -31c-8 -10 -19 -31 -29 -34c-29 -10 -35 48 -5 53c11 24 33 36 44 59c7 3 10 11 16 13c23 8 41 -9 49 -25c14 -5 25 -15 34 -26c9 2 11 -3 17 -4c8 -23 2 -46 -10 -62zM331 676c18 -89 -3 -193 -10 -278
c-2 -7 6 -3 5 -9c-11 -34 -6 -75 -8 -112c0 -9 -5 -17 -5 -25c0 -49 6 -98 13 -146c-6 -21 -6 -43 -15 -59c-5 -9 -16 -25 -24 -30c-17 -12 -37 -6 -60 -9c-7 0 -14 -6 -21 -8c-3 0 -9 2 -13 2c-28 -2 -55 -5 -83 0c-10 2 -21 2 -26 3c-4 1 -7 7 -12 8c-3 1 -8 -1 -11 0
c-5 2 -22 14 -28 18c-13 12 -24 33 -17 52c-4 7 -9 13 -12 20c4 65 10 143 10 213c0 2 -3 4 -3 6c0 19 6 39 6 60c1 15 -1 34 0 55c3 62 10 123 18 178c4 27 15 60 24 76c25 40 73 49 132 46c19 -1 39 -11 55 -12c6 0 12 3 17 2c4 -1 10 -6 18 -8c7 -2 17 -1 22 -4
c15 -7 17 -26 28 -39zM204 676c-6 0 -11 -4 -16 -3c-9 2 -16 9 -24 8c-17 -1 -22 -20 -33 -32c-1 -6 2 -8 2 -13c-10 -13 -8 -26 -10 -41c-3 -19 -10 -39 -10 -57c0 -27 -5 -47 -6 -70c-1 -6 3 -13 3 -21c0 -20 -5 -42 -3 -60c2 -16 5 -31 -2 -44c12 -89 -8 -187 7 -279
c10 -13 11 -30 26 -34c21 -8 62 7 73 16c56 47 -1 175 22 242c-5 33 3 67 7 101c12 102 24 204 5 291c-13 -8 -25 -3 -41 -4z" />
    <glyph glyph-name="ucircumflex" unicode="&#xfb;" horiz-adv-x="350" 
d="M252 759c-40 1 -51 43 -83 57c-10 -9 -21 -18 -33 -31c-8 -10 -19 -31 -29 -34c-29 -10 -35 48 -5 53c11 24 33 36 44 59c7 3 10 11 16 13c23 8 41 -9 49 -25c14 -5 25 -15 34 -26c9 2 11 -3 17 -4c8 -23 2 -46 -10 -62zM110 731c2 -33 -14 -62 -5 -87
c-5 -24 -1 -56 -2 -84c0 -27 1 -56 8 -83c-3 -24 -4 -49 -3 -80c1 -27 -4 -59 -5 -92c0 -34 1 -69 -1 -103c-4 -46 -14 -91 -7 -126c4 -17 10 -31 23 -39c39 3 76 5 109 16c18 35 15 79 19 123c1 5 5 11 5 17c1 6 -3 14 -3 21c-2 32 1 69 -2 101c-8 93 -13 191 -26 268
c3 42 -3 89 -5 133c11 12 27 10 40 8c-3 0 6 0 11 -3c14 -4 30 -7 47 -8c3 -8 -8 -27 3 -33c-9 -10 -1 -22 0 -34c1 -4 -3 -10 -3 -15c-1 -12 2 -25 2 -35c-1 -30 -3 -59 -2 -90c1 -21 7 -43 10 -65c3 -24 -1 -50 1 -78c1 -8 6 -16 7 -24c2 -14 -1 -28 0 -42
c7 -86 9 -173 -33 -247c-11 -3 -11 -12 -17 -17c-27 -20 -81 -23 -129 -29c-12 -1 -25 -6 -37 -5c-38 3 -73 14 -95 38c-19 21 -22 48 -19 91c4 57 13 124 18 188c8 96 18 175 19 265c1 46 -3 109 -6 145c16 20 50 13 78 5z" />
    <glyph glyph-name="Atilde" unicode="&#xc3;" horiz-adv-x="319" 
d="M282 810c3 -10 -7 -16 -13 -21c-8 -8 -12 -13 -21 -18s-20 -15 -31 -17c-6 -1 -19 1 -25 0c-21 -3 -74 26 -101 20c-25 -19 -34 -20 -65 -27c-5 4 -11 7 -13 14c-1 7 -9 12 -7 16c-2 6 7 7 5 13c19 26 7 17 62 28c40 -2 70 -17 119 -15c20 1 8 30 55 22
c14 -3 27 -9 35 -15zM201 20c20 86 11 200 16 285c-16 18 -47 7 -72 3c-21 -3 -43 -1 -58 -11c9 -100 -14 -184 -3 -281c-21 -4 -59 -28 -77 -2c-5 8 -3 19 -3 32c2 86 1 171 2 248c0 19 -2 39 -2 60c1 70 9 132 13 196c1 14 4 25 5 43c4 64 13 148 75 128
c11 10 26 15 45 11c11 -2 15 -2 25 -3c32 -2 59 -26 84 -42c7 -21 22 -34 33 -51c10 -39 17 -79 19 -131c1 -33 -5 -68 -5 -103c0 -19 5 -37 3 -55c0 -5 -4 -11 -4 -16c-1 -12 2 -24 1 -36c-1 -16 -7 -33 -8 -49c0 -8 2 -16 2 -24c-1 -13 -8 -26 -8 -39
c-4 -55 1 -109 0 -159c-1 -11 -15 -10 -26 -13c-8 -3 -16 -9 -23 -10c-15 -1 -27 9 -34 19zM144 659c-10 -8 -15 -22 -25 -31c-6 -22 -7 -44 -9 -65c-3 -17 -10 -33 -13 -52c-1 -3 2 -7 1 -11c0 -6 -4 -13 -5 -20c-5 -43 -1 -86 -6 -130c44 -9 80 8 128 7
c15 66 -9 148 -16 231c-2 19 -2 49 -10 70c-14 4 -29 4 -45 1z" />
    <glyph glyph-name="atilde" unicode="&#xe3;" horiz-adv-x="328" 
d="M282 810c3 -10 -7 -16 -13 -21c-8 -8 -12 -13 -21 -18s-20 -15 -31 -17c-6 -1 -19 1 -25 0c-21 -3 -74 26 -101 20c-25 -19 -34 -20 -65 -27c-5 4 -11 7 -13 14c-1 7 -9 12 -7 16c-2 6 7 7 5 13c19 26 7 17 62 28c40 -2 70 -17 119 -15c20 1 8 30 55 22
c14 -3 27 -9 35 -15zM309 44c-30 -11 -63 -31 -94 -13c-1 44 3 83 3 133c1 15 5 31 4 43c-2 17 -2 50 -2 76c-3 5 -8 8 -2 13c-11 14 -68 20 -86 7c-12 7 -24 -6 -37 -9c-4 -19 4 -38 6 -58c2 -16 -1 -31 0 -47c1 -6 5 -11 5 -16c5 -46 -8 -95 8 -142c-8 -7 -18 -4 -29 -8
c-16 -6 -29 -25 -52 -15c-6 3 -9 11 -16 17c3 13 2 25 1 39c0 13 4 28 4 44c-3 68 -2 145 -5 225c-2 56 -1 94 -3 152c-2 39 -7 88 -9 130c-2 44 6 85 31 102c27 18 87 15 122 8c5 -1 12 -5 18 -6c14 -2 25 0 36 -2c5 -1 11 -5 18 -6c19 -6 30 -12 42 -31
c29 -47 8 -129 20 -187c-3 0 -5 -17 -5 -19c2 -28 4 -36 5 -71c0 -10 5 -22 6 -34c1 -10 -3 -20 -2 -29c1 -3 5 -7 5 -10c3 -10 3 -24 4 -34c1 -28 1 -55 0 -83c8 -22 -5 -46 6 -68c-7 -11 -1 -20 0 -31c2 -21 -13 -47 -2 -70zM183 675c-17 4 -44 -19 -67 -16
c-10 1 -12 8 -24 8c-16 -24 -10 -55 -10 -85s4 -63 1 -94c-1 -19 3 -35 4 -52c2 -33 4 -63 11 -91c37 4 82 4 122 5c-7 101 -7 201 -18 297c-11 8 -6 25 -19 28z" />
    <glyph glyph-name="Otilde" unicode="&#xd5;" horiz-adv-x="350" 
d="M328 810c3 -10 -7 -16 -13 -21c-8 -8 -12 -13 -21 -18s-20 -15 -31 -17c-6 -1 -19 1 -25 0c-21 -3 -74 26 -101 20c-25 -19 -34 -20 -65 -27c-5 4 -11 7 -13 14c-1 7 -9 12 -7 16c-2 6 7 7 5 13c19 26 7 17 62 28c40 -2 70 -17 119 -15c20 1 8 30 55 22
c14 -3 27 -9 35 -15zM318 158c7 -16 -8 -34 0 -44c-8 -23 -16 -44 -29 -65c-11 -5 -22 -9 -36 -16c-9 -5 -14 -13 -21 -16c-65 -37 -212 -24 -231 58c-5 23 -3 60 -1 85c3 59 7 130 16 182c14 76 24 151 31 225c1 17 -1 33 2 49c4 30 15 58 21 86c11 11 17 25 31 33
c20 5 36 9 56 10c8 0 16 -5 25 -5c26 -1 49 6 76 -3c12 -5 36 -19 44 -30c8 -10 15 -36 23 -47c6 -10 2 -37 1 -52c0 -10 6 -19 5 -29c0 -5 -4 -11 -5 -16c-1 -14 5 -28 5 -43c2 -28 -6 -56 -5 -76c1 -11 7 -20 7 -31c0 -25 -3 -51 -3 -76c0 -8 4 -17 5 -25
c0 -15 -5 -32 -5 -48c0 -13 2 -26 1 -39c0 -9 -3 -19 -5 -28c-2 -15 -1 -28 -8 -39zM185 56c28 41 34 100 42 149c6 37 7 77 8 115c1 27 2 64 -1 91c-1 6 3 13 3 18l-3 164c-1 35 -3 68 -18 98c-2 0 -2 2 -5 2c-14 -12 -34 -16 -57 -21c-31 -48 -18 -116 -32 -174
c6 -18 -2 -38 -4 -56c-1 -18 -2 -34 -4 -48c-6 -43 1 -108 -10 -158c4 -54 -4 -113 13 -169c8 -9 11 -22 27 -23c10 8 28 8 41 12z" />
    <glyph glyph-name="otilde" unicode="&#xf5;" 
d="M328 810c3 -10 -7 -16 -13 -21c-8 -8 -12 -13 -21 -18s-20 -15 -31 -17c-6 -1 -19 1 -25 0c-21 -3 -74 26 -101 20c-25 -19 -34 -20 -65 -27c-5 4 -11 7 -13 14c-1 7 -9 12 -7 16c-2 6 7 7 5 13c19 26 7 17 62 28c40 -2 70 -17 119 -15c20 1 8 30 55 22
c14 -3 27 -9 35 -15zM331 676c18 -89 -3 -193 -10 -278c-2 -7 6 -3 5 -9c-11 -34 -6 -75 -8 -112c0 -9 -5 -17 -5 -25c0 -49 6 -98 13 -146c-6 -21 -6 -43 -15 -59c-5 -9 -16 -25 -24 -30c-17 -12 -37 -6 -60 -9c-7 0 -14 -6 -21 -8c-3 0 -9 2 -13 2c-28 -2 -55 -5 -83 0
c-10 2 -21 2 -26 3c-4 1 -7 7 -12 8c-3 1 -8 -1 -11 0c-5 2 -22 14 -28 18c-13 12 -24 33 -17 52c-4 7 -9 13 -12 20c4 65 10 143 10 213c0 2 -3 4 -3 6c0 19 6 39 6 60c1 15 -1 34 0 55c3 62 10 123 18 178c4 27 15 60 24 76c25 40 73 49 132 46c19 -1 39 -11 55 -12
c6 0 12 3 17 2c4 -1 10 -6 18 -8c7 -2 17 -1 22 -4c15 -7 17 -26 28 -39zM204 676c-6 0 -11 -4 -16 -3c-9 2 -16 9 -24 8c-17 -1 -22 -20 -33 -32c-1 -6 2 -8 2 -13c-10 -13 -8 -26 -10 -41c-3 -19 -10 -39 -10 -57c0 -27 -5 -47 -6 -70c-1 -6 3 -13 3 -21
c0 -20 -5 -42 -3 -60c2 -16 5 -31 -2 -44c12 -89 -8 -187 7 -279c10 -13 11 -30 26 -34c21 -8 62 7 73 16c56 47 -1 175 22 242c-5 33 3 67 7 101c12 102 24 204 5 291c-13 -8 -25 -3 -41 -4z" />
    <glyph glyph-name="asciitilde" unicode="~" horiz-adv-x="283" 
 />
    <glyph glyph-name="equal" unicode="=" horiz-adv-x="317" 
d="M312 278c-18 -8 -20 -34 -29 -52c-67 -4 -162 -13 -222 -14c-19 -5 -35 7 -51 14c-9 17 3 31 12 39c7 -2 25 1 29 7c8 -9 209 13 234 11c6 1 4 -6 10 -5c7 -1 12 5 17 0zM303 403c-6 -12 -26 -25 -13 -40c-7 -5 -12 -13 -15 -21c-52 -9 -130 0 -188 -15
c-34 -1 -84 -11 -80 36c22 23 71 25 99 37c28 -3 50 0 75 2c35 2 74 -2 122 1z" />
    <glyph glyph-name="less" unicode="&#x3c;" horiz-adv-x="257" 
d="M186 465c6 -10 33 -17 21 -41c-19 -8 -34 -37 -51 -61s-34 -43 -46 -61c-3 -35 133 -125 132 -159c-6 -6 -9 -14 -15 -20c-13 -9 -12 -11 -30 -7c-10 9 -34 34 -48 40c-16 18 -86 87 -107 104c-11 10 -37 18 -31 41c31 36 40 50 65 82c23 30 51 62 60 76c17 7 33 9 50 6z
" />
    <glyph glyph-name="greater" unicode="&#x3e;" horiz-adv-x="266" 
d="M1 147c4 6 3 8 2 16c25 36 140 95 164 132c-22 11 -110 82 -127 108c-14 22 -52 32 -18 55c20 1 32 7 51 0c20 -32 130 -98 151 -129c37 -22 51 -65 14 -75c-6 -5 -35 -27 -51 -39c-12 -18 -65 -49 -83 -62c-8 -44 -83 -24 -103 -6z" />
    <glyph glyph-name="period" unicode="." horiz-adv-x="107" 
d="M99 49c4 -17 -3 -25 3 -39c-32 -3 -71 -39 -91 -3c-2 2 -8 1 -10 3c9 7 10 21 12 34c21 23 59 11 86 5z" />
    <glyph glyph-name="comma" unicode="," horiz-adv-x="85" 
d="M82 36c0 -42 -8 -45 -33 -66c-26 0 -56 -34 -73 -5c6 13 21 17 26 31c0 4 -5 2 -5 5c17 18 9 29 25 48c20 0 46 -2 60 -13z" />
    <glyph glyph-name="semicolon" unicode=";" horiz-adv-x="97" 
d="M76 33c-1 -28 4 -61 -10 -75c-27 -5 -48 -39 -78 -21c2 24 28 42 28 71c-1 12 -7 25 1 33c15 13 46 1 59 -8zM89 189c5 -14 3 -42 -2 -43c-15 -17 -43 -8 -78 -1c-27 50 45 76 80 44z" />
    <glyph glyph-name="colon" unicode=":" horiz-adv-x="94" 
d="M85 58c-7 -17 2 -37 -3 -50c-26 -1 -52 -24 -70 -5c-8 9 -8 61 10 70c16 -1 46 -5 63 -15zM88 216c-3 -20 -18 -31 -8 -52c-15 -1 -20 -11 -31 -16c-31 -3 -49 7 -52 27c-2 19 16 35 18 51c21 9 57 4 73 -10z" />
    <glyph glyph-name="quotesingle" unicode="'" horiz-adv-x="80" 
d="M74 741c4 -39 -1 -69 -16 -99c-16 -5 -52 -47 -60 -18c-5 16 16 21 16 37c0 4 -5 4 -5 8c14 27 3 56 15 80c14 3 37 3 50 -8z" />
    <glyph glyph-name="Agrave" unicode="&#xc0;" horiz-adv-x="322" 
d="M159 750c-45 -4 -95 47 -109 58c3 42 42 36 45 35c26 -21 63 -33 92 -51c5 -21 -11 -35 -28 -42zM201 20c20 86 11 200 16 285c-16 18 -47 7 -72 3c-21 -3 -43 -1 -58 -11c9 -100 -14 -184 -3 -281c-21 -4 -59 -28 -77 -2c-5 8 -3 19 -3 32c2 86 1 171 2 248
c0 19 -2 39 -2 60c1 70 9 132 13 196c1 14 4 25 5 43c4 64 13 148 75 128c11 10 26 15 45 11c11 -2 15 -2 25 -3c32 -2 59 -26 84 -42c7 -21 22 -34 33 -51c10 -39 17 -79 19 -131c1 -33 -5 -68 -5 -103c0 -19 5 -37 3 -55c0 -5 -4 -11 -4 -16c-1 -12 2 -24 1 -36
c-1 -16 -7 -33 -8 -49c0 -8 2 -16 2 -24c-1 -13 -8 -26 -8 -39c-4 -55 1 -109 0 -159c-1 -11 -15 -10 -26 -13c-8 -3 -16 -9 -23 -10c-15 -1 -27 9 -34 19zM144 659c-10 -8 -15 -22 -25 -31c-6 -22 -7 -44 -9 -65c-3 -17 -10 -33 -13 -52c-1 -3 2 -7 1 -11
c0 -6 -4 -13 -5 -20c-5 -43 -1 -86 -6 -130c44 -9 80 8 128 7c15 66 -9 148 -16 231c-2 19 -2 49 -10 70c-14 4 -29 4 -45 1z" />
    <glyph glyph-name="Aacute" unicode="&#xc1;" horiz-adv-x="327" 
d="M196 836c13 -12 13 -25 9 -34c-26 -15 -57 -43 -81 -53s-44 13 -52 33c13 13 33 22 52 32c28 15 35 45 72 22zM201 20c20 86 11 200 16 285c-16 18 -47 7 -72 3c-21 -3 -43 -1 -58 -11c9 -100 -14 -184 -3 -281c-21 -4 -59 -28 -77 -2c-5 8 -3 19 -3 32c2 86 1 171 2 248
c0 19 -2 39 -2 60c1 70 9 132 13 196c1 14 4 25 5 43c4 64 13 148 75 128c11 10 26 15 45 11c11 -2 15 -2 25 -3c32 -2 59 -26 84 -42c7 -21 22 -34 33 -51c10 -39 17 -79 19 -131c1 -33 -5 -68 -5 -103c0 -19 5 -37 3 -55c0 -5 -4 -11 -4 -16c-1 -12 2 -24 1 -36
c-1 -16 -7 -33 -8 -49c0 -8 2 -16 2 -24c-1 -13 -8 -26 -8 -39c-4 -55 1 -109 0 -159c-1 -11 -15 -10 -26 -13c-8 -3 -16 -9 -23 -10c-15 -1 -27 9 -34 19zM144 659c-10 -8 -15 -22 -25 -31c-6 -22 -7 -44 -9 -65c-3 -17 -10 -33 -13 -52c-1 -3 2 -7 1 -11
c0 -6 -4 -13 -5 -20c-5 -43 -1 -86 -6 -130c44 -9 80 8 128 7c15 66 -9 148 -16 231c-2 19 -2 49 -10 70c-14 4 -29 4 -45 1z" />
    <glyph glyph-name="Eacute" unicode="&#xc9;" horiz-adv-x="277" 
d="M196 836c13 -12 13 -25 9 -34c-26 -15 -57 -43 -81 -53s-44 13 -52 33c13 13 33 22 52 32c28 15 35 45 72 22zM263 713c-5 -11 -16 -17 -16 -34c-11 -13 -21 1 -39 4c-32 4 -69 -1 -86 -17c11 -79 5 -166 8 -256c29 -11 103 3 132 -15c-17 -10 -19 -37 -39 -39
c-6 -1 -11 3 -17 5c-28 6 -57 -2 -81 -13c-5 -17 -2 -35 -3 -49c-1 -5 -6 -10 -7 -15c0 -2 3 -6 3 -9c2 -31 -16 -69 -4 -95c-5 -13 -5 -30 -5 -45c-1 -11 2 -23 1 -33c0 -10 -5 -21 2 -32c46 1 91 5 122 -15c-7 -2 5 -22 -2 -19c-32 -35 -121 -3 -172 -17
c-22 5 -40 13 -52 28c-9 71 -1 156 6 229c4 33 2 62 7 98c1 6 4 9 5 14c5 69 6 162 -2 238c-1 9 3 19 2 29c-1 9 -1 22 -3 34c-3 14 -8 30 13 34c19 4 46 -2 66 -1c25 0 55 6 85 4c27 -1 57 0 76 -13z" />
    <glyph glyph-name="Iacute" unicode="&#xcd;" horiz-adv-x="147" 
d="M155 836c13 -12 13 -25 9 -34c-26 -15 -57 -43 -81 -53s-44 13 -52 33c13 13 33 22 52 32c28 15 35 45 72 22zM117 731c0 -16 2 -49 3 -65c3 -35 4 -74 4 -114c0 -14 6 -29 6 -44c0 -31 2 -68 -3 -99c-6 -35 -2 -83 -15 -118c3 -13 7 -30 0 -38c2 -36 -2 -72 -5 -109
c-2 -39 4 -76 2 -120c-11 -7 -24 -2 -36 -5c-10 -2 -14 -11 -22 -14c-20 -8 -37 -1 -51 21c8 60 6 129 15 200c-5 24 2 46 3 71c8 138 12 279 7 408c18 25 65 31 92 26z" />
    <glyph glyph-name="Oacute" unicode="&#xd3;" 
d="M271 853c13 -12 13 -25 9 -34c-26 -15 -57 -43 -81 -53s-44 13 -52 33c13 13 33 22 52 32c28 15 35 45 72 22zM318 158c7 -16 -8 -34 0 -44c-8 -23 -16 -44 -29 -65c-11 -5 -22 -9 -36 -16c-9 -5 -14 -13 -21 -16c-65 -37 -212 -24 -231 58c-5 23 -3 60 -1 85
c3 59 7 130 16 182c14 76 24 151 31 225c1 17 -1 33 2 49c4 30 15 58 21 86c11 11 17 25 31 33c20 5 36 9 56 10c8 0 16 -5 25 -5c26 -1 49 6 76 -3c12 -5 36 -19 44 -30c8 -10 15 -36 23 -47c6 -10 2 -37 1 -52c0 -10 6 -19 5 -29c0 -5 -4 -11 -5 -16c-1 -14 5 -28 5 -43
c2 -28 -6 -56 -5 -76c1 -11 7 -20 7 -31c0 -25 -3 -51 -3 -76c0 -8 4 -17 5 -25c0 -15 -5 -32 -5 -48c0 -13 2 -26 1 -39c0 -9 -3 -19 -5 -28c-2 -15 -1 -28 -8 -39zM185 56c28 41 34 100 42 149c6 37 7 77 8 115c1 27 2 64 -1 91c-1 6 3 13 3 18l-3 164c-1 35 -3 68 -18 98
c-2 0 -2 2 -5 2c-14 -12 -34 -16 -57 -21c-31 -48 -18 -116 -32 -174c6 -18 -2 -38 -4 -56c-1 -18 -2 -34 -4 -48c-6 -43 1 -108 -10 -158c4 -54 -4 -113 13 -169c8 -9 11 -22 27 -23c10 8 28 8 41 12z" />
    <glyph glyph-name="Uacute" unicode="&#xda;" horiz-adv-x="369" 
d="M259 836c13 -12 13 -25 9 -34c-26 -15 -57 -43 -81 -53s-44 13 -52 33c13 13 33 22 52 32c28 15 35 45 72 22zM231 726c17 34 80 12 112 7c3 -10 2 -27 -2 -34c5 -16 1 -32 2 -50c1 -32 8 -66 8 -103c0 -24 -7 -49 -8 -73s-5 -47 -3 -71c3 -70 3 -147 -10 -217
c-1 -7 -3 -12 -7 -18c1 -41 -27 -79 -38 -114c-11 -5 -17 -16 -26 -24c-31 -10 -60 -30 -96 -31c-7 -1 -16 2 -26 3c-34 2 -80 2 -100 26c-4 2 -8 4 -12 5c-8 15 -15 33 -23 48c-5 95 11 172 22 258c-2 35 4 71 6 109c2 21 -1 42 0 66c2 43 6 89 -3 130c10 27 -14 72 10 87
c27 2 53 7 77 -8c1 -7 -6 -4 -7 -7c0 -107 8 -204 -1 -321c1 -8 -1 -6 3 -11c0 -2 3 -6 3 -9c-5 -50 5 -113 2 -171c-1 -15 -8 -32 -8 -46c-1 -19 7 -35 0 -57c12 -16 3 -35 16 -50c21 -25 70 -2 86 20c13 40 35 90 30 130c10 37 9 82 9 129c1 35 2 81 -1 121
c8 51 0 136 -7 203c0 5 2 9 2 14c-1 16 -9 28 -2 40c-4 5 -3 15 -8 19z" />
    <glyph glyph-name="uacute" unicode="&#xfa;" 
d="M256 836c13 -12 13 -25 9 -34c-26 -15 -57 -43 -81 -53s-44 13 -52 33c13 13 33 22 52 32c28 15 35 45 72 22zM110 731c2 -33 -14 -62 -5 -87c-5 -24 -1 -56 -2 -84c0 -27 1 -56 8 -83c-3 -24 -4 -49 -3 -80c1 -27 -4 -59 -5 -92c0 -34 1 -69 -1 -103
c-4 -46 -14 -91 -7 -126c4 -17 10 -31 23 -39c39 3 76 5 109 16c18 35 15 79 19 123c1 5 5 11 5 17c1 6 -3 14 -3 21c-2 32 1 69 -2 101c-8 93 -13 191 -26 268c3 42 -3 89 -5 133c11 12 27 10 40 8c-3 0 6 0 11 -3c14 -4 30 -7 47 -8c3 -8 -8 -27 3 -33
c-9 -10 -1 -22 0 -34c1 -4 -3 -10 -3 -15c-1 -12 2 -25 2 -35c-1 -30 -3 -59 -2 -90c1 -21 7 -43 10 -65c3 -24 -1 -50 1 -78c1 -8 6 -16 7 -24c2 -14 -1 -28 0 -42c7 -86 9 -173 -33 -247c-11 -3 -11 -12 -17 -17c-27 -20 -81 -23 -129 -29c-12 -1 -25 -6 -37 -5
c-38 3 -73 14 -95 38c-19 21 -22 48 -19 91c4 57 13 124 18 188c8 96 18 175 19 265c1 46 -3 109 -6 145c16 20 50 13 78 5z" />
    <glyph glyph-name="iacute" unicode="&#xed;" horiz-adv-x="129" 
d="M80 712c18 -39 9 -79 15 -121c1 -14 0 -27 0 -42c-1 -32 7 -64 8 -96c0 -19 -4 -38 -4 -58c0 -18 0 -36 -1 -54c-1 -8 3 -15 3 -23c0 -15 -5 -29 -6 -44c-2 -19 2 -42 0 -61c-2 -11 -8 -18 -9 -28c0 -26 7 -51 -1 -75c6 -29 11 -65 14 -89c0 -8 -42 -25 -65 -21
c-12 2 -15 13 -24 21c-1 86 -7 172 -8 265c0 32 3 65 3 99c0 106 0 214 -3 322c16 21 57 11 78 5zM133 836c13 -12 13 -25 9 -34c-26 -15 -57 -43 -81 -53s-44 13 -52 33c13 13 33 22 52 32c28 15 35 45 72 22z" />
    <glyph glyph-name="eacute" unicode="&#xe9;" horiz-adv-x="266" 
d="M196 836c13 -12 13 -25 9 -34c-26 -15 -57 -43 -81 -53s-44 13 -52 33c13 13 33 22 52 32c28 15 35 45 72 22zM238 735c-6 -7 -15 -9 -23 -17c-4 -24 -4 -36 -16 -48c-46 11 -83 7 -119 -9c2 -8 -3 -16 5 -16c-8 -16 4 -33 5 -50c1 -14 -3 -28 -1 -42c3 -47 0 -98 3 -137
c51 -7 105 16 159 15c-2 -9 -12 -9 -18 -13c7 -31 -20 -43 -31 -62c-30 -16 -86 -6 -112 -29c2 -55 -1 -134 -6 -187c9 -21 -5 -50 5 -69c42 0 97 20 139 0c2 -12 13 -14 18 -22c-8 -20 -24 -8 -32 -17c-49 -3 -82 -10 -127 -21c-12 -2 -21 -4 -34 -6c-20 -4 -40 -14 -51 10
c9 152 6 288 7 424c0 48 1 99 2 148c0 34 5 77 -2 104c-2 5 -7 10 -7 16c0 11 8 19 13 28c13 1 23 5 38 3c18 -3 37 -19 55 -3c5 0 4 -5 7 -7c45 3 87 14 123 7z" />
    <glyph glyph-name="agrave" unicode="&#xe0;" horiz-adv-x="328" 
d="M159 750c-45 -4 -95 47 -109 58c3 42 42 36 45 35c26 -21 63 -33 92 -51c5 -21 -11 -35 -28 -42zM309 44c-30 -11 -63 -31 -94 -13c-1 44 3 83 3 133c1 15 5 31 4 43c-2 17 -2 50 -2 76c-3 5 -8 8 -2 13c-11 14 -68 20 -86 7c-12 7 -24 -6 -37 -9c-4 -19 4 -38 6 -58
c2 -16 -1 -31 0 -47c1 -6 5 -11 5 -16c5 -46 -8 -95 8 -142c-8 -7 -18 -4 -29 -8c-16 -6 -29 -25 -52 -15c-6 3 -9 11 -16 17c3 13 2 25 1 39c0 13 4 28 4 44c-3 68 -2 145 -5 225c-2 56 -1 94 -3 152c-2 39 -7 88 -9 130c-2 44 6 85 31 102c27 18 87 15 122 8
c5 -1 12 -5 18 -6c14 -2 25 0 36 -2c5 -1 11 -5 18 -6c19 -6 30 -12 42 -31c29 -47 8 -129 20 -187c-3 0 -5 -17 -5 -19c2 -28 4 -36 5 -71c0 -10 5 -22 6 -34c1 -10 -3 -20 -2 -29c1 -3 5 -7 5 -10c3 -10 3 -24 4 -34c1 -28 1 -55 0 -83c8 -22 -5 -46 6 -68
c-7 -11 -1 -20 0 -31c2 -21 -13 -47 -2 -70zM183 675c-17 4 -44 -19 -67 -16c-10 1 -12 8 -24 8c-16 -24 -10 -55 -10 -85s4 -63 1 -94c-1 -19 3 -35 4 -52c2 -33 4 -63 11 -91c37 4 82 4 122 5c-7 101 -7 201 -18 297c-11 8 -6 25 -19 28z" />
    <glyph glyph-name="aacute" unicode="&#xe1;" horiz-adv-x="327" 
d="M196 836c13 -12 13 -25 9 -34c-26 -15 -57 -43 -81 -53s-44 13 -52 33c13 13 33 22 52 32c28 15 35 45 72 22zM309 44c-30 -11 -63 -31 -94 -13c-1 44 3 83 3 133c1 15 5 31 4 43c-2 17 -2 50 -2 76c-3 5 -8 8 -2 13c-11 14 -68 20 -86 7c-12 7 -24 -6 -37 -9
c-4 -19 4 -38 6 -58c2 -16 -1 -31 0 -47c1 -6 5 -11 5 -16c5 -46 -8 -95 8 -142c-8 -7 -18 -4 -29 -8c-16 -6 -29 -25 -52 -15c-6 3 -9 11 -16 17c3 13 2 25 1 39c0 13 4 28 4 44c-3 68 -2 145 -5 225c-2 56 -1 94 -3 152c-2 39 -7 88 -9 130c-2 44 6 85 31 102
c27 18 87 15 122 8c5 -1 12 -5 18 -6c14 -2 25 0 36 -2c5 -1 11 -5 18 -6c19 -6 30 -12 42 -31c29 -47 8 -129 20 -187c-3 0 -5 -17 -5 -19c2 -28 4 -36 5 -71c0 -10 5 -22 6 -34c1 -10 -3 -20 -2 -29c1 -3 5 -7 5 -10c3 -10 3 -24 4 -34c1 -28 1 -55 0 -83
c8 -22 -5 -46 6 -68c-7 -11 -1 -20 0 -31c2 -21 -13 -47 -2 -70zM183 675c-17 4 -44 -19 -67 -16c-10 1 -12 8 -24 8c-16 -24 -10 -55 -10 -85s4 -63 1 -94c-1 -19 3 -35 4 -52c2 -33 4 -63 11 -91c37 4 82 4 122 5c-7 101 -7 201 -18 297c-11 8 -6 25 -19 28z" />
    <glyph glyph-name="egrave" unicode="&#xe8;" horiz-adv-x="263" 
d="M112 750c-45 -4 -95 47 -109 58c3 42 42 36 45 35c26 -21 63 -33 92 -51c5 -21 -11 -35 -28 -42zM238 735c-6 -7 -15 -9 -23 -17c-4 -24 -4 -36 -16 -48c-46 11 -83 7 -119 -9c2 -8 -3 -16 5 -16c-8 -16 4 -33 5 -50c1 -14 -3 -28 -1 -42c3 -47 0 -98 3 -137
c51 -7 105 16 159 15c-2 -9 -12 -9 -18 -13c7 -31 -20 -43 -31 -62c-30 -16 -86 -6 -112 -29c2 -55 -1 -134 -6 -187c9 -21 -5 -50 5 -69c42 0 97 20 139 0c2 -12 13 -14 18 -22c-8 -20 -24 -8 -32 -17c-49 -3 -82 -10 -127 -21c-12 -2 -21 -4 -34 -6c-20 -4 -40 -14 -51 10
c9 152 6 288 7 424c0 48 1 99 2 148c0 34 5 77 -2 104c-2 5 -7 10 -7 16c0 11 8 19 13 28c13 1 23 5 38 3c18 -3 37 -19 55 -3c5 0 4 -5 7 -7c45 3 87 14 123 7z" />
    <glyph glyph-name="Egrave" unicode="&#xc8;" horiz-adv-x="282" 
d="M146 750c-45 -4 -95 47 -109 58c3 42 42 36 45 35c26 -21 63 -33 92 -51c5 -21 -11 -35 -28 -42zM263 713c-5 -11 -16 -17 -16 -34c-11 -13 -21 1 -39 4c-32 4 -69 -1 -86 -17c11 -79 5 -166 8 -256c29 -11 103 3 132 -15c-17 -10 -19 -37 -39 -39c-6 -1 -11 3 -17 5
c-28 6 -57 -2 -81 -13c-5 -17 -2 -35 -3 -49c-1 -5 -6 -10 -7 -15c0 -2 3 -6 3 -9c2 -31 -16 -69 -4 -95c-5 -13 -5 -30 -5 -45c-1 -11 2 -23 1 -33c0 -10 -5 -21 2 -32c46 1 91 5 122 -15c-7 -2 5 -22 -2 -19c-32 -35 -121 -3 -172 -17c-22 5 -40 13 -52 28
c-9 71 -1 156 6 229c4 33 2 62 7 98c1 6 4 9 5 14c5 69 6 162 -2 238c-1 9 3 19 2 29c-1 9 -1 22 -3 34c-3 14 -8 30 13 34c19 4 46 -2 66 -1c25 0 55 6 85 4c27 -1 57 0 76 -13z" />
    <glyph glyph-name="Igrave" unicode="&#xcc;" horiz-adv-x="144" 
d="M74 750c-45 -4 -95 47 -109 58c3 42 42 36 45 35c26 -21 63 -33 92 -51c5 -21 -11 -35 -28 -42zM117 731c0 -16 2 -49 3 -65c3 -35 4 -74 4 -114c0 -14 6 -29 6 -44c0 -31 2 -68 -3 -99c-6 -35 -2 -83 -15 -118c3 -13 7 -30 0 -38c2 -36 -2 -72 -5 -109
c-2 -39 4 -76 2 -120c-11 -7 -24 -2 -36 -5c-10 -2 -14 -11 -22 -14c-20 -8 -37 -1 -51 21c8 60 6 129 15 200c-5 24 2 46 3 71c8 138 12 279 7 408c18 25 65 31 92 26z" />
    <glyph glyph-name="igrave" unicode="&#xec;" horiz-adv-x="116" 
d="M80 712c18 -39 9 -79 15 -121c1 -14 0 -27 0 -42c-1 -32 7 -64 8 -96c0 -19 -4 -38 -4 -58c0 -18 0 -36 -1 -54c-1 -8 3 -15 3 -23c0 -15 -5 -29 -6 -44c-2 -19 2 -42 0 -61c-2 -11 -8 -18 -9 -28c0 -26 7 -51 -1 -75c6 -29 11 -65 14 -89c0 -8 -42 -25 -65 -21
c-12 2 -15 13 -24 21c-1 86 -7 172 -8 265c0 32 3 65 3 99c0 106 0 214 -3 322c16 21 57 11 78 5zM43 750c-45 -4 -95 47 -109 58c3 42 42 36 45 35c26 -21 63 -33 92 -51c5 -21 -11 -35 -28 -42z" />
    <glyph glyph-name="Ugrave" unicode="&#xd9;" horiz-adv-x="373" 
d="M175 750c-45 -4 -95 47 -109 58c3 42 42 36 45 35c26 -21 63 -33 92 -51c5 -21 -11 -35 -28 -42zM231 726c17 34 80 12 112 7c3 -10 2 -27 -2 -34c5 -16 1 -32 2 -50c1 -32 8 -66 8 -103c0 -24 -7 -49 -8 -73s-5 -47 -3 -71c3 -70 3 -147 -10 -217c-1 -7 -3 -12 -7 -18
c1 -41 -27 -79 -38 -114c-11 -5 -17 -16 -26 -24c-31 -10 -60 -30 -96 -31c-7 -1 -16 2 -26 3c-34 2 -80 2 -100 26c-4 2 -8 4 -12 5c-8 15 -15 33 -23 48c-5 95 11 172 22 258c-2 35 4 71 6 109c2 21 -1 42 0 66c2 43 6 89 -3 130c10 27 -14 72 10 87c27 2 53 7 77 -8
c1 -7 -6 -4 -7 -7c0 -107 8 -204 -1 -321c1 -8 -1 -6 3 -11c0 -2 3 -6 3 -9c-5 -50 5 -113 2 -171c-1 -15 -8 -32 -8 -46c-1 -19 7 -35 0 -57c12 -16 3 -35 16 -50c21 -25 70 -2 86 20c13 40 35 90 30 130c10 37 9 82 9 129c1 35 2 81 -1 121c8 51 0 136 -7 203
c0 5 2 9 2 14c-1 16 -9 28 -2 40c-4 5 -3 15 -8 19z" />
    <glyph glyph-name="ugrave" unicode="&#xf9;" horiz-adv-x="352" 
d="M175 750c-45 -4 -95 47 -109 58c3 42 42 36 45 35c26 -21 63 -33 92 -51c5 -21 -11 -35 -28 -42zM110 731c2 -33 -14 -62 -5 -87c-5 -24 -1 -56 -2 -84c0 -27 1 -56 8 -83c-3 -24 -4 -49 -3 -80c1 -27 -4 -59 -5 -92c0 -34 1 -69 -1 -103c-4 -46 -14 -91 -7 -126
c4 -17 10 -31 23 -39c39 3 76 5 109 16c18 35 15 79 19 123c1 5 5 11 5 17c1 6 -3 14 -3 21c-2 32 1 69 -2 101c-8 93 -13 191 -26 268c3 42 -3 89 -5 133c11 12 27 10 40 8c-3 0 6 0 11 -3c14 -4 30 -7 47 -8c3 -8 -8 -27 3 -33c-9 -10 -1 -22 0 -34c1 -4 -3 -10 -3 -15
c-1 -12 2 -25 2 -35c-1 -30 -3 -59 -2 -90c1 -21 7 -43 10 -65c3 -24 -1 -50 1 -78c1 -8 6 -16 7 -24c2 -14 -1 -28 0 -42c7 -86 9 -173 -33 -247c-11 -3 -11 -12 -17 -17c-27 -20 -81 -23 -129 -29c-12 -1 -25 -6 -37 -5c-38 3 -73 14 -95 38c-19 21 -22 48 -19 91
c4 57 13 124 18 188c8 96 18 175 19 265c1 46 -3 109 -6 145c16 20 50 13 78 5z" />
    <glyph glyph-name="bullet" unicode="&#x2022;" horiz-adv-x="101" 
d="M53 338c21 9 20 0 34 3c-4 -20 9 -58 -4 -76c-9 -7 -26 0 -39 -2c-11 -2 -39 -19 -41 5c-6 2 -9 15 -15 17c7 25 -17 28 -4 51c25 2 43 5 69 2z" />
    <glyph glyph-name="Udieresis" unicode="&#xdc;" horiz-adv-x="362" 
d="M139 830c5 -24 1 -48 -18 -64c-13 -8 -26 1 -39 7c-1 23 -16 53 0 68c13 12 46 1 57 -11zM269 827c3 -26 -1 -49 -15 -62c-12 -7 -26 -9 -40 3c-11 25 -10 20 -12 33c-5 52 42 55 67 26zM231 726c17 34 80 12 112 7c3 -10 2 -27 -2 -34c5 -16 1 -32 2 -50
c1 -32 8 -66 8 -103c0 -24 -7 -49 -8 -73s-5 -47 -3 -71c3 -70 3 -147 -10 -217c-1 -7 -3 -12 -7 -18c1 -41 -27 -79 -38 -114c-11 -5 -17 -16 -26 -24c-31 -10 -60 -30 -96 -31c-7 -1 -16 2 -26 3c-34 2 -80 2 -100 26c-4 2 -8 4 -12 5c-8 15 -15 33 -23 48
c-5 95 11 172 22 258c-2 35 4 71 6 109c2 21 -1 42 0 66c2 43 6 89 -3 130c10 27 -14 72 10 87c27 2 53 7 77 -8c1 -7 -6 -4 -7 -7c0 -107 8 -204 -1 -321c1 -8 -1 -6 3 -11c0 -2 3 -6 3 -9c-5 -50 5 -113 2 -171c-1 -15 -8 -32 -8 -46c-1 -19 7 -35 0 -57
c12 -16 3 -35 16 -50c21 -25 70 -2 86 20c13 40 35 90 30 130c10 37 9 82 9 129c1 35 2 81 -1 121c8 51 0 136 -7 203c0 5 2 9 2 14c-1 16 -9 28 -2 40c-4 5 -3 15 -8 19z" />
    <glyph glyph-name="udieresis" unicode="&#xfc;" horiz-adv-x="352" 
d="M139 830c5 -24 1 -48 -18 -64c-13 -8 -26 1 -39 7c-1 23 -16 53 0 68c13 12 46 1 57 -11zM269 827c3 -26 -1 -49 -15 -62c-12 -7 -26 -9 -40 3c-11 25 -10 20 -12 33c-5 52 42 55 67 26zM110 731c2 -33 -14 -62 -5 -87c-5 -24 -1 -56 -2 -84c0 -27 1 -56 8 -83
c-3 -24 -4 -49 -3 -80c1 -27 -4 -59 -5 -92c0 -34 1 -69 -1 -103c-4 -46 -14 -91 -7 -126c4 -17 10 -31 23 -39c39 3 76 5 109 16c18 35 15 79 19 123c1 5 5 11 5 17c1 6 -3 14 -3 21c-2 32 1 69 -2 101c-8 93 -13 191 -26 268c3 42 -3 89 -5 133c11 12 27 10 40 8
c-3 0 6 0 11 -3c14 -4 30 -7 47 -8c3 -8 -8 -27 3 -33c-9 -10 -1 -22 0 -34c1 -4 -3 -10 -3 -15c-1 -12 2 -25 2 -35c-1 -30 -3 -59 -2 -90c1 -21 7 -43 10 -65c3 -24 -1 -50 1 -78c1 -8 6 -16 7 -24c2 -14 -1 -28 0 -42c7 -86 9 -173 -33 -247c-11 -3 -11 -12 -17 -17
c-27 -20 -81 -23 -129 -29c-12 -1 -25 -6 -37 -5c-38 3 -73 14 -95 38c-19 21 -22 48 -19 91c4 57 13 124 18 188c8 96 18 175 19 265c1 46 -3 109 -6 145c16 20 50 13 78 5z" />
    <glyph glyph-name="Idieresis" unicode="&#xcf;" horiz-adv-x="153" 
d="M43 830c5 -24 1 -48 -18 -64c-13 -8 -26 1 -39 7c-1 23 -16 53 0 68c13 12 46 1 57 -11zM173 827c3 -26 -1 -49 -15 -62c-12 -7 -26 -9 -40 3c-11 25 -10 20 -12 33c-5 52 42 55 67 26zM117 731c0 -16 2 -49 3 -65c3 -35 4 -74 4 -114c0 -14 6 -29 6 -44
c0 -31 2 -68 -3 -99c-6 -35 -2 -83 -15 -118c3 -13 7 -30 0 -38c2 -36 -2 -72 -5 -109c-2 -39 4 -76 2 -120c-11 -7 -24 -2 -36 -5c-10 -2 -14 -11 -22 -14c-20 -8 -37 -1 -51 21c8 60 6 129 15 200c-5 24 2 46 3 71c8 138 12 279 7 408c18 25 65 31 92 26z" />
    <glyph glyph-name="idieresis" unicode="&#xef;" horiz-adv-x="129" 
d="M80 712c18 -39 9 -79 15 -121c1 -14 0 -27 0 -42c-1 -32 7 -64 8 -96c0 -19 -4 -38 -4 -58c0 -18 0 -36 -1 -54c-1 -8 3 -15 3 -23c0 -15 -5 -29 -6 -44c-2 -19 2 -42 0 -61c-2 -11 -8 -18 -9 -28c0 -26 7 -51 -1 -75c6 -29 11 -65 14 -89c0 -8 -42 -25 -65 -21
c-12 2 -15 13 -24 21c-1 86 -7 172 -8 265c0 32 3 65 3 99c0 106 0 214 -3 322c16 21 57 11 78 5zM25 830c5 -24 1 -48 -18 -64c-13 -8 -26 1 -39 7c-1 23 -16 53 0 68c13 12 46 1 57 -11zM128 827c3 -26 -1 -49 -15 -62c-12 -7 -26 -9 -40 3c-11 25 -10 20 -12 33
c-5 52 42 55 67 26z" />
    <glyph glyph-name="Adieresis" unicode="&#xc4;" horiz-adv-x="328" 
d="M105 830c5 -24 1 -48 -18 -64c-13 -8 -26 1 -39 7c-1 23 -16 53 0 68c13 12 46 1 57 -11zM235 827c3 -26 -1 -49 -15 -62c-12 -7 -26 -9 -40 3c-11 25 -10 20 -12 33c-5 52 42 55 67 26zM201 20c20 86 11 200 16 285c-16 18 -47 7 -72 3c-21 -3 -43 -1 -58 -11
c9 -100 -14 -184 -3 -281c-21 -4 -59 -28 -77 -2c-5 8 -3 19 -3 32c2 86 1 171 2 248c0 19 -2 39 -2 60c1 70 9 132 13 196c1 14 4 25 5 43c4 64 13 148 75 128c11 10 26 15 45 11c11 -2 15 -2 25 -3c32 -2 59 -26 84 -42c7 -21 22 -34 33 -51c10 -39 17 -79 19 -131
c1 -33 -5 -68 -5 -103c0 -19 5 -37 3 -55c0 -5 -4 -11 -4 -16c-1 -12 2 -24 1 -36c-1 -16 -7 -33 -8 -49c0 -8 2 -16 2 -24c-1 -13 -8 -26 -8 -39c-4 -55 1 -109 0 -159c-1 -11 -15 -10 -26 -13c-8 -3 -16 -9 -23 -10c-15 -1 -27 9 -34 19zM144 659c-10 -8 -15 -22 -25 -31
c-6 -22 -7 -44 -9 -65c-3 -17 -10 -33 -13 -52c-1 -3 2 -7 1 -11c0 -6 -4 -13 -5 -20c-5 -43 -1 -86 -6 -130c44 -9 80 8 128 7c15 66 -9 148 -16 231c-2 19 -2 49 -10 70c-14 4 -29 4 -45 1z" />
    <glyph glyph-name="adieresis" unicode="&#xe4;" horiz-adv-x="327" 
d="M105 830c5 -24 1 -48 -18 -64c-13 -8 -26 1 -39 7c-1 23 -16 53 0 68c13 12 46 1 57 -11zM235 827c3 -26 -1 -49 -15 -62c-12 -7 -26 -9 -40 3c-11 25 -10 20 -12 33c-5 52 42 55 67 26zM309 44c-30 -11 -63 -31 -94 -13c-1 44 3 83 3 133c1 15 5 31 4 43
c-2 17 -2 50 -2 76c-3 5 -8 8 -2 13c-11 14 -68 20 -86 7c-12 7 -24 -6 -37 -9c-4 -19 4 -38 6 -58c2 -16 -1 -31 0 -47c1 -6 5 -11 5 -16c5 -46 -8 -95 8 -142c-8 -7 -18 -4 -29 -8c-16 -6 -29 -25 -52 -15c-6 3 -9 11 -16 17c3 13 2 25 1 39c0 13 4 28 4 44
c-3 68 -2 145 -5 225c-2 56 -1 94 -3 152c-2 39 -7 88 -9 130c-2 44 6 85 31 102c27 18 87 15 122 8c5 -1 12 -5 18 -6c14 -2 25 0 36 -2c5 -1 11 -5 18 -6c19 -6 30 -12 42 -31c29 -47 8 -129 20 -187c-3 0 -5 -17 -5 -19c2 -28 4 -36 5 -71c0 -10 5 -22 6 -34
c1 -10 -3 -20 -2 -29c1 -3 5 -7 5 -10c3 -10 3 -24 4 -34c1 -28 1 -55 0 -83c8 -22 -5 -46 6 -68c-7 -11 -1 -20 0 -31c2 -21 -13 -47 -2 -70zM183 675c-17 4 -44 -19 -67 -16c-10 1 -12 8 -24 8c-16 -24 -10 -55 -10 -85s4 -63 1 -94c-1 -19 3 -35 4 -52
c2 -33 4 -63 11 -91c37 4 82 4 122 5c-7 101 -7 201 -18 297c-11 8 -6 25 -19 28z" />
    <glyph glyph-name="Odieresis" unicode="&#xd6;" horiz-adv-x="350" 
d="M141 830c5 -24 1 -48 -18 -64c-13 -8 -26 1 -39 7c-1 23 -16 53 0 68c13 12 46 1 57 -11zM271 827c3 -26 -1 -49 -15 -62c-12 -7 -26 -9 -40 3c-11 25 -10 20 -12 33c-5 52 42 55 67 26zM318 158c7 -16 -8 -34 0 -44c-8 -23 -16 -44 -29 -65c-11 -5 -22 -9 -36 -16
c-9 -5 -14 -13 -21 -16c-65 -37 -212 -24 -231 58c-5 23 -3 60 -1 85c3 59 7 130 16 182c14 76 24 151 31 225c1 17 -1 33 2 49c4 30 15 58 21 86c11 11 17 25 31 33c20 5 36 9 56 10c8 0 16 -5 25 -5c26 -1 49 6 76 -3c12 -5 36 -19 44 -30c8 -10 15 -36 23 -47
c6 -10 2 -37 1 -52c0 -10 6 -19 5 -29c0 -5 -4 -11 -5 -16c-1 -14 5 -28 5 -43c2 -28 -6 -56 -5 -76c1 -11 7 -20 7 -31c0 -25 -3 -51 -3 -76c0 -8 4 -17 5 -25c0 -15 -5 -32 -5 -48c0 -13 2 -26 1 -39c0 -9 -3 -19 -5 -28c-2 -15 -1 -28 -8 -39zM185 56
c28 41 34 100 42 149c6 37 7 77 8 115c1 27 2 64 -1 91c-1 6 3 13 3 18l-3 164c-1 35 -3 68 -18 98c-2 0 -2 2 -5 2c-14 -12 -34 -16 -57 -21c-31 -48 -18 -116 -32 -174c6 -18 -2 -38 -4 -56c-1 -18 -2 -34 -4 -48c-6 -43 1 -108 -10 -158c4 -54 -4 -113 13 -169
c8 -9 11 -22 27 -23c10 8 28 8 41 12z" />
    <glyph glyph-name="odieresis" unicode="&#xf6;" horiz-adv-x="355" 
d="M146 830c5 -24 1 -48 -18 -64c-13 -8 -26 1 -39 7c-1 23 -16 53 0 68c13 12 46 1 57 -11zM276 827c3 -26 -1 -49 -15 -62c-12 -7 -26 -9 -40 3c-11 25 -10 20 -12 33c-5 52 42 55 67 26zM331 676c18 -89 -3 -193 -10 -278c-2 -7 6 -3 5 -9c-11 -34 -6 -75 -8 -112
c0 -9 -5 -17 -5 -25c0 -49 6 -98 13 -146c-6 -21 -6 -43 -15 -59c-5 -9 -16 -25 -24 -30c-17 -12 -37 -6 -60 -9c-7 0 -14 -6 -21 -8c-3 0 -9 2 -13 2c-28 -2 -55 -5 -83 0c-10 2 -21 2 -26 3c-4 1 -7 7 -12 8c-3 1 -8 -1 -11 0c-5 2 -22 14 -28 18c-13 12 -24 33 -17 52
c-4 7 -9 13 -12 20c4 65 10 143 10 213c0 2 -3 4 -3 6c0 19 6 39 6 60c1 15 -1 34 0 55c3 62 10 123 18 178c4 27 15 60 24 76c25 40 73 49 132 46c19 -1 39 -11 55 -12c6 0 12 3 17 2c4 -1 10 -6 18 -8c7 -2 17 -1 22 -4c15 -7 17 -26 28 -39zM204 676c-6 0 -11 -4 -16 -3
c-9 2 -16 9 -24 8c-17 -1 -22 -20 -33 -32c-1 -6 2 -8 2 -13c-10 -13 -8 -26 -10 -41c-3 -19 -10 -39 -10 -57c0 -27 -5 -47 -6 -70c-1 -6 3 -13 3 -21c0 -20 -5 -42 -3 -60c2 -16 5 -31 -2 -44c12 -89 -8 -187 7 -279c10 -13 11 -30 26 -34c21 -8 62 7 73 16
c56 47 -1 175 22 242c-5 33 3 67 7 101c12 102 24 204 5 291c-13 -8 -25 -3 -41 -4z" />
    <glyph glyph-name="Edieresis" unicode="&#xcb;" horiz-adv-x="277" 
d="M108 830c5 -24 1 -48 -18 -64c-13 -8 -26 1 -39 7c-1 23 -16 53 0 68c13 12 46 1 57 -11zM238 827c3 -26 -1 -49 -15 -62c-12 -7 -26 -9 -40 3c-11 25 -10 20 -12 33c-5 52 42 55 67 26zM263 713c-5 -11 -16 -17 -16 -34c-11 -13 -21 1 -39 4c-32 4 -69 -1 -86 -17
c11 -79 5 -166 8 -256c29 -11 103 3 132 -15c-17 -10 -19 -37 -39 -39c-6 -1 -11 3 -17 5c-28 6 -57 -2 -81 -13c-5 -17 -2 -35 -3 -49c-1 -5 -6 -10 -7 -15c0 -2 3 -6 3 -9c2 -31 -16 -69 -4 -95c-5 -13 -5 -30 -5 -45c-1 -11 2 -23 1 -33c0 -10 -5 -21 2 -32
c46 1 91 5 122 -15c-7 -2 5 -22 -2 -19c-32 -35 -121 -3 -172 -17c-22 5 -40 13 -52 28c-9 71 -1 156 6 229c4 33 2 62 7 98c1 6 4 9 5 14c5 69 6 162 -2 238c-1 9 3 19 2 29c-1 9 -1 22 -3 34c-3 14 -8 30 13 34c19 4 46 -2 66 -1c25 0 55 6 85 4c27 -1 57 0 76 -13z" />
    <glyph glyph-name="edieresis" unicode="&#xeb;" horiz-adv-x="269" 
d="M86 830c5 -24 1 -48 -18 -64c-13 -8 -26 1 -39 7c-1 23 -16 53 0 68c13 12 46 1 57 -11zM216 827c3 -26 -1 -49 -15 -62c-12 -7 -26 -9 -40 3c-11 25 -10 20 -12 33c-5 52 42 55 67 26zM238 735c-6 -7 -15 -9 -23 -17c-4 -24 -4 -36 -16 -48c-46 11 -83 7 -119 -9
c2 -8 -3 -16 5 -16c-8 -16 4 -33 5 -50c1 -14 -3 -28 -1 -42c3 -47 0 -98 3 -137c51 -7 105 16 159 15c-2 -9 -12 -9 -18 -13c7 -31 -20 -43 -31 -62c-30 -16 -86 -6 -112 -29c2 -55 -1 -134 -6 -187c9 -21 -5 -50 5 -69c42 0 97 20 139 0c2 -12 13 -14 18 -22
c-8 -20 -24 -8 -32 -17c-49 -3 -82 -10 -127 -21c-12 -2 -21 -4 -34 -6c-20 -4 -40 -14 -51 10c9 152 6 288 7 424c0 48 1 99 2 148c0 34 5 77 -2 104c-2 5 -7 10 -7 16c0 11 8 19 13 28c13 1 23 5 38 3c18 -3 37 -19 55 -3c5 0 4 -5 7 -7c45 3 87 14 123 7z" />
    <glyph glyph-name="germandbls" unicode="&#xdf;" horiz-adv-x="296" 
d="M221 461c13 -19 41 -22 50 -45c-2 -14 11 -28 2 -38c14 -57 0 -116 8 -191c4 -36 -12 -55 -29 -78c-24 -22 -36 -47 -67 -62c-37 -2 -62 9 -71 35c27 21 64 32 78 67c7 19 5 65 6 85c-4 57 5 119 -11 174c-38 -1 -50 -1 -71 27c16 25 31 35 41 65c4 33 1 83 -1 125
c-1 19 4 40 -3 51c-11 15 -33 11 -52 8c-18 -34 3 -80 -12 -116c8 -22 0 -44 0 -65c-1 -24 -2 -134 -3 -160c-1 -13 -5 -25 -5 -35c2 -39 1 -94 2 -138c10 -11 -3 -35 9 -48c-4 -25 1 -48 2 -69c3 -45 17 -117 -21 -136c-22 -2 -35 5 -49 16c3 113 -14 196 -19 296
c8 53 4 105 5 166c0 90 2 177 6 266c-9 21 6 39 2 62c26 27 82 17 113 18c4 0 22 -2 21 -5c33 4 53 -9 74 -28c29 -26 18 -76 22 -120c5 -46 12 -108 -27 -127z" />
    <glyph glyph-name="guillemotleft" unicode="&#xab;" horiz-adv-x="308" 
d="M204 315c20 -47 80 -69 83 -122c-16 -16 -45 -33 -67 -9c-13 10 -46 57 -60 74c-8 11 -22 18 -27 28c-12 20 -2 43 11 61c6 1 15 18 22 17c13 27 28 30 49 48c10 28 41 45 55 43c1 -3 20 -13 23 -13c5 -11 13 -23 5 -36c-34 -28 -66 -58 -94 -91zM157 450
c6 -12 15 -28 11 -44c-7 -5 -11 -11 -19 -15c-11 -31 -44 -60 -59 -89c9 -32 81 -68 80 -101c-4 -8 -11 -13 -15 -21c-8 -8 -13 -9 -39 6c-9 5 -14 15 -21 22c-12 10 -27 16 -31 30c-21 10 -29 32 -50 41c-23 20 1 43 19 54c21 31 44 61 67 91c-1 8 5 10 7 16
c14 9 31 13 50 10z" />
    <glyph glyph-name="guillemotright" unicode="&#xbb;" horiz-adv-x="302" 
d="M141 184l72 102c-22 38 -52 103 -81 135c0 23 12 24 26 34c12 9 40 -1 50 -16c3 -4 4 -12 6 -18c6 -16 18 -21 19 -39c1 -19 26 -49 38 -68c17 -26 37 -35 13 -62c-4 -4 -11 -7 -15 -11c-15 -15 -31 -40 -47 -57c-1 -2 -7 -10 -8 -11c-7 -6 -9 -7 -14 -10
c-10 -7 -25 -11 -37 -5c-19 4 -18 19 -22 26zM26 172c-14 12 58 76 61 78c6 19 20 29 26 47c-18 19 -39 39 -61 58c-28 24 -63 51 -40 73c5 1 24 22 28 21c13 9 32 -23 44 -29c17 -37 49 -43 68 -78c5 -2 16 -17 20 -20c14 -17 10 -41 -10 -54c-13 -23 -23 -48 -39 -67
c0 -12 -20 -25 -30 -31c-11 -8 -18 -17 -30 -18c-10 0 -29 19 -37 20z" />
    <glyph glyph-name="oacute" unicode="&#xf3;" 
d="M271 853c13 -12 13 -25 9 -34c-26 -15 -57 -43 -81 -53s-44 13 -52 33c13 13 33 22 52 32c28 15 35 45 72 22zM331 676c18 -89 -3 -193 -10 -278c-2 -7 6 -3 5 -9c-11 -34 -6 -75 -8 -112c0 -9 -5 -17 -5 -25c0 -49 6 -98 13 -146c-6 -21 -6 -43 -15 -59
c-5 -9 -16 -25 -24 -30c-17 -12 -37 -6 -60 -9c-7 0 -14 -6 -21 -8c-3 0 -9 2 -13 2c-28 -2 -55 -5 -83 0c-10 2 -21 2 -26 3c-4 1 -7 7 -12 8c-3 1 -8 -1 -11 0c-5 2 -22 14 -28 18c-13 12 -24 33 -17 52c-4 7 -9 13 -12 20c4 65 10 143 10 213c0 2 -3 4 -3 6
c0 19 6 39 6 60c1 15 -1 34 0 55c3 62 10 123 18 178c4 27 15 60 24 76c25 40 73 49 132 46c19 -1 39 -11 55 -12c6 0 12 3 17 2c4 -1 10 -6 18 -8c7 -2 17 -1 22 -4c15 -7 17 -26 28 -39zM204 676c-6 0 -11 -4 -16 -3c-9 2 -16 9 -24 8c-17 -1 -22 -20 -33 -32
c-1 -6 2 -8 2 -13c-10 -13 -8 -26 -10 -41c-3 -19 -10 -39 -10 -57c0 -27 -5 -47 -6 -70c-1 -6 3 -13 3 -21c0 -20 -5 -42 -3 -60c2 -16 5 -31 -2 -44c12 -89 -8 -187 7 -279c10 -13 11 -30 26 -34c21 -8 62 7 73 16c56 47 -1 175 22 242c-5 33 3 67 7 101
c12 102 24 204 5 291c-13 -8 -25 -3 -41 -4z" />
    <glyph glyph-name="ograve" unicode="&#xf2;" 
d="M210 750c-45 -4 -95 47 -109 58c3 42 42 36 45 35c26 -21 63 -33 92 -51c5 -21 -11 -35 -28 -42zM331 676c18 -89 -3 -193 -10 -278c-2 -7 6 -3 5 -9c-11 -34 -6 -75 -8 -112c0 -9 -5 -17 -5 -25c0 -49 6 -98 13 -146c-6 -21 -6 -43 -15 -59c-5 -9 -16 -25 -24 -30
c-17 -12 -37 -6 -60 -9c-7 0 -14 -6 -21 -8c-3 0 -9 2 -13 2c-28 -2 -55 -5 -83 0c-10 2 -21 2 -26 3c-4 1 -7 7 -12 8c-3 1 -8 -1 -11 0c-5 2 -22 14 -28 18c-13 12 -24 33 -17 52c-4 7 -9 13 -12 20c4 65 10 143 10 213c0 2 -3 4 -3 6c0 19 6 39 6 60c1 15 -1 34 0 55
c3 62 10 123 18 178c4 27 15 60 24 76c25 40 73 49 132 46c19 -1 39 -11 55 -12c6 0 12 3 17 2c4 -1 10 -6 18 -8c7 -2 17 -1 22 -4c15 -7 17 -26 28 -39zM204 676c-6 0 -11 -4 -16 -3c-9 2 -16 9 -24 8c-17 -1 -22 -20 -33 -32c-1 -6 2 -8 2 -13c-10 -13 -8 -26 -10 -41
c-3 -19 -10 -39 -10 -57c0 -27 -5 -47 -6 -70c-1 -6 3 -13 3 -21c0 -20 -5 -42 -3 -60c2 -16 5 -31 -2 -44c12 -89 -8 -187 7 -279c10 -13 11 -30 26 -34c21 -8 62 7 73 16c56 47 -1 175 22 242c-5 33 3 67 7 101c12 102 24 204 5 291c-13 -8 -25 -3 -41 -4z" />
    <glyph glyph-name="Ograve" unicode="&#xd2;" horiz-adv-x="356" 
d="M202 763c-45 -4 -95 47 -109 58c3 42 42 36 45 35c26 -21 63 -33 92 -51c5 -21 -11 -35 -28 -42zM318 158c7 -16 -8 -34 0 -44c-8 -23 -16 -44 -29 -65c-11 -5 -22 -9 -36 -16c-9 -5 -14 -13 -21 -16c-65 -37 -212 -24 -231 58c-5 23 -3 60 -1 85c3 59 7 130 16 182
c14 76 24 151 31 225c1 17 -1 33 2 49c4 30 15 58 21 86c11 11 17 25 31 33c20 5 36 9 56 10c8 0 16 -5 25 -5c26 -1 49 6 76 -3c12 -5 36 -19 44 -30c8 -10 15 -36 23 -47c6 -10 2 -37 1 -52c0 -10 6 -19 5 -29c0 -5 -4 -11 -5 -16c-1 -14 5 -28 5 -43c2 -28 -6 -56 -5 -76
c1 -11 7 -20 7 -31c0 -25 -3 -51 -3 -76c0 -8 4 -17 5 -25c0 -15 -5 -32 -5 -48c0 -13 2 -26 1 -39c0 -9 -3 -19 -5 -28c-2 -15 -1 -28 -8 -39zM185 56c28 41 34 100 42 149c6 37 7 77 8 115c1 27 2 64 -1 91c-1 6 3 13 3 18l-3 164c-1 35 -3 68 -18 98c-2 0 -2 2 -5 2
c-14 -12 -34 -16 -57 -21c-31 -48 -18 -116 -32 -174c6 -18 -2 -38 -4 -56c-1 -18 -2 -34 -4 -48c-6 -43 1 -108 -10 -158c4 -54 -4 -113 13 -169c8 -9 11 -22 27 -23c10 8 28 8 41 12z" />
    <glyph glyph-name="q" unicode="q" horiz-adv-x="339" 
d="M286 27c-19 -7 -38 -14 -59 -20c-4 -38 -5 -76 3 -117c-13 -6 -18 6 -28 12c-19 10 -38 7 -49 26c-7 12 -4 32 -4 47l-3 21c-15 0 -32 1 -49 3c-13 2 -22 7 -38 12c-11 14 -26 25 -35 42c-15 87 -21 163 -12 253c2 22 2 43 3 64c3 48 5 98 4 146c-1 25 -4 49 -2 73
c0 5 5 12 7 20c2 13 1 29 4 39c10 27 32 48 51 70c22 10 39 21 65 21c7 0 13 -3 21 -4c27 -1 51 3 77 -1c28 -5 47 -13 57 -38c2 -6 1 -14 3 -22c4 -14 11 -29 13 -43c1 -5 -2 -11 -2 -17c3 -80 3 -155 7 -235c2 -44 -2 -80 -2 -115c0 -25 4 -49 3 -71c0 -20 -7 -39 -4 -62
c0 0 -2 -55 -7 -73c-6 -17 -24 -31 -24 -31zM239 73c10 52 -10 202 -4 248c-8 40 0 82 0 125c0 49 -3 95 -6 140c-2 22 -1 43 -7 62c-2 8 -12 29 -14 32c-16 22 -54 6 -80 5c-19 -11 -18 -43 -28 -63c3 -16 -5 -32 -5 -47c-1 -49 14 -90 11 -132c-1 -19 0 -34 -1 -51
c-1 -5 -5 -10 -5 -14c0 -9 4 -23 3 -34c-2 -28 -5 -55 -5 -83c1 -38 7 -61 12 -98c3 -25 -1 -53 5 -73c4 -17 19 -35 30 -45l2 36c8 21 -10 39 0 60c29 16 46 4 66 -7l10 -74c9 4 15 9 16 13z" />
    <glyph glyph-name="tilde" unicode="&#x2dc;" horiz-adv-x="277" 
d="M275 810c3 -10 -7 -16 -13 -21c-8 -8 -12 -13 -21 -18s-20 -15 -31 -17c-6 -1 -19 1 -25 0c-21 -3 -74 26 -101 20c-25 -19 -34 -20 -65 -27c-5 4 -11 7 -13 14c-1 7 -9 12 -7 16c-2 6 7 7 5 13c19 26 7 17 62 28c40 -2 70 -17 119 -15c20 1 8 30 55 22
c14 -3 27 -9 35 -15z" />
    <glyph glyph-name="circumflex" unicode="&#x2c6;" horiz-adv-x="189" 
d="M170 759c-40 1 -51 43 -83 57c-10 -9 -21 -18 -33 -31c-8 -10 -19 -31 -29 -34c-29 -10 -35 48 -5 53c11 24 33 36 44 59c7 3 10 11 16 13c23 8 41 -9 49 -25c14 -5 25 -15 34 -26c9 2 11 -3 17 -4c8 -23 2 -46 -10 -62z" />
    <glyph glyph-name="acute" unicode="&#xb4;" horiz-adv-x="254" 
d="M196 836c13 -12 13 -25 9 -34c-26 -15 -57 -43 -81 -53s-44 13 -52 33c13 13 33 22 52 32c28 15 35 45 72 22z" />
    <glyph glyph-name="divide" unicode="&#xf7;" horiz-adv-x="313" 
d="M5 264c-12 25 3 36 29 60c31 12 69 -1 107 -4c43 -2 110 19 140 4c12 2 17 -13 16 -30c0 -9 -24 -27 -30 -34c-94 -13 -177 2 -262 4zM117 371c-17 23 -2 37 3 50c16 17 52 24 70 5c8 -9 8 -61 -10 -70c-16 1 -46 5 -63 15zM94 162c-7 19 -8 27 4 47c8 13 25 6 37 9
c30 8 47 5 50 -15c2 -19 2 -45 -13 -51c-14 -5 -71 -10 -78 10z" />
    <glyph glyph-name="dieresis" unicode="&#xa8;" horiz-adv-x="317" 
d="M139 830c5 -24 1 -48 -18 -64c-13 -8 -26 1 -39 7c-1 23 -16 53 0 68c13 12 46 1 57 -11zM269 827c3 -26 -1 -49 -15 -62c-12 -7 -26 -9 -40 3c-11 25 -10 20 -12 33c-5 52 42 55 67 26z" />
    <glyph glyph-name="multiply" unicode="&#xd7;" horiz-adv-x="257" 
d="M71 421c19 -19 42 -40 59 -66c32 29 50 70 93 81c17 -16 21 -37 23 -60c-15 -24 -56 -40 -70 -67c19 -27 55 -58 75 -75c-16 -12 -15 -45 -59 -56c-14 21 -57 56 -71 74c-28 -23 -51 -75 -86 -81c-7 11 -23 13 -27 32c4 33 52 69 74 93c-24 24 -49 42 -73 70
c20 43 53 64 62 55z" />
    <glyph glyph-name="Yacute" unicode="&#xdd;" horiz-adv-x="347" 
d="M328 719c-1 -12 -6 -20 -7 -33c-24 -32 -32 -94 -66 -122c-3 -23 -9 -33 -21 -47c4 -11 -6 -17 -9 -26c-4 -18 0 -38 -6 -57s-5 -43 -7 -70c-3 -53 1 -95 0 -139c0 -8 -4 -14 -4 -22c-2 -13 2 -28 1 -40c-1 -8 -6 -15 -6 -23c-1 -5 3 -9 3 -15s-3 -14 -3 -21
c-1 -27 3 -55 6 -83c-4 -8 -17 -7 -21 -16c-35 12 -61 -25 -83 0c-4 5 -5 21 -5 33c2 45 15 121 10 159c7 9 3 19 3 29c1 6 4 10 5 16c2 19 -1 38 0 52c2 47 13 126 10 176c-40 90 -81 169 -132 245c14 29 61 12 83 10c30 -55 69 -127 95 -182c33 41 51 127 68 179
c22 24 60 2 86 -3zM249 836c13 -12 13 -25 9 -34c-26 -15 -57 -43 -81 -53s-44 13 -52 33c13 13 33 22 52 32c28 15 35 45 72 22zM328 719c-1 -12 -6 -20 -7 -33c-24 -32 -32 -94 -66 -122c-3 -23 -9 -33 -21 -47c4 -11 -6 -17 -9 -26c-4 -18 0 -38 -6 -57s-5 -43 -7 -70
c-3 -53 1 -95 0 -139c0 -8 -4 -14 -4 -22c-2 -13 2 -28 1 -40c-1 -8 -6 -15 -6 -23c-1 -5 3 -9 3 -15s-3 -14 -3 -21c-1 -27 3 -55 6 -83c-4 -8 -17 -7 -21 -16c-35 12 -61 -25 -83 0c-4 5 -5 21 -5 33c2 45 15 121 10 159c7 9 3 19 3 29c1 6 4 10 5 16c2 19 -1 38 0 52
c2 47 13 126 10 176c-40 90 -81 169 -132 245c14 29 61 12 83 10c30 -55 69 -127 95 -182c33 41 51 127 68 179c22 24 60 2 86 -3z" />
    <glyph glyph-name="yacute" unicode="&#xfd;" horiz-adv-x="339" 
d="M323 725c5 -21 -2 -50 -9 -70c-1 -6 -5 -25 -9 -32c-4 -8 -15 -23 -18 -35c-2 -6 0 -12 -2 -17c-7 -26 -26 -39 -29 -69c-10 -8 -12 -24 -21 -34c-1 -15 -10 -26 -16 -39c-4 -8 -6 -18 -10 -26c-1 -3 -7 -6 -8 -10c-3 -9 0 -21 -2 -30c-1 -5 -5 -8 -6 -12
c-3 -8 -1 -18 -2 -27c-1 -12 -6 -23 -7 -33c-4 -47 -13 -93 -17 -141c-2 -20 1 -40 0 -61c-1 -7 -5 -11 -5 -17c-1 -20 13 -48 0 -70c-36 6 -69 -20 -98 5c4 46 -1 93 7 139c8 47 13 112 22 168c5 24 10 48 15 76c3 16 0 34 10 49c-17 28 -26 73 -41 106
c-22 50 -45 97 -71 147c-5 7 -13 9 -13 17c-1 26 48 14 70 24c7 -6 22 -5 32 -8c-3 -14 11 -32 11 -47c28 -40 44 -94 67 -138c32 56 50 126 73 191c19 16 54 5 77 -6zM249 836c13 -12 13 -25 9 -34c-26 -15 -57 -43 -81 -53s-44 13 -52 33c13 13 33 22 52 32
c28 15 35 45 72 22z" />
    <glyph glyph-name="quotedbl" unicode="&#x22;" horiz-adv-x="160" 
d="M67 727l-10 -125c-27 -16 -21 31 -41 42c-8 32 -15 71 1 105c21 3 50 1 50 -22zM141 743c0 -40 5 -77 -16 -116c-10 -19 -19 -40 -37 -21c7 24 -9 83 2 127c6 18 39 15 51 10z" />
    <glyph glyph-name="quotedblleft" unicode="&#x201c;" horiz-adv-x="153" 
d="M142 635c1 -5 -4 -4 -5 -8c2 -17 15 -27 13 -42c-24 -20 -33 19 -55 26c-13 30 -21 75 -11 112c20 6 49 10 53 -13c4 -21 -6 -56 5 -75zM59 734c15 -23 0 -64 15 -89c-12 -15 6 -31 10 -49c-14 -23 -27 1 -41 13c-5 5 -15 7 -19 13c-7 10 -15 41 -17 52c-1 8 4 15 4 23
c0 13 -8 26 0 36c12 8 34 6 48 1z" />
    <glyph glyph-name="quotedblright" unicode="&#x201d;" horiz-adv-x="160" 
d="M80 730c3 -35 -1 -63 -16 -92c-21 -5 -37 -44 -60 -22c-1 17 13 19 14 35c5 6 -4 5 -3 13c14 20 4 57 15 74c18 4 40 2 50 -8zM147 735c3 -13 5 -31 3 -47c-1 -10 -7 -36 -15 -46c-3 -3 -12 -6 -16 -9c-17 -13 -26 -32 -44 -13c-1 12 11 20 15 32c2 7 -3 7 -3 12
c12 18 2 58 14 76c16 4 34 0 46 -5z" />
    <glyph glyph-name="quoteright" unicode="&#x2019;" horiz-adv-x="85" 
d="M80 730c3 -35 -1 -63 -16 -92c-21 -5 -37 -44 -60 -22c-1 17 13 19 14 35c5 6 -4 5 -3 13c14 20 4 57 15 74c18 4 40 2 50 -8z" />
    <glyph glyph-name="quoteleft" unicode="&#x2018;" horiz-adv-x="87" 
d="M59 734c15 -23 17 -60 15 -89c-1 -19 6 -31 10 -49c-14 -23 -27 1 -41 13c-5 5 -15 7 -19 13c-7 10 -15 41 -17 52c-1 8 4 15 4 23c0 13 -8 26 0 36c12 8 34 6 48 1z" />
    <glyph glyph-name="Ydieresis" unicode="&#x178;" horiz-adv-x="344" 
d="M328 719c-1 -12 -6 -20 -7 -33c-24 -32 -32 -94 -66 -122c-3 -23 -9 -33 -21 -47c4 -11 -6 -17 -9 -26c-4 -18 0 -38 -6 -57s-5 -43 -7 -70c-3 -53 1 -95 0 -139c0 -8 -4 -14 -4 -22c-2 -13 2 -28 1 -40c-1 -8 -6 -15 -6 -23c-1 -5 3 -9 3 -15s-3 -14 -3 -21
c-1 -27 3 -55 6 -83c-4 -8 -17 -7 -21 -16c-35 12 -61 -25 -83 0c-4 5 -5 21 -5 33c2 45 15 121 10 159c7 9 3 19 3 29c1 6 4 10 5 16c2 19 -1 38 0 52c2 47 13 126 10 176c-40 90 -81 169 -132 245c14 29 61 12 83 10c30 -55 69 -127 95 -182c33 41 51 127 68 179
c22 24 60 2 86 -3zM141 830c5 -24 1 -48 -18 -64c-13 -8 -26 1 -39 7c-1 23 -16 53 0 68c13 12 46 1 57 -11zM271 827c3 -26 -1 -49 -15 -62c-12 -7 -26 -9 -40 3c-11 25 -10 20 -12 33c-5 52 42 55 67 26z" />
    <glyph glyph-name="ydieresis" unicode="&#xff;" horiz-adv-x="342" 
d="M323 725c5 -21 -2 -50 -9 -70c-1 -6 -5 -25 -9 -32c-4 -8 -15 -23 -18 -35c-2 -6 0 -12 -2 -17c-7 -26 -26 -39 -29 -69c-10 -8 -12 -24 -21 -34c-1 -15 -10 -26 -16 -39c-4 -8 -6 -18 -10 -26c-1 -3 -7 -6 -8 -10c-3 -9 0 -21 -2 -30c-1 -5 -5 -8 -6 -12
c-3 -8 -1 -18 -2 -27c-1 -12 -6 -23 -7 -33c-4 -47 -13 -93 -17 -141c-2 -20 1 -40 0 -61c-1 -7 -5 -11 -5 -17c-1 -20 13 -48 0 -70c-36 6 -69 -20 -98 5c4 46 -1 93 7 139c8 47 13 112 22 168c5 24 10 48 15 76c3 16 0 34 10 49c-17 28 -26 73 -41 106
c-22 50 -45 97 -71 147c-5 7 -13 9 -13 17c-1 26 48 14 70 24c7 -6 22 -5 32 -8c-3 -14 11 -32 11 -47c28 -40 44 -94 67 -138c32 56 50 126 73 191c19 16 54 5 77 -6zM139 830c5 -24 1 -48 -18 -64c-13 -8 -26 1 -39 7c-1 23 -16 53 0 68c13 12 46 1 57 -11zM269 827
c3 -26 -1 -49 -15 -62c-12 -7 -26 -9 -40 3c-11 25 -10 20 -12 33c-5 52 42 55 67 26z" />
    <glyph glyph-name="cent" unicode="&#xa2;" horiz-adv-x="314" 
d="M175 -8c-1 -9 0 -24 0 -33c-19 -25 -61 -12 -88 -6c1 15 -6 36 -7 51c0 3 1 6 1 8c-19 11 -32 24 -42 40c-15 26 -23 63 -22 96c-10 32 -10 66 -9 106c1 39 2 83 4 127c0 25 -6 50 -5 74c1 30 2 60 1 90c0 17 -5 36 -4 53c1 7 4 19 7 28c7 51 28 67 68 80c10 3 24 5 39 6
c-3 21 -5 42 -7 58c24 -1 41 26 63 22c12 -2 17 -14 27 -22c-1 -22 -2 -45 -1 -67c9 -5 20 -4 30 -7c8 -2 16 -9 21 -11c22 -9 30 -38 42 -54c-1 -15 3 -28 3 -49c-15 -7 -49 -11 -66 -8c-25 5 -20 23 -24 46c-2 15 -13 42 -24 50c-17 12 -54 -1 -62 -7
c-19 -28 -22 -69 -22 -100c-1 -43 7 -90 9 -135c0 -16 2 -31 3 -47c-1 -14 -1 -29 -2 -41c0 -16 -4 -39 -4 -44c0 -36 -5 -81 0 -122c1 -9 6 -18 7 -27c1 -5 -3 -10 -3 -15c1 -12 9 -34 14 -46c9 -24 58 -46 104 -13c7 5 16 8 25 8c9 -1 34 -12 31 -30c-1 -5 -7 -7 -12 -14
s-6 -13 -10 -16c-7 -5 -27 -20 -35 -21c-11 -1 -40 -8 -50 -8z" />
    <glyph glyph-name="copyright" unicode="&#xa9;" horiz-adv-x="452" 
d="M411 193c7 -12 -8 -26 0 -35c-8 -18 -16 -34 -29 -51c-11 -3 -22 -7 -36 -13c-9 -3 -14 -9 -21 -12c-65 -29 -296 -26 -315 38c-5 18 -3 47 -1 67c3 46 2 107 5 148c5 63 -8 121 -1 180c1 14 -1 26 2 39c4 23 15 45 21 67c11 9 17 20 31 27c20 3 53 10 73 11
c8 0 126 -2 135 -2c26 0 49 -1 76 -8c12 -4 36 -15 44 -24c8 -7 15 -28 23 -36c6 -9 2 -29 1 -42c0 -7 6 -15 5 -22c0 -5 -4 -10 -5 -13c-1 -12 5 -22 5 -34c2 -22 -6 -44 -5 -60c1 -9 7 -15 7 -24c0 -20 -3 -40 -3 -60c0 -6 4 -14 5 -19c0 -12 -5 -26 -5 -39
c0 -10 2 -19 1 -30c0 -7 -3 -15 -5 -22c-2 -12 -1 -22 -8 -31zM296 134c34 36 32 48 43 89c6 32 10 66 11 98c1 24 3 56 0 80c-1 5 3 11 3 15c0 48 -5 54 -5 97c-3 31 0 45 -18 72c-2 0 -2 2 -5 2c-27 8 -175 18 -214 -8c-47 -31 -12 -57 -29 -107c6 -15 -2 -33 -7 -48
c-1 -15 -2 -28 -4 -41c-9 -37 0 -93 -14 -136c3 -45 3 -57 24 -105c7 -9 16 -19 36 -20c12 6 163 8 179 12zM189 374c0 -2 2 -27 2 -35c1 -4 2 -9 2 -13c-1 -22 1 -47 6 -71c2 -17 11 -34 26 -42c13 0 13 11 16 20c19 9 38 6 59 2c1 -6 -2 -7 -5 -19c-16 -9 -34 -17 -57 -22
c-28 -6 -65 1 -83 10c-14 11 -18 39 -21 60c-3 14 -3 28 -4 43c-1 36 -2 54 -1 87c1 19 1 36 8 52c0 15 7 32 17 45c18 21 58 34 92 30c3 0 17 0 21 -3c2 -1 2 -4 5 -7c4 -4 7 -5 7 -7c1 -9 -14 -14 -19 -15c-7 0 -11 3 -16 4c-19 3 -21 1 -38 -18c-4 -5 -10 -16 -10 -22
c0 -3 1 -5 1 -7c-1 -5 -4 -9 -5 -14c-4 -19 -2 -42 -3 -58z" />
    <glyph glyph-name="registered" unicode="&#xae;" horiz-adv-x="438" 
d="M269 359c9 -9 8 -21 11 -34c5 -11 6 -19 7 -32c2 -9 0 -17 0 -26c0 -11 4 -19 3 -30c-1 -5 0 -9 1 -15c2 -11 2 -19 8 -27c-9 -2 -17 -2 -26 -1c-4 -6 -13 -8 -31 -6c-6 1 -8 7 -10 13c-3 21 0 49 -4 68c1 18 -1 36 -2 57c0 6 1 13 -6 18c-10 -2 -32 0 -37 -9
c0 1 0 -9 0 -10c1 -10 5 -17 6 -25c0 -7 -5 -16 -4 -26c0 -9 7 -17 8 -24c2 -2 3 -8 3 -12c0 -1 -3 -3 -3 -4c2 -4 3 -8 4 -15c0 -7 -1 -11 2 -16c-7 -4 -13 0 -18 -1c-6 -3 -11 -7 -18 -7c-4 -1 -9 1 -14 0c-23 6 -9 25 -11 42c-3 31 -3 79 -3 114c0 31 7 71 7 99
c0 10 -2 24 -2 33c0 11 0 29 8 33c43 9 98 3 137 -4c1 -3 5 -4 8 -6c1 0 3 -20 4 -18c4 -14 9 -33 4 -51c-2 -2 -3 -4 -4 -5c0 -5 2 -7 1 -10c-1 -18 -11 -35 -21 -50c-5 -2 -8 -9 -8 -13zM179 483c4 -41 -11 -72 2 -110c23 0 41 2 48 16c10 18 13 43 13 63c0 11 0 24 -5 34
c-17 3 -44 4 -58 -3zM13 526c-7 12 8 26 0 35c8 18 16 34 29 51c11 3 22 7 36 13c9 3 14 9 21 12c65 29 296 26 315 -38c5 -18 3 -47 1 -67c-3 -46 -2 -107 -5 -148c-5 -63 8 -121 1 -180c-1 -14 1 -26 -2 -39c-4 -23 -15 -45 -21 -67c-11 -9 -17 -20 -31 -27
c-20 -3 -53 -10 -73 -11c-8 0 -126 2 -135 2c-26 0 -49 1 -76 8c-12 4 -36 15 -44 24c-8 7 -15 28 -23 36c-6 9 -2 29 -1 42c0 7 -6 15 -5 22c0 5 4 10 5 13c1 12 -5 22 -5 34c-2 22 6 44 5 60c-1 9 -7 15 -7 24c0 20 3 40 3 60c0 6 -4 14 -5 19c0 12 5 26 5 39
c0 10 -2 19 -1 30c0 7 3 15 5 22c2 12 1 22 8 31zM128 583c-34 -36 -32 -48 -43 -89c-6 -32 -10 -66 -11 -98c-1 -24 -3 -56 0 -80c1 -5 -3 -11 -3 -15c0 -48 5 -54 5 -97c3 -31 0 -45 18 -72c2 0 2 -2 5 -2c27 -8 170 -8 214 8c39 41 12 57 29 107c-6 15 2 33 7 48
c1 15 2 28 4 41c9 37 0 93 14 136c-3 45 -3 57 -24 105c-7 9 -16 19 -36 20c-12 -6 -163 -8 -179 -12z" />
    <glyph glyph-name="space" unicode=" " horiz-adv-x="183" 
 />
  </font>
</defs>
</svg>
